G04 #@! TF.GenerationSoftware,KiCad,Pcbnew,(5.0.1)-4*
G04 #@! TF.CreationDate,2019-01-31T17:22:40-08:00*
G04 #@! TF.ProjectId,programing_adapter,70726F6772616D696E675F6164617074,rev?*
G04 #@! TF.SameCoordinates,Original*
G04 #@! TF.FileFunction,Legend,Bot*
G04 #@! TF.FilePolarity,Positive*
%FSLAX46Y46*%
G04 Gerber Fmt 4.6, Leading zero omitted, Abs format (unit mm)*
G04 Created by KiCad (PCBNEW (5.0.1)-4) date 1/31/2019 5:22:40 PM*
%MOMM*%
%LPD*%
G01*
G04 APERTURE LIST*
%ADD10C,0.150000*%
G04 APERTURE END LIST*
G04 #@! TO.C,TP5*
D10*
X200170704Y-147289180D02*
X199599276Y-147289180D01*
X199884990Y-148289180D02*
X199884990Y-147289180D01*
X199265942Y-148289180D02*
X199265942Y-147289180D01*
X198884990Y-147289180D01*
X198789752Y-147336800D01*
X198742133Y-147384419D01*
X198694514Y-147479657D01*
X198694514Y-147622514D01*
X198742133Y-147717752D01*
X198789752Y-147765371D01*
X198884990Y-147812990D01*
X199265942Y-147812990D01*
X197789752Y-147289180D02*
X198265942Y-147289180D01*
X198313561Y-147765371D01*
X198265942Y-147717752D01*
X198170704Y-147670133D01*
X197932609Y-147670133D01*
X197837371Y-147717752D01*
X197789752Y-147765371D01*
X197742133Y-147860609D01*
X197742133Y-148098704D01*
X197789752Y-148193942D01*
X197837371Y-148241561D01*
X197932609Y-148289180D01*
X198170704Y-148289180D01*
X198265942Y-148241561D01*
X198313561Y-148193942D01*
X199652695Y-152319780D02*
X199986028Y-151843590D01*
X200224123Y-152319780D02*
X200224123Y-151319780D01*
X199843171Y-151319780D01*
X199747933Y-151367400D01*
X199700314Y-151415019D01*
X199652695Y-151510257D01*
X199652695Y-151653114D01*
X199700314Y-151748352D01*
X199747933Y-151795971D01*
X199843171Y-151843590D01*
X200224123Y-151843590D01*
X198843171Y-152272161D02*
X198938409Y-152319780D01*
X199128885Y-152319780D01*
X199224123Y-152272161D01*
X199271742Y-152176923D01*
X199271742Y-151795971D01*
X199224123Y-151700733D01*
X199128885Y-151653114D01*
X198938409Y-151653114D01*
X198843171Y-151700733D01*
X198795552Y-151795971D01*
X198795552Y-151891209D01*
X199271742Y-151986447D01*
X198414600Y-152272161D02*
X198319361Y-152319780D01*
X198128885Y-152319780D01*
X198033647Y-152272161D01*
X197986028Y-152176923D01*
X197986028Y-152129304D01*
X198033647Y-152034066D01*
X198128885Y-151986447D01*
X198271742Y-151986447D01*
X198366980Y-151938828D01*
X198414600Y-151843590D01*
X198414600Y-151795971D01*
X198366980Y-151700733D01*
X198271742Y-151653114D01*
X198128885Y-151653114D01*
X198033647Y-151700733D01*
X197176504Y-152272161D02*
X197271742Y-152319780D01*
X197462219Y-152319780D01*
X197557457Y-152272161D01*
X197605076Y-152176923D01*
X197605076Y-151795971D01*
X197557457Y-151700733D01*
X197462219Y-151653114D01*
X197271742Y-151653114D01*
X197176504Y-151700733D01*
X197128885Y-151795971D01*
X197128885Y-151891209D01*
X197605076Y-151986447D01*
X196843171Y-151653114D02*
X196462219Y-151653114D01*
X196700314Y-151319780D02*
X196700314Y-152176923D01*
X196652695Y-152272161D01*
X196557457Y-152319780D01*
X196462219Y-152319780D01*
X171170704Y-147289180D02*
X170599276Y-147289180D01*
X170884990Y-148289180D02*
X170884990Y-147289180D01*
X170265942Y-148289180D02*
X170265942Y-147289180D01*
X169884990Y-147289180D01*
X169789752Y-147336800D01*
X169742133Y-147384419D01*
X169694514Y-147479657D01*
X169694514Y-147622514D01*
X169742133Y-147717752D01*
X169789752Y-147765371D01*
X169884990Y-147812990D01*
X170265942Y-147812990D01*
X168789752Y-147289180D02*
X169265942Y-147289180D01*
X169313561Y-147765371D01*
X169265942Y-147717752D01*
X169170704Y-147670133D01*
X168932609Y-147670133D01*
X168837371Y-147717752D01*
X168789752Y-147765371D01*
X168742133Y-147860609D01*
X168742133Y-148098704D01*
X168789752Y-148193942D01*
X168837371Y-148241561D01*
X168932609Y-148289180D01*
X169170704Y-148289180D01*
X169265942Y-148241561D01*
X169313561Y-148193942D01*
X170652695Y-152319780D02*
X170986028Y-151843590D01*
X171224123Y-152319780D02*
X171224123Y-151319780D01*
X170843171Y-151319780D01*
X170747933Y-151367400D01*
X170700314Y-151415019D01*
X170652695Y-151510257D01*
X170652695Y-151653114D01*
X170700314Y-151748352D01*
X170747933Y-151795971D01*
X170843171Y-151843590D01*
X171224123Y-151843590D01*
X169843171Y-152272161D02*
X169938409Y-152319780D01*
X170128885Y-152319780D01*
X170224123Y-152272161D01*
X170271742Y-152176923D01*
X170271742Y-151795971D01*
X170224123Y-151700733D01*
X170128885Y-151653114D01*
X169938409Y-151653114D01*
X169843171Y-151700733D01*
X169795552Y-151795971D01*
X169795552Y-151891209D01*
X170271742Y-151986447D01*
X169414600Y-152272161D02*
X169319361Y-152319780D01*
X169128885Y-152319780D01*
X169033647Y-152272161D01*
X168986028Y-152176923D01*
X168986028Y-152129304D01*
X169033647Y-152034066D01*
X169128885Y-151986447D01*
X169271742Y-151986447D01*
X169366980Y-151938828D01*
X169414600Y-151843590D01*
X169414600Y-151795971D01*
X169366980Y-151700733D01*
X169271742Y-151653114D01*
X169128885Y-151653114D01*
X169033647Y-151700733D01*
X168176504Y-152272161D02*
X168271742Y-152319780D01*
X168462219Y-152319780D01*
X168557457Y-152272161D01*
X168605076Y-152176923D01*
X168605076Y-151795971D01*
X168557457Y-151700733D01*
X168462219Y-151653114D01*
X168271742Y-151653114D01*
X168176504Y-151700733D01*
X168128885Y-151795971D01*
X168128885Y-151891209D01*
X168605076Y-151986447D01*
X167843171Y-151653114D02*
X167462219Y-151653114D01*
X167700314Y-151319780D02*
X167700314Y-152176923D01*
X167652695Y-152272161D01*
X167557457Y-152319780D01*
X167462219Y-152319780D01*
X142170704Y-147289180D02*
X141599276Y-147289180D01*
X141884990Y-148289180D02*
X141884990Y-147289180D01*
X141265942Y-148289180D02*
X141265942Y-147289180D01*
X140884990Y-147289180D01*
X140789752Y-147336800D01*
X140742133Y-147384419D01*
X140694514Y-147479657D01*
X140694514Y-147622514D01*
X140742133Y-147717752D01*
X140789752Y-147765371D01*
X140884990Y-147812990D01*
X141265942Y-147812990D01*
X139789752Y-147289180D02*
X140265942Y-147289180D01*
X140313561Y-147765371D01*
X140265942Y-147717752D01*
X140170704Y-147670133D01*
X139932609Y-147670133D01*
X139837371Y-147717752D01*
X139789752Y-147765371D01*
X139742133Y-147860609D01*
X139742133Y-148098704D01*
X139789752Y-148193942D01*
X139837371Y-148241561D01*
X139932609Y-148289180D01*
X140170704Y-148289180D01*
X140265942Y-148241561D01*
X140313561Y-148193942D01*
X141652695Y-152319780D02*
X141986028Y-151843590D01*
X142224123Y-152319780D02*
X142224123Y-151319780D01*
X141843171Y-151319780D01*
X141747933Y-151367400D01*
X141700314Y-151415019D01*
X141652695Y-151510257D01*
X141652695Y-151653114D01*
X141700314Y-151748352D01*
X141747933Y-151795971D01*
X141843171Y-151843590D01*
X142224123Y-151843590D01*
X140843171Y-152272161D02*
X140938409Y-152319780D01*
X141128885Y-152319780D01*
X141224123Y-152272161D01*
X141271742Y-152176923D01*
X141271742Y-151795971D01*
X141224123Y-151700733D01*
X141128885Y-151653114D01*
X140938409Y-151653114D01*
X140843171Y-151700733D01*
X140795552Y-151795971D01*
X140795552Y-151891209D01*
X141271742Y-151986447D01*
X140414600Y-152272161D02*
X140319361Y-152319780D01*
X140128885Y-152319780D01*
X140033647Y-152272161D01*
X139986028Y-152176923D01*
X139986028Y-152129304D01*
X140033647Y-152034066D01*
X140128885Y-151986447D01*
X140271742Y-151986447D01*
X140366980Y-151938828D01*
X140414600Y-151843590D01*
X140414600Y-151795971D01*
X140366980Y-151700733D01*
X140271742Y-151653114D01*
X140128885Y-151653114D01*
X140033647Y-151700733D01*
X139176504Y-152272161D02*
X139271742Y-152319780D01*
X139462219Y-152319780D01*
X139557457Y-152272161D01*
X139605076Y-152176923D01*
X139605076Y-151795971D01*
X139557457Y-151700733D01*
X139462219Y-151653114D01*
X139271742Y-151653114D01*
X139176504Y-151700733D01*
X139128885Y-151795971D01*
X139128885Y-151891209D01*
X139605076Y-151986447D01*
X138843171Y-151653114D02*
X138462219Y-151653114D01*
X138700314Y-151319780D02*
X138700314Y-152176923D01*
X138652695Y-152272161D01*
X138557457Y-152319780D01*
X138462219Y-152319780D01*
X200170704Y-113089180D02*
X199599276Y-113089180D01*
X199884990Y-114089180D02*
X199884990Y-113089180D01*
X199265942Y-114089180D02*
X199265942Y-113089180D01*
X198884990Y-113089180D01*
X198789752Y-113136800D01*
X198742133Y-113184419D01*
X198694514Y-113279657D01*
X198694514Y-113422514D01*
X198742133Y-113517752D01*
X198789752Y-113565371D01*
X198884990Y-113612990D01*
X199265942Y-113612990D01*
X197789752Y-113089180D02*
X198265942Y-113089180D01*
X198313561Y-113565371D01*
X198265942Y-113517752D01*
X198170704Y-113470133D01*
X197932609Y-113470133D01*
X197837371Y-113517752D01*
X197789752Y-113565371D01*
X197742133Y-113660609D01*
X197742133Y-113898704D01*
X197789752Y-113993942D01*
X197837371Y-114041561D01*
X197932609Y-114089180D01*
X198170704Y-114089180D01*
X198265942Y-114041561D01*
X198313561Y-113993942D01*
X199652695Y-118119780D02*
X199986028Y-117643590D01*
X200224123Y-118119780D02*
X200224123Y-117119780D01*
X199843171Y-117119780D01*
X199747933Y-117167400D01*
X199700314Y-117215019D01*
X199652695Y-117310257D01*
X199652695Y-117453114D01*
X199700314Y-117548352D01*
X199747933Y-117595971D01*
X199843171Y-117643590D01*
X200224123Y-117643590D01*
X198843171Y-118072161D02*
X198938409Y-118119780D01*
X199128885Y-118119780D01*
X199224123Y-118072161D01*
X199271742Y-117976923D01*
X199271742Y-117595971D01*
X199224123Y-117500733D01*
X199128885Y-117453114D01*
X198938409Y-117453114D01*
X198843171Y-117500733D01*
X198795552Y-117595971D01*
X198795552Y-117691209D01*
X199271742Y-117786447D01*
X198414600Y-118072161D02*
X198319361Y-118119780D01*
X198128885Y-118119780D01*
X198033647Y-118072161D01*
X197986028Y-117976923D01*
X197986028Y-117929304D01*
X198033647Y-117834066D01*
X198128885Y-117786447D01*
X198271742Y-117786447D01*
X198366980Y-117738828D01*
X198414600Y-117643590D01*
X198414600Y-117595971D01*
X198366980Y-117500733D01*
X198271742Y-117453114D01*
X198128885Y-117453114D01*
X198033647Y-117500733D01*
X197176504Y-118072161D02*
X197271742Y-118119780D01*
X197462219Y-118119780D01*
X197557457Y-118072161D01*
X197605076Y-117976923D01*
X197605076Y-117595971D01*
X197557457Y-117500733D01*
X197462219Y-117453114D01*
X197271742Y-117453114D01*
X197176504Y-117500733D01*
X197128885Y-117595971D01*
X197128885Y-117691209D01*
X197605076Y-117786447D01*
X196843171Y-117453114D02*
X196462219Y-117453114D01*
X196700314Y-117119780D02*
X196700314Y-117976923D01*
X196652695Y-118072161D01*
X196557457Y-118119780D01*
X196462219Y-118119780D01*
X171170704Y-113089180D02*
X170599276Y-113089180D01*
X170884990Y-114089180D02*
X170884990Y-113089180D01*
X170265942Y-114089180D02*
X170265942Y-113089180D01*
X169884990Y-113089180D01*
X169789752Y-113136800D01*
X169742133Y-113184419D01*
X169694514Y-113279657D01*
X169694514Y-113422514D01*
X169742133Y-113517752D01*
X169789752Y-113565371D01*
X169884990Y-113612990D01*
X170265942Y-113612990D01*
X168789752Y-113089180D02*
X169265942Y-113089180D01*
X169313561Y-113565371D01*
X169265942Y-113517752D01*
X169170704Y-113470133D01*
X168932609Y-113470133D01*
X168837371Y-113517752D01*
X168789752Y-113565371D01*
X168742133Y-113660609D01*
X168742133Y-113898704D01*
X168789752Y-113993942D01*
X168837371Y-114041561D01*
X168932609Y-114089180D01*
X169170704Y-114089180D01*
X169265942Y-114041561D01*
X169313561Y-113993942D01*
X170652695Y-118119780D02*
X170986028Y-117643590D01*
X171224123Y-118119780D02*
X171224123Y-117119780D01*
X170843171Y-117119780D01*
X170747933Y-117167400D01*
X170700314Y-117215019D01*
X170652695Y-117310257D01*
X170652695Y-117453114D01*
X170700314Y-117548352D01*
X170747933Y-117595971D01*
X170843171Y-117643590D01*
X171224123Y-117643590D01*
X169843171Y-118072161D02*
X169938409Y-118119780D01*
X170128885Y-118119780D01*
X170224123Y-118072161D01*
X170271742Y-117976923D01*
X170271742Y-117595971D01*
X170224123Y-117500733D01*
X170128885Y-117453114D01*
X169938409Y-117453114D01*
X169843171Y-117500733D01*
X169795552Y-117595971D01*
X169795552Y-117691209D01*
X170271742Y-117786447D01*
X169414600Y-118072161D02*
X169319361Y-118119780D01*
X169128885Y-118119780D01*
X169033647Y-118072161D01*
X168986028Y-117976923D01*
X168986028Y-117929304D01*
X169033647Y-117834066D01*
X169128885Y-117786447D01*
X169271742Y-117786447D01*
X169366980Y-117738828D01*
X169414600Y-117643590D01*
X169414600Y-117595971D01*
X169366980Y-117500733D01*
X169271742Y-117453114D01*
X169128885Y-117453114D01*
X169033647Y-117500733D01*
X168176504Y-118072161D02*
X168271742Y-118119780D01*
X168462219Y-118119780D01*
X168557457Y-118072161D01*
X168605076Y-117976923D01*
X168605076Y-117595971D01*
X168557457Y-117500733D01*
X168462219Y-117453114D01*
X168271742Y-117453114D01*
X168176504Y-117500733D01*
X168128885Y-117595971D01*
X168128885Y-117691209D01*
X168605076Y-117786447D01*
X167843171Y-117453114D02*
X167462219Y-117453114D01*
X167700314Y-117119780D02*
X167700314Y-117976923D01*
X167652695Y-118072161D01*
X167557457Y-118119780D01*
X167462219Y-118119780D01*
X142170704Y-113089180D02*
X141599276Y-113089180D01*
X141884990Y-114089180D02*
X141884990Y-113089180D01*
X141265942Y-114089180D02*
X141265942Y-113089180D01*
X140884990Y-113089180D01*
X140789752Y-113136800D01*
X140742133Y-113184419D01*
X140694514Y-113279657D01*
X140694514Y-113422514D01*
X140742133Y-113517752D01*
X140789752Y-113565371D01*
X140884990Y-113612990D01*
X141265942Y-113612990D01*
X139789752Y-113089180D02*
X140265942Y-113089180D01*
X140313561Y-113565371D01*
X140265942Y-113517752D01*
X140170704Y-113470133D01*
X139932609Y-113470133D01*
X139837371Y-113517752D01*
X139789752Y-113565371D01*
X139742133Y-113660609D01*
X139742133Y-113898704D01*
X139789752Y-113993942D01*
X139837371Y-114041561D01*
X139932609Y-114089180D01*
X140170704Y-114089180D01*
X140265942Y-114041561D01*
X140313561Y-113993942D01*
X141652695Y-118119780D02*
X141986028Y-117643590D01*
X142224123Y-118119780D02*
X142224123Y-117119780D01*
X141843171Y-117119780D01*
X141747933Y-117167400D01*
X141700314Y-117215019D01*
X141652695Y-117310257D01*
X141652695Y-117453114D01*
X141700314Y-117548352D01*
X141747933Y-117595971D01*
X141843171Y-117643590D01*
X142224123Y-117643590D01*
X140843171Y-118072161D02*
X140938409Y-118119780D01*
X141128885Y-118119780D01*
X141224123Y-118072161D01*
X141271742Y-117976923D01*
X141271742Y-117595971D01*
X141224123Y-117500733D01*
X141128885Y-117453114D01*
X140938409Y-117453114D01*
X140843171Y-117500733D01*
X140795552Y-117595971D01*
X140795552Y-117691209D01*
X141271742Y-117786447D01*
X140414600Y-118072161D02*
X140319361Y-118119780D01*
X140128885Y-118119780D01*
X140033647Y-118072161D01*
X139986028Y-117976923D01*
X139986028Y-117929304D01*
X140033647Y-117834066D01*
X140128885Y-117786447D01*
X140271742Y-117786447D01*
X140366980Y-117738828D01*
X140414600Y-117643590D01*
X140414600Y-117595971D01*
X140366980Y-117500733D01*
X140271742Y-117453114D01*
X140128885Y-117453114D01*
X140033647Y-117500733D01*
X139176504Y-118072161D02*
X139271742Y-118119780D01*
X139462219Y-118119780D01*
X139557457Y-118072161D01*
X139605076Y-117976923D01*
X139605076Y-117595971D01*
X139557457Y-117500733D01*
X139462219Y-117453114D01*
X139271742Y-117453114D01*
X139176504Y-117500733D01*
X139128885Y-117595971D01*
X139128885Y-117691209D01*
X139605076Y-117786447D01*
X138843171Y-117453114D02*
X138462219Y-117453114D01*
X138700314Y-117119780D02*
X138700314Y-117976923D01*
X138652695Y-118072161D01*
X138557457Y-118119780D01*
X138462219Y-118119780D01*
X200170704Y-78889180D02*
X199599276Y-78889180D01*
X199884990Y-79889180D02*
X199884990Y-78889180D01*
X199265942Y-79889180D02*
X199265942Y-78889180D01*
X198884990Y-78889180D01*
X198789752Y-78936800D01*
X198742133Y-78984419D01*
X198694514Y-79079657D01*
X198694514Y-79222514D01*
X198742133Y-79317752D01*
X198789752Y-79365371D01*
X198884990Y-79412990D01*
X199265942Y-79412990D01*
X197789752Y-78889180D02*
X198265942Y-78889180D01*
X198313561Y-79365371D01*
X198265942Y-79317752D01*
X198170704Y-79270133D01*
X197932609Y-79270133D01*
X197837371Y-79317752D01*
X197789752Y-79365371D01*
X197742133Y-79460609D01*
X197742133Y-79698704D01*
X197789752Y-79793942D01*
X197837371Y-79841561D01*
X197932609Y-79889180D01*
X198170704Y-79889180D01*
X198265942Y-79841561D01*
X198313561Y-79793942D01*
X199652695Y-83919780D02*
X199986028Y-83443590D01*
X200224123Y-83919780D02*
X200224123Y-82919780D01*
X199843171Y-82919780D01*
X199747933Y-82967400D01*
X199700314Y-83015019D01*
X199652695Y-83110257D01*
X199652695Y-83253114D01*
X199700314Y-83348352D01*
X199747933Y-83395971D01*
X199843171Y-83443590D01*
X200224123Y-83443590D01*
X198843171Y-83872161D02*
X198938409Y-83919780D01*
X199128885Y-83919780D01*
X199224123Y-83872161D01*
X199271742Y-83776923D01*
X199271742Y-83395971D01*
X199224123Y-83300733D01*
X199128885Y-83253114D01*
X198938409Y-83253114D01*
X198843171Y-83300733D01*
X198795552Y-83395971D01*
X198795552Y-83491209D01*
X199271742Y-83586447D01*
X198414600Y-83872161D02*
X198319361Y-83919780D01*
X198128885Y-83919780D01*
X198033647Y-83872161D01*
X197986028Y-83776923D01*
X197986028Y-83729304D01*
X198033647Y-83634066D01*
X198128885Y-83586447D01*
X198271742Y-83586447D01*
X198366980Y-83538828D01*
X198414600Y-83443590D01*
X198414600Y-83395971D01*
X198366980Y-83300733D01*
X198271742Y-83253114D01*
X198128885Y-83253114D01*
X198033647Y-83300733D01*
X197176504Y-83872161D02*
X197271742Y-83919780D01*
X197462219Y-83919780D01*
X197557457Y-83872161D01*
X197605076Y-83776923D01*
X197605076Y-83395971D01*
X197557457Y-83300733D01*
X197462219Y-83253114D01*
X197271742Y-83253114D01*
X197176504Y-83300733D01*
X197128885Y-83395971D01*
X197128885Y-83491209D01*
X197605076Y-83586447D01*
X196843171Y-83253114D02*
X196462219Y-83253114D01*
X196700314Y-82919780D02*
X196700314Y-83776923D01*
X196652695Y-83872161D01*
X196557457Y-83919780D01*
X196462219Y-83919780D01*
X171170704Y-78889180D02*
X170599276Y-78889180D01*
X170884990Y-79889180D02*
X170884990Y-78889180D01*
X170265942Y-79889180D02*
X170265942Y-78889180D01*
X169884990Y-78889180D01*
X169789752Y-78936800D01*
X169742133Y-78984419D01*
X169694514Y-79079657D01*
X169694514Y-79222514D01*
X169742133Y-79317752D01*
X169789752Y-79365371D01*
X169884990Y-79412990D01*
X170265942Y-79412990D01*
X168789752Y-78889180D02*
X169265942Y-78889180D01*
X169313561Y-79365371D01*
X169265942Y-79317752D01*
X169170704Y-79270133D01*
X168932609Y-79270133D01*
X168837371Y-79317752D01*
X168789752Y-79365371D01*
X168742133Y-79460609D01*
X168742133Y-79698704D01*
X168789752Y-79793942D01*
X168837371Y-79841561D01*
X168932609Y-79889180D01*
X169170704Y-79889180D01*
X169265942Y-79841561D01*
X169313561Y-79793942D01*
X170652695Y-83919780D02*
X170986028Y-83443590D01*
X171224123Y-83919780D02*
X171224123Y-82919780D01*
X170843171Y-82919780D01*
X170747933Y-82967400D01*
X170700314Y-83015019D01*
X170652695Y-83110257D01*
X170652695Y-83253114D01*
X170700314Y-83348352D01*
X170747933Y-83395971D01*
X170843171Y-83443590D01*
X171224123Y-83443590D01*
X169843171Y-83872161D02*
X169938409Y-83919780D01*
X170128885Y-83919780D01*
X170224123Y-83872161D01*
X170271742Y-83776923D01*
X170271742Y-83395971D01*
X170224123Y-83300733D01*
X170128885Y-83253114D01*
X169938409Y-83253114D01*
X169843171Y-83300733D01*
X169795552Y-83395971D01*
X169795552Y-83491209D01*
X170271742Y-83586447D01*
X169414600Y-83872161D02*
X169319361Y-83919780D01*
X169128885Y-83919780D01*
X169033647Y-83872161D01*
X168986028Y-83776923D01*
X168986028Y-83729304D01*
X169033647Y-83634066D01*
X169128885Y-83586447D01*
X169271742Y-83586447D01*
X169366980Y-83538828D01*
X169414600Y-83443590D01*
X169414600Y-83395971D01*
X169366980Y-83300733D01*
X169271742Y-83253114D01*
X169128885Y-83253114D01*
X169033647Y-83300733D01*
X168176504Y-83872161D02*
X168271742Y-83919780D01*
X168462219Y-83919780D01*
X168557457Y-83872161D01*
X168605076Y-83776923D01*
X168605076Y-83395971D01*
X168557457Y-83300733D01*
X168462219Y-83253114D01*
X168271742Y-83253114D01*
X168176504Y-83300733D01*
X168128885Y-83395971D01*
X168128885Y-83491209D01*
X168605076Y-83586447D01*
X167843171Y-83253114D02*
X167462219Y-83253114D01*
X167700314Y-82919780D02*
X167700314Y-83776923D01*
X167652695Y-83872161D01*
X167557457Y-83919780D01*
X167462219Y-83919780D01*
G04 #@! TO.C,TP4*
X192020704Y-163029180D02*
X191449276Y-163029180D01*
X191734990Y-164029180D02*
X191734990Y-163029180D01*
X191115942Y-164029180D02*
X191115942Y-163029180D01*
X190734990Y-163029180D01*
X190639752Y-163076800D01*
X190592133Y-163124419D01*
X190544514Y-163219657D01*
X190544514Y-163362514D01*
X190592133Y-163457752D01*
X190639752Y-163505371D01*
X190734990Y-163552990D01*
X191115942Y-163552990D01*
X189687371Y-163362514D02*
X189687371Y-164029180D01*
X189925466Y-162981561D02*
X190163561Y-163695847D01*
X189544514Y-163695847D01*
X193026504Y-168012161D02*
X192883647Y-168059780D01*
X192645552Y-168059780D01*
X192550314Y-168012161D01*
X192502695Y-167964542D01*
X192455076Y-167869304D01*
X192455076Y-167774066D01*
X192502695Y-167678828D01*
X192550314Y-167631209D01*
X192645552Y-167583590D01*
X192836028Y-167535971D01*
X192931266Y-167488352D01*
X192978885Y-167440733D01*
X193026504Y-167345495D01*
X193026504Y-167250257D01*
X192978885Y-167155019D01*
X192931266Y-167107400D01*
X192836028Y-167059780D01*
X192597933Y-167059780D01*
X192455076Y-167107400D01*
X192121742Y-167059780D02*
X191883647Y-168059780D01*
X191693171Y-167345495D01*
X191502695Y-168059780D01*
X191264600Y-167059780D01*
X190883647Y-168059780D02*
X190883647Y-167059780D01*
X190645552Y-167059780D01*
X190502695Y-167107400D01*
X190407457Y-167202638D01*
X190359838Y-167297876D01*
X190312219Y-167488352D01*
X190312219Y-167631209D01*
X190359838Y-167821685D01*
X190407457Y-167916923D01*
X190502695Y-168012161D01*
X190645552Y-168059780D01*
X190883647Y-168059780D01*
X189312219Y-167964542D02*
X189359838Y-168012161D01*
X189502695Y-168059780D01*
X189597933Y-168059780D01*
X189740790Y-168012161D01*
X189836028Y-167916923D01*
X189883647Y-167821685D01*
X189931266Y-167631209D01*
X189931266Y-167488352D01*
X189883647Y-167297876D01*
X189836028Y-167202638D01*
X189740790Y-167107400D01*
X189597933Y-167059780D01*
X189502695Y-167059780D01*
X189359838Y-167107400D01*
X189312219Y-167155019D01*
X188407457Y-168059780D02*
X188883647Y-168059780D01*
X188883647Y-167059780D01*
X188074123Y-168059780D02*
X188074123Y-167059780D01*
X187502695Y-168059780D02*
X187931266Y-167488352D01*
X187502695Y-167059780D02*
X188074123Y-167631209D01*
X163020704Y-163029180D02*
X162449276Y-163029180D01*
X162734990Y-164029180D02*
X162734990Y-163029180D01*
X162115942Y-164029180D02*
X162115942Y-163029180D01*
X161734990Y-163029180D01*
X161639752Y-163076800D01*
X161592133Y-163124419D01*
X161544514Y-163219657D01*
X161544514Y-163362514D01*
X161592133Y-163457752D01*
X161639752Y-163505371D01*
X161734990Y-163552990D01*
X162115942Y-163552990D01*
X160687371Y-163362514D02*
X160687371Y-164029180D01*
X160925466Y-162981561D02*
X161163561Y-163695847D01*
X160544514Y-163695847D01*
X164026504Y-168012161D02*
X163883647Y-168059780D01*
X163645552Y-168059780D01*
X163550314Y-168012161D01*
X163502695Y-167964542D01*
X163455076Y-167869304D01*
X163455076Y-167774066D01*
X163502695Y-167678828D01*
X163550314Y-167631209D01*
X163645552Y-167583590D01*
X163836028Y-167535971D01*
X163931266Y-167488352D01*
X163978885Y-167440733D01*
X164026504Y-167345495D01*
X164026504Y-167250257D01*
X163978885Y-167155019D01*
X163931266Y-167107400D01*
X163836028Y-167059780D01*
X163597933Y-167059780D01*
X163455076Y-167107400D01*
X163121742Y-167059780D02*
X162883647Y-168059780D01*
X162693171Y-167345495D01*
X162502695Y-168059780D01*
X162264600Y-167059780D01*
X161883647Y-168059780D02*
X161883647Y-167059780D01*
X161645552Y-167059780D01*
X161502695Y-167107400D01*
X161407457Y-167202638D01*
X161359838Y-167297876D01*
X161312219Y-167488352D01*
X161312219Y-167631209D01*
X161359838Y-167821685D01*
X161407457Y-167916923D01*
X161502695Y-168012161D01*
X161645552Y-168059780D01*
X161883647Y-168059780D01*
X160312219Y-167964542D02*
X160359838Y-168012161D01*
X160502695Y-168059780D01*
X160597933Y-168059780D01*
X160740790Y-168012161D01*
X160836028Y-167916923D01*
X160883647Y-167821685D01*
X160931266Y-167631209D01*
X160931266Y-167488352D01*
X160883647Y-167297876D01*
X160836028Y-167202638D01*
X160740790Y-167107400D01*
X160597933Y-167059780D01*
X160502695Y-167059780D01*
X160359838Y-167107400D01*
X160312219Y-167155019D01*
X159407457Y-168059780D02*
X159883647Y-168059780D01*
X159883647Y-167059780D01*
X159074123Y-168059780D02*
X159074123Y-167059780D01*
X158502695Y-168059780D02*
X158931266Y-167488352D01*
X158502695Y-167059780D02*
X159074123Y-167631209D01*
X134020704Y-163029180D02*
X133449276Y-163029180D01*
X133734990Y-164029180D02*
X133734990Y-163029180D01*
X133115942Y-164029180D02*
X133115942Y-163029180D01*
X132734990Y-163029180D01*
X132639752Y-163076800D01*
X132592133Y-163124419D01*
X132544514Y-163219657D01*
X132544514Y-163362514D01*
X132592133Y-163457752D01*
X132639752Y-163505371D01*
X132734990Y-163552990D01*
X133115942Y-163552990D01*
X131687371Y-163362514D02*
X131687371Y-164029180D01*
X131925466Y-162981561D02*
X132163561Y-163695847D01*
X131544514Y-163695847D01*
X135026504Y-168012161D02*
X134883647Y-168059780D01*
X134645552Y-168059780D01*
X134550314Y-168012161D01*
X134502695Y-167964542D01*
X134455076Y-167869304D01*
X134455076Y-167774066D01*
X134502695Y-167678828D01*
X134550314Y-167631209D01*
X134645552Y-167583590D01*
X134836028Y-167535971D01*
X134931266Y-167488352D01*
X134978885Y-167440733D01*
X135026504Y-167345495D01*
X135026504Y-167250257D01*
X134978885Y-167155019D01*
X134931266Y-167107400D01*
X134836028Y-167059780D01*
X134597933Y-167059780D01*
X134455076Y-167107400D01*
X134121742Y-167059780D02*
X133883647Y-168059780D01*
X133693171Y-167345495D01*
X133502695Y-168059780D01*
X133264600Y-167059780D01*
X132883647Y-168059780D02*
X132883647Y-167059780D01*
X132645552Y-167059780D01*
X132502695Y-167107400D01*
X132407457Y-167202638D01*
X132359838Y-167297876D01*
X132312219Y-167488352D01*
X132312219Y-167631209D01*
X132359838Y-167821685D01*
X132407457Y-167916923D01*
X132502695Y-168012161D01*
X132645552Y-168059780D01*
X132883647Y-168059780D01*
X131312219Y-167964542D02*
X131359838Y-168012161D01*
X131502695Y-168059780D01*
X131597933Y-168059780D01*
X131740790Y-168012161D01*
X131836028Y-167916923D01*
X131883647Y-167821685D01*
X131931266Y-167631209D01*
X131931266Y-167488352D01*
X131883647Y-167297876D01*
X131836028Y-167202638D01*
X131740790Y-167107400D01*
X131597933Y-167059780D01*
X131502695Y-167059780D01*
X131359838Y-167107400D01*
X131312219Y-167155019D01*
X130407457Y-168059780D02*
X130883647Y-168059780D01*
X130883647Y-167059780D01*
X130074123Y-168059780D02*
X130074123Y-167059780D01*
X129502695Y-168059780D02*
X129931266Y-167488352D01*
X129502695Y-167059780D02*
X130074123Y-167631209D01*
X192020704Y-128829180D02*
X191449276Y-128829180D01*
X191734990Y-129829180D02*
X191734990Y-128829180D01*
X191115942Y-129829180D02*
X191115942Y-128829180D01*
X190734990Y-128829180D01*
X190639752Y-128876800D01*
X190592133Y-128924419D01*
X190544514Y-129019657D01*
X190544514Y-129162514D01*
X190592133Y-129257752D01*
X190639752Y-129305371D01*
X190734990Y-129352990D01*
X191115942Y-129352990D01*
X189687371Y-129162514D02*
X189687371Y-129829180D01*
X189925466Y-128781561D02*
X190163561Y-129495847D01*
X189544514Y-129495847D01*
X193026504Y-133812161D02*
X192883647Y-133859780D01*
X192645552Y-133859780D01*
X192550314Y-133812161D01*
X192502695Y-133764542D01*
X192455076Y-133669304D01*
X192455076Y-133574066D01*
X192502695Y-133478828D01*
X192550314Y-133431209D01*
X192645552Y-133383590D01*
X192836028Y-133335971D01*
X192931266Y-133288352D01*
X192978885Y-133240733D01*
X193026504Y-133145495D01*
X193026504Y-133050257D01*
X192978885Y-132955019D01*
X192931266Y-132907400D01*
X192836028Y-132859780D01*
X192597933Y-132859780D01*
X192455076Y-132907400D01*
X192121742Y-132859780D02*
X191883647Y-133859780D01*
X191693171Y-133145495D01*
X191502695Y-133859780D01*
X191264600Y-132859780D01*
X190883647Y-133859780D02*
X190883647Y-132859780D01*
X190645552Y-132859780D01*
X190502695Y-132907400D01*
X190407457Y-133002638D01*
X190359838Y-133097876D01*
X190312219Y-133288352D01*
X190312219Y-133431209D01*
X190359838Y-133621685D01*
X190407457Y-133716923D01*
X190502695Y-133812161D01*
X190645552Y-133859780D01*
X190883647Y-133859780D01*
X189312219Y-133764542D02*
X189359838Y-133812161D01*
X189502695Y-133859780D01*
X189597933Y-133859780D01*
X189740790Y-133812161D01*
X189836028Y-133716923D01*
X189883647Y-133621685D01*
X189931266Y-133431209D01*
X189931266Y-133288352D01*
X189883647Y-133097876D01*
X189836028Y-133002638D01*
X189740790Y-132907400D01*
X189597933Y-132859780D01*
X189502695Y-132859780D01*
X189359838Y-132907400D01*
X189312219Y-132955019D01*
X188407457Y-133859780D02*
X188883647Y-133859780D01*
X188883647Y-132859780D01*
X188074123Y-133859780D02*
X188074123Y-132859780D01*
X187502695Y-133859780D02*
X187931266Y-133288352D01*
X187502695Y-132859780D02*
X188074123Y-133431209D01*
X163020704Y-128829180D02*
X162449276Y-128829180D01*
X162734990Y-129829180D02*
X162734990Y-128829180D01*
X162115942Y-129829180D02*
X162115942Y-128829180D01*
X161734990Y-128829180D01*
X161639752Y-128876800D01*
X161592133Y-128924419D01*
X161544514Y-129019657D01*
X161544514Y-129162514D01*
X161592133Y-129257752D01*
X161639752Y-129305371D01*
X161734990Y-129352990D01*
X162115942Y-129352990D01*
X160687371Y-129162514D02*
X160687371Y-129829180D01*
X160925466Y-128781561D02*
X161163561Y-129495847D01*
X160544514Y-129495847D01*
X164026504Y-133812161D02*
X163883647Y-133859780D01*
X163645552Y-133859780D01*
X163550314Y-133812161D01*
X163502695Y-133764542D01*
X163455076Y-133669304D01*
X163455076Y-133574066D01*
X163502695Y-133478828D01*
X163550314Y-133431209D01*
X163645552Y-133383590D01*
X163836028Y-133335971D01*
X163931266Y-133288352D01*
X163978885Y-133240733D01*
X164026504Y-133145495D01*
X164026504Y-133050257D01*
X163978885Y-132955019D01*
X163931266Y-132907400D01*
X163836028Y-132859780D01*
X163597933Y-132859780D01*
X163455076Y-132907400D01*
X163121742Y-132859780D02*
X162883647Y-133859780D01*
X162693171Y-133145495D01*
X162502695Y-133859780D01*
X162264600Y-132859780D01*
X161883647Y-133859780D02*
X161883647Y-132859780D01*
X161645552Y-132859780D01*
X161502695Y-132907400D01*
X161407457Y-133002638D01*
X161359838Y-133097876D01*
X161312219Y-133288352D01*
X161312219Y-133431209D01*
X161359838Y-133621685D01*
X161407457Y-133716923D01*
X161502695Y-133812161D01*
X161645552Y-133859780D01*
X161883647Y-133859780D01*
X160312219Y-133764542D02*
X160359838Y-133812161D01*
X160502695Y-133859780D01*
X160597933Y-133859780D01*
X160740790Y-133812161D01*
X160836028Y-133716923D01*
X160883647Y-133621685D01*
X160931266Y-133431209D01*
X160931266Y-133288352D01*
X160883647Y-133097876D01*
X160836028Y-133002638D01*
X160740790Y-132907400D01*
X160597933Y-132859780D01*
X160502695Y-132859780D01*
X160359838Y-132907400D01*
X160312219Y-132955019D01*
X159407457Y-133859780D02*
X159883647Y-133859780D01*
X159883647Y-132859780D01*
X159074123Y-133859780D02*
X159074123Y-132859780D01*
X158502695Y-133859780D02*
X158931266Y-133288352D01*
X158502695Y-132859780D02*
X159074123Y-133431209D01*
X134020704Y-128829180D02*
X133449276Y-128829180D01*
X133734990Y-129829180D02*
X133734990Y-128829180D01*
X133115942Y-129829180D02*
X133115942Y-128829180D01*
X132734990Y-128829180D01*
X132639752Y-128876800D01*
X132592133Y-128924419D01*
X132544514Y-129019657D01*
X132544514Y-129162514D01*
X132592133Y-129257752D01*
X132639752Y-129305371D01*
X132734990Y-129352990D01*
X133115942Y-129352990D01*
X131687371Y-129162514D02*
X131687371Y-129829180D01*
X131925466Y-128781561D02*
X132163561Y-129495847D01*
X131544514Y-129495847D01*
X135026504Y-133812161D02*
X134883647Y-133859780D01*
X134645552Y-133859780D01*
X134550314Y-133812161D01*
X134502695Y-133764542D01*
X134455076Y-133669304D01*
X134455076Y-133574066D01*
X134502695Y-133478828D01*
X134550314Y-133431209D01*
X134645552Y-133383590D01*
X134836028Y-133335971D01*
X134931266Y-133288352D01*
X134978885Y-133240733D01*
X135026504Y-133145495D01*
X135026504Y-133050257D01*
X134978885Y-132955019D01*
X134931266Y-132907400D01*
X134836028Y-132859780D01*
X134597933Y-132859780D01*
X134455076Y-132907400D01*
X134121742Y-132859780D02*
X133883647Y-133859780D01*
X133693171Y-133145495D01*
X133502695Y-133859780D01*
X133264600Y-132859780D01*
X132883647Y-133859780D02*
X132883647Y-132859780D01*
X132645552Y-132859780D01*
X132502695Y-132907400D01*
X132407457Y-133002638D01*
X132359838Y-133097876D01*
X132312219Y-133288352D01*
X132312219Y-133431209D01*
X132359838Y-133621685D01*
X132407457Y-133716923D01*
X132502695Y-133812161D01*
X132645552Y-133859780D01*
X132883647Y-133859780D01*
X131312219Y-133764542D02*
X131359838Y-133812161D01*
X131502695Y-133859780D01*
X131597933Y-133859780D01*
X131740790Y-133812161D01*
X131836028Y-133716923D01*
X131883647Y-133621685D01*
X131931266Y-133431209D01*
X131931266Y-133288352D01*
X131883647Y-133097876D01*
X131836028Y-133002638D01*
X131740790Y-132907400D01*
X131597933Y-132859780D01*
X131502695Y-132859780D01*
X131359838Y-132907400D01*
X131312219Y-132955019D01*
X130407457Y-133859780D02*
X130883647Y-133859780D01*
X130883647Y-132859780D01*
X130074123Y-133859780D02*
X130074123Y-132859780D01*
X129502695Y-133859780D02*
X129931266Y-133288352D01*
X129502695Y-132859780D02*
X130074123Y-133431209D01*
X192020704Y-94629180D02*
X191449276Y-94629180D01*
X191734990Y-95629180D02*
X191734990Y-94629180D01*
X191115942Y-95629180D02*
X191115942Y-94629180D01*
X190734990Y-94629180D01*
X190639752Y-94676800D01*
X190592133Y-94724419D01*
X190544514Y-94819657D01*
X190544514Y-94962514D01*
X190592133Y-95057752D01*
X190639752Y-95105371D01*
X190734990Y-95152990D01*
X191115942Y-95152990D01*
X189687371Y-94962514D02*
X189687371Y-95629180D01*
X189925466Y-94581561D02*
X190163561Y-95295847D01*
X189544514Y-95295847D01*
X193026504Y-99612161D02*
X192883647Y-99659780D01*
X192645552Y-99659780D01*
X192550314Y-99612161D01*
X192502695Y-99564542D01*
X192455076Y-99469304D01*
X192455076Y-99374066D01*
X192502695Y-99278828D01*
X192550314Y-99231209D01*
X192645552Y-99183590D01*
X192836028Y-99135971D01*
X192931266Y-99088352D01*
X192978885Y-99040733D01*
X193026504Y-98945495D01*
X193026504Y-98850257D01*
X192978885Y-98755019D01*
X192931266Y-98707400D01*
X192836028Y-98659780D01*
X192597933Y-98659780D01*
X192455076Y-98707400D01*
X192121742Y-98659780D02*
X191883647Y-99659780D01*
X191693171Y-98945495D01*
X191502695Y-99659780D01*
X191264600Y-98659780D01*
X190883647Y-99659780D02*
X190883647Y-98659780D01*
X190645552Y-98659780D01*
X190502695Y-98707400D01*
X190407457Y-98802638D01*
X190359838Y-98897876D01*
X190312219Y-99088352D01*
X190312219Y-99231209D01*
X190359838Y-99421685D01*
X190407457Y-99516923D01*
X190502695Y-99612161D01*
X190645552Y-99659780D01*
X190883647Y-99659780D01*
X189312219Y-99564542D02*
X189359838Y-99612161D01*
X189502695Y-99659780D01*
X189597933Y-99659780D01*
X189740790Y-99612161D01*
X189836028Y-99516923D01*
X189883647Y-99421685D01*
X189931266Y-99231209D01*
X189931266Y-99088352D01*
X189883647Y-98897876D01*
X189836028Y-98802638D01*
X189740790Y-98707400D01*
X189597933Y-98659780D01*
X189502695Y-98659780D01*
X189359838Y-98707400D01*
X189312219Y-98755019D01*
X188407457Y-99659780D02*
X188883647Y-99659780D01*
X188883647Y-98659780D01*
X188074123Y-99659780D02*
X188074123Y-98659780D01*
X187502695Y-99659780D02*
X187931266Y-99088352D01*
X187502695Y-98659780D02*
X188074123Y-99231209D01*
X163020704Y-94629180D02*
X162449276Y-94629180D01*
X162734990Y-95629180D02*
X162734990Y-94629180D01*
X162115942Y-95629180D02*
X162115942Y-94629180D01*
X161734990Y-94629180D01*
X161639752Y-94676800D01*
X161592133Y-94724419D01*
X161544514Y-94819657D01*
X161544514Y-94962514D01*
X161592133Y-95057752D01*
X161639752Y-95105371D01*
X161734990Y-95152990D01*
X162115942Y-95152990D01*
X160687371Y-94962514D02*
X160687371Y-95629180D01*
X160925466Y-94581561D02*
X161163561Y-95295847D01*
X160544514Y-95295847D01*
X164026504Y-99612161D02*
X163883647Y-99659780D01*
X163645552Y-99659780D01*
X163550314Y-99612161D01*
X163502695Y-99564542D01*
X163455076Y-99469304D01*
X163455076Y-99374066D01*
X163502695Y-99278828D01*
X163550314Y-99231209D01*
X163645552Y-99183590D01*
X163836028Y-99135971D01*
X163931266Y-99088352D01*
X163978885Y-99040733D01*
X164026504Y-98945495D01*
X164026504Y-98850257D01*
X163978885Y-98755019D01*
X163931266Y-98707400D01*
X163836028Y-98659780D01*
X163597933Y-98659780D01*
X163455076Y-98707400D01*
X163121742Y-98659780D02*
X162883647Y-99659780D01*
X162693171Y-98945495D01*
X162502695Y-99659780D01*
X162264600Y-98659780D01*
X161883647Y-99659780D02*
X161883647Y-98659780D01*
X161645552Y-98659780D01*
X161502695Y-98707400D01*
X161407457Y-98802638D01*
X161359838Y-98897876D01*
X161312219Y-99088352D01*
X161312219Y-99231209D01*
X161359838Y-99421685D01*
X161407457Y-99516923D01*
X161502695Y-99612161D01*
X161645552Y-99659780D01*
X161883647Y-99659780D01*
X160312219Y-99564542D02*
X160359838Y-99612161D01*
X160502695Y-99659780D01*
X160597933Y-99659780D01*
X160740790Y-99612161D01*
X160836028Y-99516923D01*
X160883647Y-99421685D01*
X160931266Y-99231209D01*
X160931266Y-99088352D01*
X160883647Y-98897876D01*
X160836028Y-98802638D01*
X160740790Y-98707400D01*
X160597933Y-98659780D01*
X160502695Y-98659780D01*
X160359838Y-98707400D01*
X160312219Y-98755019D01*
X159407457Y-99659780D02*
X159883647Y-99659780D01*
X159883647Y-98659780D01*
X159074123Y-99659780D02*
X159074123Y-98659780D01*
X158502695Y-99659780D02*
X158931266Y-99088352D01*
X158502695Y-98659780D02*
X159074123Y-99231209D01*
G04 #@! TO.C,TP3*
X195800704Y-161139180D02*
X195229276Y-161139180D01*
X195514990Y-162139180D02*
X195514990Y-161139180D01*
X194895942Y-162139180D02*
X194895942Y-161139180D01*
X194514990Y-161139180D01*
X194419752Y-161186800D01*
X194372133Y-161234419D01*
X194324514Y-161329657D01*
X194324514Y-161472514D01*
X194372133Y-161567752D01*
X194419752Y-161615371D01*
X194514990Y-161662990D01*
X194895942Y-161662990D01*
X193991180Y-161139180D02*
X193372133Y-161139180D01*
X193705466Y-161520133D01*
X193562609Y-161520133D01*
X193467371Y-161567752D01*
X193419752Y-161615371D01*
X193372133Y-161710609D01*
X193372133Y-161948704D01*
X193419752Y-162043942D01*
X193467371Y-162091561D01*
X193562609Y-162139180D01*
X193848323Y-162139180D01*
X193943561Y-162091561D01*
X193991180Y-162043942D01*
X196163647Y-166122161D02*
X196020790Y-166169780D01*
X195782695Y-166169780D01*
X195687457Y-166122161D01*
X195639838Y-166074542D01*
X195592219Y-165979304D01*
X195592219Y-165884066D01*
X195639838Y-165788828D01*
X195687457Y-165741209D01*
X195782695Y-165693590D01*
X195973171Y-165645971D01*
X196068409Y-165598352D01*
X196116028Y-165550733D01*
X196163647Y-165455495D01*
X196163647Y-165360257D01*
X196116028Y-165265019D01*
X196068409Y-165217400D01*
X195973171Y-165169780D01*
X195735076Y-165169780D01*
X195592219Y-165217400D01*
X195258885Y-165169780D02*
X195020790Y-166169780D01*
X194830314Y-165455495D01*
X194639838Y-166169780D01*
X194401742Y-165169780D01*
X194020790Y-166169780D02*
X194020790Y-165169780D01*
X193782695Y-165169780D01*
X193639838Y-165217400D01*
X193544600Y-165312638D01*
X193496980Y-165407876D01*
X193449361Y-165598352D01*
X193449361Y-165741209D01*
X193496980Y-165931685D01*
X193544600Y-166026923D01*
X193639838Y-166122161D01*
X193782695Y-166169780D01*
X194020790Y-166169780D01*
X193020790Y-166169780D02*
X193020790Y-165169780D01*
X192354123Y-165169780D02*
X192163647Y-165169780D01*
X192068409Y-165217400D01*
X191973171Y-165312638D01*
X191925552Y-165503114D01*
X191925552Y-165836447D01*
X191973171Y-166026923D01*
X192068409Y-166122161D01*
X192163647Y-166169780D01*
X192354123Y-166169780D01*
X192449361Y-166122161D01*
X192544600Y-166026923D01*
X192592219Y-165836447D01*
X192592219Y-165503114D01*
X192544600Y-165312638D01*
X192449361Y-165217400D01*
X192354123Y-165169780D01*
X166800704Y-161139180D02*
X166229276Y-161139180D01*
X166514990Y-162139180D02*
X166514990Y-161139180D01*
X165895942Y-162139180D02*
X165895942Y-161139180D01*
X165514990Y-161139180D01*
X165419752Y-161186800D01*
X165372133Y-161234419D01*
X165324514Y-161329657D01*
X165324514Y-161472514D01*
X165372133Y-161567752D01*
X165419752Y-161615371D01*
X165514990Y-161662990D01*
X165895942Y-161662990D01*
X164991180Y-161139180D02*
X164372133Y-161139180D01*
X164705466Y-161520133D01*
X164562609Y-161520133D01*
X164467371Y-161567752D01*
X164419752Y-161615371D01*
X164372133Y-161710609D01*
X164372133Y-161948704D01*
X164419752Y-162043942D01*
X164467371Y-162091561D01*
X164562609Y-162139180D01*
X164848323Y-162139180D01*
X164943561Y-162091561D01*
X164991180Y-162043942D01*
X167163647Y-166122161D02*
X167020790Y-166169780D01*
X166782695Y-166169780D01*
X166687457Y-166122161D01*
X166639838Y-166074542D01*
X166592219Y-165979304D01*
X166592219Y-165884066D01*
X166639838Y-165788828D01*
X166687457Y-165741209D01*
X166782695Y-165693590D01*
X166973171Y-165645971D01*
X167068409Y-165598352D01*
X167116028Y-165550733D01*
X167163647Y-165455495D01*
X167163647Y-165360257D01*
X167116028Y-165265019D01*
X167068409Y-165217400D01*
X166973171Y-165169780D01*
X166735076Y-165169780D01*
X166592219Y-165217400D01*
X166258885Y-165169780D02*
X166020790Y-166169780D01*
X165830314Y-165455495D01*
X165639838Y-166169780D01*
X165401742Y-165169780D01*
X165020790Y-166169780D02*
X165020790Y-165169780D01*
X164782695Y-165169780D01*
X164639838Y-165217400D01*
X164544600Y-165312638D01*
X164496980Y-165407876D01*
X164449361Y-165598352D01*
X164449361Y-165741209D01*
X164496980Y-165931685D01*
X164544600Y-166026923D01*
X164639838Y-166122161D01*
X164782695Y-166169780D01*
X165020790Y-166169780D01*
X164020790Y-166169780D02*
X164020790Y-165169780D01*
X163354123Y-165169780D02*
X163163647Y-165169780D01*
X163068409Y-165217400D01*
X162973171Y-165312638D01*
X162925552Y-165503114D01*
X162925552Y-165836447D01*
X162973171Y-166026923D01*
X163068409Y-166122161D01*
X163163647Y-166169780D01*
X163354123Y-166169780D01*
X163449361Y-166122161D01*
X163544600Y-166026923D01*
X163592219Y-165836447D01*
X163592219Y-165503114D01*
X163544600Y-165312638D01*
X163449361Y-165217400D01*
X163354123Y-165169780D01*
X137800704Y-161139180D02*
X137229276Y-161139180D01*
X137514990Y-162139180D02*
X137514990Y-161139180D01*
X136895942Y-162139180D02*
X136895942Y-161139180D01*
X136514990Y-161139180D01*
X136419752Y-161186800D01*
X136372133Y-161234419D01*
X136324514Y-161329657D01*
X136324514Y-161472514D01*
X136372133Y-161567752D01*
X136419752Y-161615371D01*
X136514990Y-161662990D01*
X136895942Y-161662990D01*
X135991180Y-161139180D02*
X135372133Y-161139180D01*
X135705466Y-161520133D01*
X135562609Y-161520133D01*
X135467371Y-161567752D01*
X135419752Y-161615371D01*
X135372133Y-161710609D01*
X135372133Y-161948704D01*
X135419752Y-162043942D01*
X135467371Y-162091561D01*
X135562609Y-162139180D01*
X135848323Y-162139180D01*
X135943561Y-162091561D01*
X135991180Y-162043942D01*
X138163647Y-166122161D02*
X138020790Y-166169780D01*
X137782695Y-166169780D01*
X137687457Y-166122161D01*
X137639838Y-166074542D01*
X137592219Y-165979304D01*
X137592219Y-165884066D01*
X137639838Y-165788828D01*
X137687457Y-165741209D01*
X137782695Y-165693590D01*
X137973171Y-165645971D01*
X138068409Y-165598352D01*
X138116028Y-165550733D01*
X138163647Y-165455495D01*
X138163647Y-165360257D01*
X138116028Y-165265019D01*
X138068409Y-165217400D01*
X137973171Y-165169780D01*
X137735076Y-165169780D01*
X137592219Y-165217400D01*
X137258885Y-165169780D02*
X137020790Y-166169780D01*
X136830314Y-165455495D01*
X136639838Y-166169780D01*
X136401742Y-165169780D01*
X136020790Y-166169780D02*
X136020790Y-165169780D01*
X135782695Y-165169780D01*
X135639838Y-165217400D01*
X135544600Y-165312638D01*
X135496980Y-165407876D01*
X135449361Y-165598352D01*
X135449361Y-165741209D01*
X135496980Y-165931685D01*
X135544600Y-166026923D01*
X135639838Y-166122161D01*
X135782695Y-166169780D01*
X136020790Y-166169780D01*
X135020790Y-166169780D02*
X135020790Y-165169780D01*
X134354123Y-165169780D02*
X134163647Y-165169780D01*
X134068409Y-165217400D01*
X133973171Y-165312638D01*
X133925552Y-165503114D01*
X133925552Y-165836447D01*
X133973171Y-166026923D01*
X134068409Y-166122161D01*
X134163647Y-166169780D01*
X134354123Y-166169780D01*
X134449361Y-166122161D01*
X134544600Y-166026923D01*
X134592219Y-165836447D01*
X134592219Y-165503114D01*
X134544600Y-165312638D01*
X134449361Y-165217400D01*
X134354123Y-165169780D01*
X195800704Y-126939180D02*
X195229276Y-126939180D01*
X195514990Y-127939180D02*
X195514990Y-126939180D01*
X194895942Y-127939180D02*
X194895942Y-126939180D01*
X194514990Y-126939180D01*
X194419752Y-126986800D01*
X194372133Y-127034419D01*
X194324514Y-127129657D01*
X194324514Y-127272514D01*
X194372133Y-127367752D01*
X194419752Y-127415371D01*
X194514990Y-127462990D01*
X194895942Y-127462990D01*
X193991180Y-126939180D02*
X193372133Y-126939180D01*
X193705466Y-127320133D01*
X193562609Y-127320133D01*
X193467371Y-127367752D01*
X193419752Y-127415371D01*
X193372133Y-127510609D01*
X193372133Y-127748704D01*
X193419752Y-127843942D01*
X193467371Y-127891561D01*
X193562609Y-127939180D01*
X193848323Y-127939180D01*
X193943561Y-127891561D01*
X193991180Y-127843942D01*
X196163647Y-131922161D02*
X196020790Y-131969780D01*
X195782695Y-131969780D01*
X195687457Y-131922161D01*
X195639838Y-131874542D01*
X195592219Y-131779304D01*
X195592219Y-131684066D01*
X195639838Y-131588828D01*
X195687457Y-131541209D01*
X195782695Y-131493590D01*
X195973171Y-131445971D01*
X196068409Y-131398352D01*
X196116028Y-131350733D01*
X196163647Y-131255495D01*
X196163647Y-131160257D01*
X196116028Y-131065019D01*
X196068409Y-131017400D01*
X195973171Y-130969780D01*
X195735076Y-130969780D01*
X195592219Y-131017400D01*
X195258885Y-130969780D02*
X195020790Y-131969780D01*
X194830314Y-131255495D01*
X194639838Y-131969780D01*
X194401742Y-130969780D01*
X194020790Y-131969780D02*
X194020790Y-130969780D01*
X193782695Y-130969780D01*
X193639838Y-131017400D01*
X193544600Y-131112638D01*
X193496980Y-131207876D01*
X193449361Y-131398352D01*
X193449361Y-131541209D01*
X193496980Y-131731685D01*
X193544600Y-131826923D01*
X193639838Y-131922161D01*
X193782695Y-131969780D01*
X194020790Y-131969780D01*
X193020790Y-131969780D02*
X193020790Y-130969780D01*
X192354123Y-130969780D02*
X192163647Y-130969780D01*
X192068409Y-131017400D01*
X191973171Y-131112638D01*
X191925552Y-131303114D01*
X191925552Y-131636447D01*
X191973171Y-131826923D01*
X192068409Y-131922161D01*
X192163647Y-131969780D01*
X192354123Y-131969780D01*
X192449361Y-131922161D01*
X192544600Y-131826923D01*
X192592219Y-131636447D01*
X192592219Y-131303114D01*
X192544600Y-131112638D01*
X192449361Y-131017400D01*
X192354123Y-130969780D01*
X166800704Y-126939180D02*
X166229276Y-126939180D01*
X166514990Y-127939180D02*
X166514990Y-126939180D01*
X165895942Y-127939180D02*
X165895942Y-126939180D01*
X165514990Y-126939180D01*
X165419752Y-126986800D01*
X165372133Y-127034419D01*
X165324514Y-127129657D01*
X165324514Y-127272514D01*
X165372133Y-127367752D01*
X165419752Y-127415371D01*
X165514990Y-127462990D01*
X165895942Y-127462990D01*
X164991180Y-126939180D02*
X164372133Y-126939180D01*
X164705466Y-127320133D01*
X164562609Y-127320133D01*
X164467371Y-127367752D01*
X164419752Y-127415371D01*
X164372133Y-127510609D01*
X164372133Y-127748704D01*
X164419752Y-127843942D01*
X164467371Y-127891561D01*
X164562609Y-127939180D01*
X164848323Y-127939180D01*
X164943561Y-127891561D01*
X164991180Y-127843942D01*
X167163647Y-131922161D02*
X167020790Y-131969780D01*
X166782695Y-131969780D01*
X166687457Y-131922161D01*
X166639838Y-131874542D01*
X166592219Y-131779304D01*
X166592219Y-131684066D01*
X166639838Y-131588828D01*
X166687457Y-131541209D01*
X166782695Y-131493590D01*
X166973171Y-131445971D01*
X167068409Y-131398352D01*
X167116028Y-131350733D01*
X167163647Y-131255495D01*
X167163647Y-131160257D01*
X167116028Y-131065019D01*
X167068409Y-131017400D01*
X166973171Y-130969780D01*
X166735076Y-130969780D01*
X166592219Y-131017400D01*
X166258885Y-130969780D02*
X166020790Y-131969780D01*
X165830314Y-131255495D01*
X165639838Y-131969780D01*
X165401742Y-130969780D01*
X165020790Y-131969780D02*
X165020790Y-130969780D01*
X164782695Y-130969780D01*
X164639838Y-131017400D01*
X164544600Y-131112638D01*
X164496980Y-131207876D01*
X164449361Y-131398352D01*
X164449361Y-131541209D01*
X164496980Y-131731685D01*
X164544600Y-131826923D01*
X164639838Y-131922161D01*
X164782695Y-131969780D01*
X165020790Y-131969780D01*
X164020790Y-131969780D02*
X164020790Y-130969780D01*
X163354123Y-130969780D02*
X163163647Y-130969780D01*
X163068409Y-131017400D01*
X162973171Y-131112638D01*
X162925552Y-131303114D01*
X162925552Y-131636447D01*
X162973171Y-131826923D01*
X163068409Y-131922161D01*
X163163647Y-131969780D01*
X163354123Y-131969780D01*
X163449361Y-131922161D01*
X163544600Y-131826923D01*
X163592219Y-131636447D01*
X163592219Y-131303114D01*
X163544600Y-131112638D01*
X163449361Y-131017400D01*
X163354123Y-130969780D01*
X137800704Y-126939180D02*
X137229276Y-126939180D01*
X137514990Y-127939180D02*
X137514990Y-126939180D01*
X136895942Y-127939180D02*
X136895942Y-126939180D01*
X136514990Y-126939180D01*
X136419752Y-126986800D01*
X136372133Y-127034419D01*
X136324514Y-127129657D01*
X136324514Y-127272514D01*
X136372133Y-127367752D01*
X136419752Y-127415371D01*
X136514990Y-127462990D01*
X136895942Y-127462990D01*
X135991180Y-126939180D02*
X135372133Y-126939180D01*
X135705466Y-127320133D01*
X135562609Y-127320133D01*
X135467371Y-127367752D01*
X135419752Y-127415371D01*
X135372133Y-127510609D01*
X135372133Y-127748704D01*
X135419752Y-127843942D01*
X135467371Y-127891561D01*
X135562609Y-127939180D01*
X135848323Y-127939180D01*
X135943561Y-127891561D01*
X135991180Y-127843942D01*
X138163647Y-131922161D02*
X138020790Y-131969780D01*
X137782695Y-131969780D01*
X137687457Y-131922161D01*
X137639838Y-131874542D01*
X137592219Y-131779304D01*
X137592219Y-131684066D01*
X137639838Y-131588828D01*
X137687457Y-131541209D01*
X137782695Y-131493590D01*
X137973171Y-131445971D01*
X138068409Y-131398352D01*
X138116028Y-131350733D01*
X138163647Y-131255495D01*
X138163647Y-131160257D01*
X138116028Y-131065019D01*
X138068409Y-131017400D01*
X137973171Y-130969780D01*
X137735076Y-130969780D01*
X137592219Y-131017400D01*
X137258885Y-130969780D02*
X137020790Y-131969780D01*
X136830314Y-131255495D01*
X136639838Y-131969780D01*
X136401742Y-130969780D01*
X136020790Y-131969780D02*
X136020790Y-130969780D01*
X135782695Y-130969780D01*
X135639838Y-131017400D01*
X135544600Y-131112638D01*
X135496980Y-131207876D01*
X135449361Y-131398352D01*
X135449361Y-131541209D01*
X135496980Y-131731685D01*
X135544600Y-131826923D01*
X135639838Y-131922161D01*
X135782695Y-131969780D01*
X136020790Y-131969780D01*
X135020790Y-131969780D02*
X135020790Y-130969780D01*
X134354123Y-130969780D02*
X134163647Y-130969780D01*
X134068409Y-131017400D01*
X133973171Y-131112638D01*
X133925552Y-131303114D01*
X133925552Y-131636447D01*
X133973171Y-131826923D01*
X134068409Y-131922161D01*
X134163647Y-131969780D01*
X134354123Y-131969780D01*
X134449361Y-131922161D01*
X134544600Y-131826923D01*
X134592219Y-131636447D01*
X134592219Y-131303114D01*
X134544600Y-131112638D01*
X134449361Y-131017400D01*
X134354123Y-130969780D01*
X195800704Y-92739180D02*
X195229276Y-92739180D01*
X195514990Y-93739180D02*
X195514990Y-92739180D01*
X194895942Y-93739180D02*
X194895942Y-92739180D01*
X194514990Y-92739180D01*
X194419752Y-92786800D01*
X194372133Y-92834419D01*
X194324514Y-92929657D01*
X194324514Y-93072514D01*
X194372133Y-93167752D01*
X194419752Y-93215371D01*
X194514990Y-93262990D01*
X194895942Y-93262990D01*
X193991180Y-92739180D02*
X193372133Y-92739180D01*
X193705466Y-93120133D01*
X193562609Y-93120133D01*
X193467371Y-93167752D01*
X193419752Y-93215371D01*
X193372133Y-93310609D01*
X193372133Y-93548704D01*
X193419752Y-93643942D01*
X193467371Y-93691561D01*
X193562609Y-93739180D01*
X193848323Y-93739180D01*
X193943561Y-93691561D01*
X193991180Y-93643942D01*
X196163647Y-97722161D02*
X196020790Y-97769780D01*
X195782695Y-97769780D01*
X195687457Y-97722161D01*
X195639838Y-97674542D01*
X195592219Y-97579304D01*
X195592219Y-97484066D01*
X195639838Y-97388828D01*
X195687457Y-97341209D01*
X195782695Y-97293590D01*
X195973171Y-97245971D01*
X196068409Y-97198352D01*
X196116028Y-97150733D01*
X196163647Y-97055495D01*
X196163647Y-96960257D01*
X196116028Y-96865019D01*
X196068409Y-96817400D01*
X195973171Y-96769780D01*
X195735076Y-96769780D01*
X195592219Y-96817400D01*
X195258885Y-96769780D02*
X195020790Y-97769780D01*
X194830314Y-97055495D01*
X194639838Y-97769780D01*
X194401742Y-96769780D01*
X194020790Y-97769780D02*
X194020790Y-96769780D01*
X193782695Y-96769780D01*
X193639838Y-96817400D01*
X193544600Y-96912638D01*
X193496980Y-97007876D01*
X193449361Y-97198352D01*
X193449361Y-97341209D01*
X193496980Y-97531685D01*
X193544600Y-97626923D01*
X193639838Y-97722161D01*
X193782695Y-97769780D01*
X194020790Y-97769780D01*
X193020790Y-97769780D02*
X193020790Y-96769780D01*
X192354123Y-96769780D02*
X192163647Y-96769780D01*
X192068409Y-96817400D01*
X191973171Y-96912638D01*
X191925552Y-97103114D01*
X191925552Y-97436447D01*
X191973171Y-97626923D01*
X192068409Y-97722161D01*
X192163647Y-97769780D01*
X192354123Y-97769780D01*
X192449361Y-97722161D01*
X192544600Y-97626923D01*
X192592219Y-97436447D01*
X192592219Y-97103114D01*
X192544600Y-96912638D01*
X192449361Y-96817400D01*
X192354123Y-96769780D01*
X166800704Y-92739180D02*
X166229276Y-92739180D01*
X166514990Y-93739180D02*
X166514990Y-92739180D01*
X165895942Y-93739180D02*
X165895942Y-92739180D01*
X165514990Y-92739180D01*
X165419752Y-92786800D01*
X165372133Y-92834419D01*
X165324514Y-92929657D01*
X165324514Y-93072514D01*
X165372133Y-93167752D01*
X165419752Y-93215371D01*
X165514990Y-93262990D01*
X165895942Y-93262990D01*
X164991180Y-92739180D02*
X164372133Y-92739180D01*
X164705466Y-93120133D01*
X164562609Y-93120133D01*
X164467371Y-93167752D01*
X164419752Y-93215371D01*
X164372133Y-93310609D01*
X164372133Y-93548704D01*
X164419752Y-93643942D01*
X164467371Y-93691561D01*
X164562609Y-93739180D01*
X164848323Y-93739180D01*
X164943561Y-93691561D01*
X164991180Y-93643942D01*
X167163647Y-97722161D02*
X167020790Y-97769780D01*
X166782695Y-97769780D01*
X166687457Y-97722161D01*
X166639838Y-97674542D01*
X166592219Y-97579304D01*
X166592219Y-97484066D01*
X166639838Y-97388828D01*
X166687457Y-97341209D01*
X166782695Y-97293590D01*
X166973171Y-97245971D01*
X167068409Y-97198352D01*
X167116028Y-97150733D01*
X167163647Y-97055495D01*
X167163647Y-96960257D01*
X167116028Y-96865019D01*
X167068409Y-96817400D01*
X166973171Y-96769780D01*
X166735076Y-96769780D01*
X166592219Y-96817400D01*
X166258885Y-96769780D02*
X166020790Y-97769780D01*
X165830314Y-97055495D01*
X165639838Y-97769780D01*
X165401742Y-96769780D01*
X165020790Y-97769780D02*
X165020790Y-96769780D01*
X164782695Y-96769780D01*
X164639838Y-96817400D01*
X164544600Y-96912638D01*
X164496980Y-97007876D01*
X164449361Y-97198352D01*
X164449361Y-97341209D01*
X164496980Y-97531685D01*
X164544600Y-97626923D01*
X164639838Y-97722161D01*
X164782695Y-97769780D01*
X165020790Y-97769780D01*
X164020790Y-97769780D02*
X164020790Y-96769780D01*
X163354123Y-96769780D02*
X163163647Y-96769780D01*
X163068409Y-96817400D01*
X162973171Y-96912638D01*
X162925552Y-97103114D01*
X162925552Y-97436447D01*
X162973171Y-97626923D01*
X163068409Y-97722161D01*
X163163647Y-97769780D01*
X163354123Y-97769780D01*
X163449361Y-97722161D01*
X163544600Y-97626923D01*
X163592219Y-97436447D01*
X163592219Y-97103114D01*
X163544600Y-96912638D01*
X163449361Y-96817400D01*
X163354123Y-96769780D01*
G04 #@! TO.C,TP2*
X186930704Y-153579180D02*
X186359276Y-153579180D01*
X186644990Y-154579180D02*
X186644990Y-153579180D01*
X186025942Y-154579180D02*
X186025942Y-153579180D01*
X185644990Y-153579180D01*
X185549752Y-153626800D01*
X185502133Y-153674419D01*
X185454514Y-153769657D01*
X185454514Y-153912514D01*
X185502133Y-154007752D01*
X185549752Y-154055371D01*
X185644990Y-154102990D01*
X186025942Y-154102990D01*
X185073561Y-153674419D02*
X185025942Y-153626800D01*
X184930704Y-153579180D01*
X184692609Y-153579180D01*
X184597371Y-153626800D01*
X184549752Y-153674419D01*
X184502133Y-153769657D01*
X184502133Y-153864895D01*
X184549752Y-154007752D01*
X185121180Y-154579180D01*
X184502133Y-154579180D01*
X185936504Y-157657400D02*
X186031742Y-157609780D01*
X186174600Y-157609780D01*
X186317457Y-157657400D01*
X186412695Y-157752638D01*
X186460314Y-157847876D01*
X186507933Y-158038352D01*
X186507933Y-158181209D01*
X186460314Y-158371685D01*
X186412695Y-158466923D01*
X186317457Y-158562161D01*
X186174600Y-158609780D01*
X186079361Y-158609780D01*
X185936504Y-158562161D01*
X185888885Y-158514542D01*
X185888885Y-158181209D01*
X186079361Y-158181209D01*
X185460314Y-158609780D02*
X185460314Y-157609780D01*
X184888885Y-158609780D01*
X184888885Y-157609780D01*
X184412695Y-158609780D02*
X184412695Y-157609780D01*
X184174600Y-157609780D01*
X184031742Y-157657400D01*
X183936504Y-157752638D01*
X183888885Y-157847876D01*
X183841266Y-158038352D01*
X183841266Y-158181209D01*
X183888885Y-158371685D01*
X183936504Y-158466923D01*
X184031742Y-158562161D01*
X184174600Y-158609780D01*
X184412695Y-158609780D01*
X157930704Y-153579180D02*
X157359276Y-153579180D01*
X157644990Y-154579180D02*
X157644990Y-153579180D01*
X157025942Y-154579180D02*
X157025942Y-153579180D01*
X156644990Y-153579180D01*
X156549752Y-153626800D01*
X156502133Y-153674419D01*
X156454514Y-153769657D01*
X156454514Y-153912514D01*
X156502133Y-154007752D01*
X156549752Y-154055371D01*
X156644990Y-154102990D01*
X157025942Y-154102990D01*
X156073561Y-153674419D02*
X156025942Y-153626800D01*
X155930704Y-153579180D01*
X155692609Y-153579180D01*
X155597371Y-153626800D01*
X155549752Y-153674419D01*
X155502133Y-153769657D01*
X155502133Y-153864895D01*
X155549752Y-154007752D01*
X156121180Y-154579180D01*
X155502133Y-154579180D01*
X156936504Y-157657400D02*
X157031742Y-157609780D01*
X157174600Y-157609780D01*
X157317457Y-157657400D01*
X157412695Y-157752638D01*
X157460314Y-157847876D01*
X157507933Y-158038352D01*
X157507933Y-158181209D01*
X157460314Y-158371685D01*
X157412695Y-158466923D01*
X157317457Y-158562161D01*
X157174600Y-158609780D01*
X157079361Y-158609780D01*
X156936504Y-158562161D01*
X156888885Y-158514542D01*
X156888885Y-158181209D01*
X157079361Y-158181209D01*
X156460314Y-158609780D02*
X156460314Y-157609780D01*
X155888885Y-158609780D01*
X155888885Y-157609780D01*
X155412695Y-158609780D02*
X155412695Y-157609780D01*
X155174600Y-157609780D01*
X155031742Y-157657400D01*
X154936504Y-157752638D01*
X154888885Y-157847876D01*
X154841266Y-158038352D01*
X154841266Y-158181209D01*
X154888885Y-158371685D01*
X154936504Y-158466923D01*
X155031742Y-158562161D01*
X155174600Y-158609780D01*
X155412695Y-158609780D01*
X128930704Y-153579180D02*
X128359276Y-153579180D01*
X128644990Y-154579180D02*
X128644990Y-153579180D01*
X128025942Y-154579180D02*
X128025942Y-153579180D01*
X127644990Y-153579180D01*
X127549752Y-153626800D01*
X127502133Y-153674419D01*
X127454514Y-153769657D01*
X127454514Y-153912514D01*
X127502133Y-154007752D01*
X127549752Y-154055371D01*
X127644990Y-154102990D01*
X128025942Y-154102990D01*
X127073561Y-153674419D02*
X127025942Y-153626800D01*
X126930704Y-153579180D01*
X126692609Y-153579180D01*
X126597371Y-153626800D01*
X126549752Y-153674419D01*
X126502133Y-153769657D01*
X126502133Y-153864895D01*
X126549752Y-154007752D01*
X127121180Y-154579180D01*
X126502133Y-154579180D01*
X127936504Y-157657400D02*
X128031742Y-157609780D01*
X128174600Y-157609780D01*
X128317457Y-157657400D01*
X128412695Y-157752638D01*
X128460314Y-157847876D01*
X128507933Y-158038352D01*
X128507933Y-158181209D01*
X128460314Y-158371685D01*
X128412695Y-158466923D01*
X128317457Y-158562161D01*
X128174600Y-158609780D01*
X128079361Y-158609780D01*
X127936504Y-158562161D01*
X127888885Y-158514542D01*
X127888885Y-158181209D01*
X128079361Y-158181209D01*
X127460314Y-158609780D02*
X127460314Y-157609780D01*
X126888885Y-158609780D01*
X126888885Y-157609780D01*
X126412695Y-158609780D02*
X126412695Y-157609780D01*
X126174600Y-157609780D01*
X126031742Y-157657400D01*
X125936504Y-157752638D01*
X125888885Y-157847876D01*
X125841266Y-158038352D01*
X125841266Y-158181209D01*
X125888885Y-158371685D01*
X125936504Y-158466923D01*
X126031742Y-158562161D01*
X126174600Y-158609780D01*
X126412695Y-158609780D01*
X186930704Y-119379180D02*
X186359276Y-119379180D01*
X186644990Y-120379180D02*
X186644990Y-119379180D01*
X186025942Y-120379180D02*
X186025942Y-119379180D01*
X185644990Y-119379180D01*
X185549752Y-119426800D01*
X185502133Y-119474419D01*
X185454514Y-119569657D01*
X185454514Y-119712514D01*
X185502133Y-119807752D01*
X185549752Y-119855371D01*
X185644990Y-119902990D01*
X186025942Y-119902990D01*
X185073561Y-119474419D02*
X185025942Y-119426800D01*
X184930704Y-119379180D01*
X184692609Y-119379180D01*
X184597371Y-119426800D01*
X184549752Y-119474419D01*
X184502133Y-119569657D01*
X184502133Y-119664895D01*
X184549752Y-119807752D01*
X185121180Y-120379180D01*
X184502133Y-120379180D01*
X185936504Y-123457400D02*
X186031742Y-123409780D01*
X186174600Y-123409780D01*
X186317457Y-123457400D01*
X186412695Y-123552638D01*
X186460314Y-123647876D01*
X186507933Y-123838352D01*
X186507933Y-123981209D01*
X186460314Y-124171685D01*
X186412695Y-124266923D01*
X186317457Y-124362161D01*
X186174600Y-124409780D01*
X186079361Y-124409780D01*
X185936504Y-124362161D01*
X185888885Y-124314542D01*
X185888885Y-123981209D01*
X186079361Y-123981209D01*
X185460314Y-124409780D02*
X185460314Y-123409780D01*
X184888885Y-124409780D01*
X184888885Y-123409780D01*
X184412695Y-124409780D02*
X184412695Y-123409780D01*
X184174600Y-123409780D01*
X184031742Y-123457400D01*
X183936504Y-123552638D01*
X183888885Y-123647876D01*
X183841266Y-123838352D01*
X183841266Y-123981209D01*
X183888885Y-124171685D01*
X183936504Y-124266923D01*
X184031742Y-124362161D01*
X184174600Y-124409780D01*
X184412695Y-124409780D01*
X157930704Y-119379180D02*
X157359276Y-119379180D01*
X157644990Y-120379180D02*
X157644990Y-119379180D01*
X157025942Y-120379180D02*
X157025942Y-119379180D01*
X156644990Y-119379180D01*
X156549752Y-119426800D01*
X156502133Y-119474419D01*
X156454514Y-119569657D01*
X156454514Y-119712514D01*
X156502133Y-119807752D01*
X156549752Y-119855371D01*
X156644990Y-119902990D01*
X157025942Y-119902990D01*
X156073561Y-119474419D02*
X156025942Y-119426800D01*
X155930704Y-119379180D01*
X155692609Y-119379180D01*
X155597371Y-119426800D01*
X155549752Y-119474419D01*
X155502133Y-119569657D01*
X155502133Y-119664895D01*
X155549752Y-119807752D01*
X156121180Y-120379180D01*
X155502133Y-120379180D01*
X156936504Y-123457400D02*
X157031742Y-123409780D01*
X157174600Y-123409780D01*
X157317457Y-123457400D01*
X157412695Y-123552638D01*
X157460314Y-123647876D01*
X157507933Y-123838352D01*
X157507933Y-123981209D01*
X157460314Y-124171685D01*
X157412695Y-124266923D01*
X157317457Y-124362161D01*
X157174600Y-124409780D01*
X157079361Y-124409780D01*
X156936504Y-124362161D01*
X156888885Y-124314542D01*
X156888885Y-123981209D01*
X157079361Y-123981209D01*
X156460314Y-124409780D02*
X156460314Y-123409780D01*
X155888885Y-124409780D01*
X155888885Y-123409780D01*
X155412695Y-124409780D02*
X155412695Y-123409780D01*
X155174600Y-123409780D01*
X155031742Y-123457400D01*
X154936504Y-123552638D01*
X154888885Y-123647876D01*
X154841266Y-123838352D01*
X154841266Y-123981209D01*
X154888885Y-124171685D01*
X154936504Y-124266923D01*
X155031742Y-124362161D01*
X155174600Y-124409780D01*
X155412695Y-124409780D01*
X128930704Y-119379180D02*
X128359276Y-119379180D01*
X128644990Y-120379180D02*
X128644990Y-119379180D01*
X128025942Y-120379180D02*
X128025942Y-119379180D01*
X127644990Y-119379180D01*
X127549752Y-119426800D01*
X127502133Y-119474419D01*
X127454514Y-119569657D01*
X127454514Y-119712514D01*
X127502133Y-119807752D01*
X127549752Y-119855371D01*
X127644990Y-119902990D01*
X128025942Y-119902990D01*
X127073561Y-119474419D02*
X127025942Y-119426800D01*
X126930704Y-119379180D01*
X126692609Y-119379180D01*
X126597371Y-119426800D01*
X126549752Y-119474419D01*
X126502133Y-119569657D01*
X126502133Y-119664895D01*
X126549752Y-119807752D01*
X127121180Y-120379180D01*
X126502133Y-120379180D01*
X127936504Y-123457400D02*
X128031742Y-123409780D01*
X128174600Y-123409780D01*
X128317457Y-123457400D01*
X128412695Y-123552638D01*
X128460314Y-123647876D01*
X128507933Y-123838352D01*
X128507933Y-123981209D01*
X128460314Y-124171685D01*
X128412695Y-124266923D01*
X128317457Y-124362161D01*
X128174600Y-124409780D01*
X128079361Y-124409780D01*
X127936504Y-124362161D01*
X127888885Y-124314542D01*
X127888885Y-123981209D01*
X128079361Y-123981209D01*
X127460314Y-124409780D02*
X127460314Y-123409780D01*
X126888885Y-124409780D01*
X126888885Y-123409780D01*
X126412695Y-124409780D02*
X126412695Y-123409780D01*
X126174600Y-123409780D01*
X126031742Y-123457400D01*
X125936504Y-123552638D01*
X125888885Y-123647876D01*
X125841266Y-123838352D01*
X125841266Y-123981209D01*
X125888885Y-124171685D01*
X125936504Y-124266923D01*
X126031742Y-124362161D01*
X126174600Y-124409780D01*
X126412695Y-124409780D01*
X186930704Y-85179180D02*
X186359276Y-85179180D01*
X186644990Y-86179180D02*
X186644990Y-85179180D01*
X186025942Y-86179180D02*
X186025942Y-85179180D01*
X185644990Y-85179180D01*
X185549752Y-85226800D01*
X185502133Y-85274419D01*
X185454514Y-85369657D01*
X185454514Y-85512514D01*
X185502133Y-85607752D01*
X185549752Y-85655371D01*
X185644990Y-85702990D01*
X186025942Y-85702990D01*
X185073561Y-85274419D02*
X185025942Y-85226800D01*
X184930704Y-85179180D01*
X184692609Y-85179180D01*
X184597371Y-85226800D01*
X184549752Y-85274419D01*
X184502133Y-85369657D01*
X184502133Y-85464895D01*
X184549752Y-85607752D01*
X185121180Y-86179180D01*
X184502133Y-86179180D01*
X185936504Y-89257400D02*
X186031742Y-89209780D01*
X186174600Y-89209780D01*
X186317457Y-89257400D01*
X186412695Y-89352638D01*
X186460314Y-89447876D01*
X186507933Y-89638352D01*
X186507933Y-89781209D01*
X186460314Y-89971685D01*
X186412695Y-90066923D01*
X186317457Y-90162161D01*
X186174600Y-90209780D01*
X186079361Y-90209780D01*
X185936504Y-90162161D01*
X185888885Y-90114542D01*
X185888885Y-89781209D01*
X186079361Y-89781209D01*
X185460314Y-90209780D02*
X185460314Y-89209780D01*
X184888885Y-90209780D01*
X184888885Y-89209780D01*
X184412695Y-90209780D02*
X184412695Y-89209780D01*
X184174600Y-89209780D01*
X184031742Y-89257400D01*
X183936504Y-89352638D01*
X183888885Y-89447876D01*
X183841266Y-89638352D01*
X183841266Y-89781209D01*
X183888885Y-89971685D01*
X183936504Y-90066923D01*
X184031742Y-90162161D01*
X184174600Y-90209780D01*
X184412695Y-90209780D01*
X157930704Y-85179180D02*
X157359276Y-85179180D01*
X157644990Y-86179180D02*
X157644990Y-85179180D01*
X157025942Y-86179180D02*
X157025942Y-85179180D01*
X156644990Y-85179180D01*
X156549752Y-85226800D01*
X156502133Y-85274419D01*
X156454514Y-85369657D01*
X156454514Y-85512514D01*
X156502133Y-85607752D01*
X156549752Y-85655371D01*
X156644990Y-85702990D01*
X157025942Y-85702990D01*
X156073561Y-85274419D02*
X156025942Y-85226800D01*
X155930704Y-85179180D01*
X155692609Y-85179180D01*
X155597371Y-85226800D01*
X155549752Y-85274419D01*
X155502133Y-85369657D01*
X155502133Y-85464895D01*
X155549752Y-85607752D01*
X156121180Y-86179180D01*
X155502133Y-86179180D01*
X156936504Y-89257400D02*
X157031742Y-89209780D01*
X157174600Y-89209780D01*
X157317457Y-89257400D01*
X157412695Y-89352638D01*
X157460314Y-89447876D01*
X157507933Y-89638352D01*
X157507933Y-89781209D01*
X157460314Y-89971685D01*
X157412695Y-90066923D01*
X157317457Y-90162161D01*
X157174600Y-90209780D01*
X157079361Y-90209780D01*
X156936504Y-90162161D01*
X156888885Y-90114542D01*
X156888885Y-89781209D01*
X157079361Y-89781209D01*
X156460314Y-90209780D02*
X156460314Y-89209780D01*
X155888885Y-90209780D01*
X155888885Y-89209780D01*
X155412695Y-90209780D02*
X155412695Y-89209780D01*
X155174600Y-89209780D01*
X155031742Y-89257400D01*
X154936504Y-89352638D01*
X154888885Y-89447876D01*
X154841266Y-89638352D01*
X154841266Y-89781209D01*
X154888885Y-89971685D01*
X154936504Y-90066923D01*
X155031742Y-90162161D01*
X155174600Y-90209780D01*
X155412695Y-90209780D01*
G04 #@! TO.C,TP1*
X189130704Y-161119180D02*
X188559276Y-161119180D01*
X188844990Y-162119180D02*
X188844990Y-161119180D01*
X188225942Y-162119180D02*
X188225942Y-161119180D01*
X187844990Y-161119180D01*
X187749752Y-161166800D01*
X187702133Y-161214419D01*
X187654514Y-161309657D01*
X187654514Y-161452514D01*
X187702133Y-161547752D01*
X187749752Y-161595371D01*
X187844990Y-161642990D01*
X188225942Y-161642990D01*
X186702133Y-162119180D02*
X187273561Y-162119180D01*
X186987847Y-162119180D02*
X186987847Y-161119180D01*
X187083085Y-161262038D01*
X187178323Y-161357276D01*
X187273561Y-161404895D01*
X187565076Y-165149780D02*
X188041266Y-165149780D01*
X188088885Y-165625971D01*
X188041266Y-165578352D01*
X187946028Y-165530733D01*
X187707933Y-165530733D01*
X187612695Y-165578352D01*
X187565076Y-165625971D01*
X187517457Y-165721209D01*
X187517457Y-165959304D01*
X187565076Y-166054542D01*
X187612695Y-166102161D01*
X187707933Y-166149780D01*
X187946028Y-166149780D01*
X188041266Y-166102161D01*
X188088885Y-166054542D01*
X187231742Y-165149780D02*
X186898409Y-166149780D01*
X186565076Y-165149780D01*
X160130704Y-161119180D02*
X159559276Y-161119180D01*
X159844990Y-162119180D02*
X159844990Y-161119180D01*
X159225942Y-162119180D02*
X159225942Y-161119180D01*
X158844990Y-161119180D01*
X158749752Y-161166800D01*
X158702133Y-161214419D01*
X158654514Y-161309657D01*
X158654514Y-161452514D01*
X158702133Y-161547752D01*
X158749752Y-161595371D01*
X158844990Y-161642990D01*
X159225942Y-161642990D01*
X157702133Y-162119180D02*
X158273561Y-162119180D01*
X157987847Y-162119180D02*
X157987847Y-161119180D01*
X158083085Y-161262038D01*
X158178323Y-161357276D01*
X158273561Y-161404895D01*
X158565076Y-165149780D02*
X159041266Y-165149780D01*
X159088885Y-165625971D01*
X159041266Y-165578352D01*
X158946028Y-165530733D01*
X158707933Y-165530733D01*
X158612695Y-165578352D01*
X158565076Y-165625971D01*
X158517457Y-165721209D01*
X158517457Y-165959304D01*
X158565076Y-166054542D01*
X158612695Y-166102161D01*
X158707933Y-166149780D01*
X158946028Y-166149780D01*
X159041266Y-166102161D01*
X159088885Y-166054542D01*
X158231742Y-165149780D02*
X157898409Y-166149780D01*
X157565076Y-165149780D01*
X131130704Y-161119180D02*
X130559276Y-161119180D01*
X130844990Y-162119180D02*
X130844990Y-161119180D01*
X130225942Y-162119180D02*
X130225942Y-161119180D01*
X129844990Y-161119180D01*
X129749752Y-161166800D01*
X129702133Y-161214419D01*
X129654514Y-161309657D01*
X129654514Y-161452514D01*
X129702133Y-161547752D01*
X129749752Y-161595371D01*
X129844990Y-161642990D01*
X130225942Y-161642990D01*
X128702133Y-162119180D02*
X129273561Y-162119180D01*
X128987847Y-162119180D02*
X128987847Y-161119180D01*
X129083085Y-161262038D01*
X129178323Y-161357276D01*
X129273561Y-161404895D01*
X129565076Y-165149780D02*
X130041266Y-165149780D01*
X130088885Y-165625971D01*
X130041266Y-165578352D01*
X129946028Y-165530733D01*
X129707933Y-165530733D01*
X129612695Y-165578352D01*
X129565076Y-165625971D01*
X129517457Y-165721209D01*
X129517457Y-165959304D01*
X129565076Y-166054542D01*
X129612695Y-166102161D01*
X129707933Y-166149780D01*
X129946028Y-166149780D01*
X130041266Y-166102161D01*
X130088885Y-166054542D01*
X129231742Y-165149780D02*
X128898409Y-166149780D01*
X128565076Y-165149780D01*
X189130704Y-126919180D02*
X188559276Y-126919180D01*
X188844990Y-127919180D02*
X188844990Y-126919180D01*
X188225942Y-127919180D02*
X188225942Y-126919180D01*
X187844990Y-126919180D01*
X187749752Y-126966800D01*
X187702133Y-127014419D01*
X187654514Y-127109657D01*
X187654514Y-127252514D01*
X187702133Y-127347752D01*
X187749752Y-127395371D01*
X187844990Y-127442990D01*
X188225942Y-127442990D01*
X186702133Y-127919180D02*
X187273561Y-127919180D01*
X186987847Y-127919180D02*
X186987847Y-126919180D01*
X187083085Y-127062038D01*
X187178323Y-127157276D01*
X187273561Y-127204895D01*
X187565076Y-130949780D02*
X188041266Y-130949780D01*
X188088885Y-131425971D01*
X188041266Y-131378352D01*
X187946028Y-131330733D01*
X187707933Y-131330733D01*
X187612695Y-131378352D01*
X187565076Y-131425971D01*
X187517457Y-131521209D01*
X187517457Y-131759304D01*
X187565076Y-131854542D01*
X187612695Y-131902161D01*
X187707933Y-131949780D01*
X187946028Y-131949780D01*
X188041266Y-131902161D01*
X188088885Y-131854542D01*
X187231742Y-130949780D02*
X186898409Y-131949780D01*
X186565076Y-130949780D01*
X160130704Y-126919180D02*
X159559276Y-126919180D01*
X159844990Y-127919180D02*
X159844990Y-126919180D01*
X159225942Y-127919180D02*
X159225942Y-126919180D01*
X158844990Y-126919180D01*
X158749752Y-126966800D01*
X158702133Y-127014419D01*
X158654514Y-127109657D01*
X158654514Y-127252514D01*
X158702133Y-127347752D01*
X158749752Y-127395371D01*
X158844990Y-127442990D01*
X159225942Y-127442990D01*
X157702133Y-127919180D02*
X158273561Y-127919180D01*
X157987847Y-127919180D02*
X157987847Y-126919180D01*
X158083085Y-127062038D01*
X158178323Y-127157276D01*
X158273561Y-127204895D01*
X158565076Y-130949780D02*
X159041266Y-130949780D01*
X159088885Y-131425971D01*
X159041266Y-131378352D01*
X158946028Y-131330733D01*
X158707933Y-131330733D01*
X158612695Y-131378352D01*
X158565076Y-131425971D01*
X158517457Y-131521209D01*
X158517457Y-131759304D01*
X158565076Y-131854542D01*
X158612695Y-131902161D01*
X158707933Y-131949780D01*
X158946028Y-131949780D01*
X159041266Y-131902161D01*
X159088885Y-131854542D01*
X158231742Y-130949780D02*
X157898409Y-131949780D01*
X157565076Y-130949780D01*
X131130704Y-126919180D02*
X130559276Y-126919180D01*
X130844990Y-127919180D02*
X130844990Y-126919180D01*
X130225942Y-127919180D02*
X130225942Y-126919180D01*
X129844990Y-126919180D01*
X129749752Y-126966800D01*
X129702133Y-127014419D01*
X129654514Y-127109657D01*
X129654514Y-127252514D01*
X129702133Y-127347752D01*
X129749752Y-127395371D01*
X129844990Y-127442990D01*
X130225942Y-127442990D01*
X128702133Y-127919180D02*
X129273561Y-127919180D01*
X128987847Y-127919180D02*
X128987847Y-126919180D01*
X129083085Y-127062038D01*
X129178323Y-127157276D01*
X129273561Y-127204895D01*
X129565076Y-130949780D02*
X130041266Y-130949780D01*
X130088885Y-131425971D01*
X130041266Y-131378352D01*
X129946028Y-131330733D01*
X129707933Y-131330733D01*
X129612695Y-131378352D01*
X129565076Y-131425971D01*
X129517457Y-131521209D01*
X129517457Y-131759304D01*
X129565076Y-131854542D01*
X129612695Y-131902161D01*
X129707933Y-131949780D01*
X129946028Y-131949780D01*
X130041266Y-131902161D01*
X130088885Y-131854542D01*
X129231742Y-130949780D02*
X128898409Y-131949780D01*
X128565076Y-130949780D01*
X189130704Y-92719180D02*
X188559276Y-92719180D01*
X188844990Y-93719180D02*
X188844990Y-92719180D01*
X188225942Y-93719180D02*
X188225942Y-92719180D01*
X187844990Y-92719180D01*
X187749752Y-92766800D01*
X187702133Y-92814419D01*
X187654514Y-92909657D01*
X187654514Y-93052514D01*
X187702133Y-93147752D01*
X187749752Y-93195371D01*
X187844990Y-93242990D01*
X188225942Y-93242990D01*
X186702133Y-93719180D02*
X187273561Y-93719180D01*
X186987847Y-93719180D02*
X186987847Y-92719180D01*
X187083085Y-92862038D01*
X187178323Y-92957276D01*
X187273561Y-93004895D01*
X187565076Y-96749780D02*
X188041266Y-96749780D01*
X188088885Y-97225971D01*
X188041266Y-97178352D01*
X187946028Y-97130733D01*
X187707933Y-97130733D01*
X187612695Y-97178352D01*
X187565076Y-97225971D01*
X187517457Y-97321209D01*
X187517457Y-97559304D01*
X187565076Y-97654542D01*
X187612695Y-97702161D01*
X187707933Y-97749780D01*
X187946028Y-97749780D01*
X188041266Y-97702161D01*
X188088885Y-97654542D01*
X187231742Y-96749780D02*
X186898409Y-97749780D01*
X186565076Y-96749780D01*
X160130704Y-92719180D02*
X159559276Y-92719180D01*
X159844990Y-93719180D02*
X159844990Y-92719180D01*
X159225942Y-93719180D02*
X159225942Y-92719180D01*
X158844990Y-92719180D01*
X158749752Y-92766800D01*
X158702133Y-92814419D01*
X158654514Y-92909657D01*
X158654514Y-93052514D01*
X158702133Y-93147752D01*
X158749752Y-93195371D01*
X158844990Y-93242990D01*
X159225942Y-93242990D01*
X157702133Y-93719180D02*
X158273561Y-93719180D01*
X157987847Y-93719180D02*
X157987847Y-92719180D01*
X158083085Y-92862038D01*
X158178323Y-92957276D01*
X158273561Y-93004895D01*
X158565076Y-96749780D02*
X159041266Y-96749780D01*
X159088885Y-97225971D01*
X159041266Y-97178352D01*
X158946028Y-97130733D01*
X158707933Y-97130733D01*
X158612695Y-97178352D01*
X158565076Y-97225971D01*
X158517457Y-97321209D01*
X158517457Y-97559304D01*
X158565076Y-97654542D01*
X158612695Y-97702161D01*
X158707933Y-97749780D01*
X158946028Y-97749780D01*
X159041266Y-97702161D01*
X159088885Y-97654542D01*
X158231742Y-96749780D02*
X157898409Y-97749780D01*
X157565076Y-96749780D01*
X131130704Y-92719180D02*
X130559276Y-92719180D01*
X130844990Y-93719180D02*
X130844990Y-92719180D01*
X130225942Y-93719180D02*
X130225942Y-92719180D01*
X129844990Y-92719180D01*
X129749752Y-92766800D01*
X129702133Y-92814419D01*
X129654514Y-92909657D01*
X129654514Y-93052514D01*
X129702133Y-93147752D01*
X129749752Y-93195371D01*
X129844990Y-93242990D01*
X130225942Y-93242990D01*
X128702133Y-93719180D02*
X129273561Y-93719180D01*
X128987847Y-93719180D02*
X128987847Y-92719180D01*
X129083085Y-92862038D01*
X129178323Y-92957276D01*
X129273561Y-93004895D01*
X129565076Y-96749780D02*
X130041266Y-96749780D01*
X130088885Y-97225971D01*
X130041266Y-97178352D01*
X129946028Y-97130733D01*
X129707933Y-97130733D01*
X129612695Y-97178352D01*
X129565076Y-97225971D01*
X129517457Y-97321209D01*
X129517457Y-97559304D01*
X129565076Y-97654542D01*
X129612695Y-97702161D01*
X129707933Y-97749780D01*
X129946028Y-97749780D01*
X130041266Y-97702161D01*
X130088885Y-97654542D01*
X129231742Y-96749780D02*
X128898409Y-97749780D01*
X128565076Y-96749780D01*
G04 #@! TO.C,TP2*
X128930704Y-85179180D02*
X128359276Y-85179180D01*
X128644990Y-86179180D02*
X128644990Y-85179180D01*
X128025942Y-86179180D02*
X128025942Y-85179180D01*
X127644990Y-85179180D01*
X127549752Y-85226800D01*
X127502133Y-85274419D01*
X127454514Y-85369657D01*
X127454514Y-85512514D01*
X127502133Y-85607752D01*
X127549752Y-85655371D01*
X127644990Y-85702990D01*
X128025942Y-85702990D01*
X127073561Y-85274419D02*
X127025942Y-85226800D01*
X126930704Y-85179180D01*
X126692609Y-85179180D01*
X126597371Y-85226800D01*
X126549752Y-85274419D01*
X126502133Y-85369657D01*
X126502133Y-85464895D01*
X126549752Y-85607752D01*
X127121180Y-86179180D01*
X126502133Y-86179180D01*
X127936504Y-89257400D02*
X128031742Y-89209780D01*
X128174600Y-89209780D01*
X128317457Y-89257400D01*
X128412695Y-89352638D01*
X128460314Y-89447876D01*
X128507933Y-89638352D01*
X128507933Y-89781209D01*
X128460314Y-89971685D01*
X128412695Y-90066923D01*
X128317457Y-90162161D01*
X128174600Y-90209780D01*
X128079361Y-90209780D01*
X127936504Y-90162161D01*
X127888885Y-90114542D01*
X127888885Y-89781209D01*
X128079361Y-89781209D01*
X127460314Y-90209780D02*
X127460314Y-89209780D01*
X126888885Y-90209780D01*
X126888885Y-89209780D01*
X126412695Y-90209780D02*
X126412695Y-89209780D01*
X126174600Y-89209780D01*
X126031742Y-89257400D01*
X125936504Y-89352638D01*
X125888885Y-89447876D01*
X125841266Y-89638352D01*
X125841266Y-89781209D01*
X125888885Y-89971685D01*
X125936504Y-90066923D01*
X126031742Y-90162161D01*
X126174600Y-90209780D01*
X126412695Y-90209780D01*
G04 #@! TO.C,TP3*
X137800704Y-92739180D02*
X137229276Y-92739180D01*
X137514990Y-93739180D02*
X137514990Y-92739180D01*
X136895942Y-93739180D02*
X136895942Y-92739180D01*
X136514990Y-92739180D01*
X136419752Y-92786800D01*
X136372133Y-92834419D01*
X136324514Y-92929657D01*
X136324514Y-93072514D01*
X136372133Y-93167752D01*
X136419752Y-93215371D01*
X136514990Y-93262990D01*
X136895942Y-93262990D01*
X135991180Y-92739180D02*
X135372133Y-92739180D01*
X135705466Y-93120133D01*
X135562609Y-93120133D01*
X135467371Y-93167752D01*
X135419752Y-93215371D01*
X135372133Y-93310609D01*
X135372133Y-93548704D01*
X135419752Y-93643942D01*
X135467371Y-93691561D01*
X135562609Y-93739180D01*
X135848323Y-93739180D01*
X135943561Y-93691561D01*
X135991180Y-93643942D01*
X138163647Y-97722161D02*
X138020790Y-97769780D01*
X137782695Y-97769780D01*
X137687457Y-97722161D01*
X137639838Y-97674542D01*
X137592219Y-97579304D01*
X137592219Y-97484066D01*
X137639838Y-97388828D01*
X137687457Y-97341209D01*
X137782695Y-97293590D01*
X137973171Y-97245971D01*
X138068409Y-97198352D01*
X138116028Y-97150733D01*
X138163647Y-97055495D01*
X138163647Y-96960257D01*
X138116028Y-96865019D01*
X138068409Y-96817400D01*
X137973171Y-96769780D01*
X137735076Y-96769780D01*
X137592219Y-96817400D01*
X137258885Y-96769780D02*
X137020790Y-97769780D01*
X136830314Y-97055495D01*
X136639838Y-97769780D01*
X136401742Y-96769780D01*
X136020790Y-97769780D02*
X136020790Y-96769780D01*
X135782695Y-96769780D01*
X135639838Y-96817400D01*
X135544600Y-96912638D01*
X135496980Y-97007876D01*
X135449361Y-97198352D01*
X135449361Y-97341209D01*
X135496980Y-97531685D01*
X135544600Y-97626923D01*
X135639838Y-97722161D01*
X135782695Y-97769780D01*
X136020790Y-97769780D01*
X135020790Y-97769780D02*
X135020790Y-96769780D01*
X134354123Y-96769780D02*
X134163647Y-96769780D01*
X134068409Y-96817400D01*
X133973171Y-96912638D01*
X133925552Y-97103114D01*
X133925552Y-97436447D01*
X133973171Y-97626923D01*
X134068409Y-97722161D01*
X134163647Y-97769780D01*
X134354123Y-97769780D01*
X134449361Y-97722161D01*
X134544600Y-97626923D01*
X134592219Y-97436447D01*
X134592219Y-97103114D01*
X134544600Y-96912638D01*
X134449361Y-96817400D01*
X134354123Y-96769780D01*
G04 #@! TO.C,TP4*
X134020704Y-94629180D02*
X133449276Y-94629180D01*
X133734990Y-95629180D02*
X133734990Y-94629180D01*
X133115942Y-95629180D02*
X133115942Y-94629180D01*
X132734990Y-94629180D01*
X132639752Y-94676800D01*
X132592133Y-94724419D01*
X132544514Y-94819657D01*
X132544514Y-94962514D01*
X132592133Y-95057752D01*
X132639752Y-95105371D01*
X132734990Y-95152990D01*
X133115942Y-95152990D01*
X131687371Y-94962514D02*
X131687371Y-95629180D01*
X131925466Y-94581561D02*
X132163561Y-95295847D01*
X131544514Y-95295847D01*
X135026504Y-99612161D02*
X134883647Y-99659780D01*
X134645552Y-99659780D01*
X134550314Y-99612161D01*
X134502695Y-99564542D01*
X134455076Y-99469304D01*
X134455076Y-99374066D01*
X134502695Y-99278828D01*
X134550314Y-99231209D01*
X134645552Y-99183590D01*
X134836028Y-99135971D01*
X134931266Y-99088352D01*
X134978885Y-99040733D01*
X135026504Y-98945495D01*
X135026504Y-98850257D01*
X134978885Y-98755019D01*
X134931266Y-98707400D01*
X134836028Y-98659780D01*
X134597933Y-98659780D01*
X134455076Y-98707400D01*
X134121742Y-98659780D02*
X133883647Y-99659780D01*
X133693171Y-98945495D01*
X133502695Y-99659780D01*
X133264600Y-98659780D01*
X132883647Y-99659780D02*
X132883647Y-98659780D01*
X132645552Y-98659780D01*
X132502695Y-98707400D01*
X132407457Y-98802638D01*
X132359838Y-98897876D01*
X132312219Y-99088352D01*
X132312219Y-99231209D01*
X132359838Y-99421685D01*
X132407457Y-99516923D01*
X132502695Y-99612161D01*
X132645552Y-99659780D01*
X132883647Y-99659780D01*
X131312219Y-99564542D02*
X131359838Y-99612161D01*
X131502695Y-99659780D01*
X131597933Y-99659780D01*
X131740790Y-99612161D01*
X131836028Y-99516923D01*
X131883647Y-99421685D01*
X131931266Y-99231209D01*
X131931266Y-99088352D01*
X131883647Y-98897876D01*
X131836028Y-98802638D01*
X131740790Y-98707400D01*
X131597933Y-98659780D01*
X131502695Y-98659780D01*
X131359838Y-98707400D01*
X131312219Y-98755019D01*
X130407457Y-99659780D02*
X130883647Y-99659780D01*
X130883647Y-98659780D01*
X130074123Y-99659780D02*
X130074123Y-98659780D01*
X129502695Y-99659780D02*
X129931266Y-99088352D01*
X129502695Y-98659780D02*
X130074123Y-99231209D01*
G04 #@! TO.C,TP5*
X142170704Y-78889180D02*
X141599276Y-78889180D01*
X141884990Y-79889180D02*
X141884990Y-78889180D01*
X141265942Y-79889180D02*
X141265942Y-78889180D01*
X140884990Y-78889180D01*
X140789752Y-78936800D01*
X140742133Y-78984419D01*
X140694514Y-79079657D01*
X140694514Y-79222514D01*
X140742133Y-79317752D01*
X140789752Y-79365371D01*
X140884990Y-79412990D01*
X141265942Y-79412990D01*
X139789752Y-78889180D02*
X140265942Y-78889180D01*
X140313561Y-79365371D01*
X140265942Y-79317752D01*
X140170704Y-79270133D01*
X139932609Y-79270133D01*
X139837371Y-79317752D01*
X139789752Y-79365371D01*
X139742133Y-79460609D01*
X139742133Y-79698704D01*
X139789752Y-79793942D01*
X139837371Y-79841561D01*
X139932609Y-79889180D01*
X140170704Y-79889180D01*
X140265942Y-79841561D01*
X140313561Y-79793942D01*
X141652695Y-83919780D02*
X141986028Y-83443590D01*
X142224123Y-83919780D02*
X142224123Y-82919780D01*
X141843171Y-82919780D01*
X141747933Y-82967400D01*
X141700314Y-83015019D01*
X141652695Y-83110257D01*
X141652695Y-83253114D01*
X141700314Y-83348352D01*
X141747933Y-83395971D01*
X141843171Y-83443590D01*
X142224123Y-83443590D01*
X140843171Y-83872161D02*
X140938409Y-83919780D01*
X141128885Y-83919780D01*
X141224123Y-83872161D01*
X141271742Y-83776923D01*
X141271742Y-83395971D01*
X141224123Y-83300733D01*
X141128885Y-83253114D01*
X140938409Y-83253114D01*
X140843171Y-83300733D01*
X140795552Y-83395971D01*
X140795552Y-83491209D01*
X141271742Y-83586447D01*
X140414600Y-83872161D02*
X140319361Y-83919780D01*
X140128885Y-83919780D01*
X140033647Y-83872161D01*
X139986028Y-83776923D01*
X139986028Y-83729304D01*
X140033647Y-83634066D01*
X140128885Y-83586447D01*
X140271742Y-83586447D01*
X140366980Y-83538828D01*
X140414600Y-83443590D01*
X140414600Y-83395971D01*
X140366980Y-83300733D01*
X140271742Y-83253114D01*
X140128885Y-83253114D01*
X140033647Y-83300733D01*
X139176504Y-83872161D02*
X139271742Y-83919780D01*
X139462219Y-83919780D01*
X139557457Y-83872161D01*
X139605076Y-83776923D01*
X139605076Y-83395971D01*
X139557457Y-83300733D01*
X139462219Y-83253114D01*
X139271742Y-83253114D01*
X139176504Y-83300733D01*
X139128885Y-83395971D01*
X139128885Y-83491209D01*
X139605076Y-83586447D01*
X138843171Y-83253114D02*
X138462219Y-83253114D01*
X138700314Y-82919780D02*
X138700314Y-83776923D01*
X138652695Y-83872161D01*
X138557457Y-83919780D01*
X138462219Y-83919780D01*
G04 #@! TD*
M02*
