M48
;DRILL file {KiCad (5.0.1)-4} date 1/31/2019 5:24:07 PM
;FORMAT={3:3/ absolute / metric / suppress leading zeros}
FMAT,2
METRIC,TZ
T1C0.400
T2C0.813
T3C1.000
T4C2.300
%
G90
G05
M71
T1
X124360Y-78500
X124360Y-112700
X124360Y-146900
X124470Y-85560
X124470Y-119760
X124470Y-153960
X124480Y-80040
X124480Y-114240
X124480Y-148440
X124910Y-89530
X124910Y-123730
X124910Y-157930
X127130Y-75490
X127130Y-109690
X127130Y-143890
X127690Y-85610
X127690Y-119810
X127690Y-154010
X130780Y-92090
X130780Y-126290
X130780Y-160490
X130980Y-85500
X130980Y-119700
X130980Y-153900
X131290Y-94410
X131290Y-128610
X131290Y-162810
X132330Y-75840
X132330Y-110040
X132330Y-144240
X132580Y-82540
X132580Y-116740
X132580Y-150940
X133020Y-88370
X133020Y-122570
X133020Y-156770
X133580Y-94670
X133580Y-128870
X133580Y-163070
X134880Y-85510
X134880Y-119710
X134880Y-153910
X141450Y-88370
X141450Y-122570
X141450Y-156770
X142850Y-92140
X142850Y-126340
X142850Y-160540
X143740Y-79630
X143740Y-113830
X143740Y-148030
X153360Y-78500
X153360Y-112700
X153360Y-146900
X153470Y-85560
X153470Y-119760
X153470Y-153960
X153480Y-80040
X153480Y-114240
X153480Y-148440
X153910Y-89530
X153910Y-123730
X153910Y-157930
X156130Y-75490
X156130Y-109690
X156130Y-143890
X156690Y-85610
X156690Y-119810
X156690Y-154010
X159780Y-92090
X159780Y-126290
X159780Y-160490
X159980Y-85500
X159980Y-119700
X159980Y-153900
X160290Y-94410
X160290Y-128610
X160290Y-162810
X161330Y-75840
X161330Y-110040
X161330Y-144240
X161580Y-82540
X161580Y-116740
X161580Y-150940
X162020Y-88370
X162020Y-122570
X162020Y-156770
X162580Y-94670
X162580Y-128870
X162580Y-163070
X163880Y-85510
X163880Y-119710
X163880Y-153910
X170450Y-88370
X170450Y-122570
X170450Y-156770
X171850Y-92140
X171850Y-126340
X171850Y-160540
X172740Y-79630
X172740Y-113830
X172740Y-148030
X182360Y-78500
X182360Y-112700
X182360Y-146900
X182470Y-85560
X182470Y-119760
X182470Y-153960
X182480Y-80040
X182480Y-114240
X182480Y-148440
X182910Y-89530
X182910Y-123730
X182910Y-157930
X185130Y-75490
X185130Y-109690
X185130Y-143890
X185690Y-85610
X185690Y-119810
X185690Y-154010
X188780Y-92090
X188780Y-126290
X188780Y-160490
X188980Y-85500
X188980Y-119700
X188980Y-153900
X189290Y-94410
X189290Y-128610
X189290Y-162810
X190330Y-75840
X190330Y-110040
X190330Y-144240
X190580Y-82540
X190580Y-116740
X190580Y-150940
X191020Y-88370
X191020Y-122570
X191020Y-156770
X191580Y-94670
X191580Y-128870
X191580Y-163070
X192880Y-85510
X192880Y-119710
X192880Y-153910
X199450Y-88370
X199450Y-122570
X199450Y-156770
X200850Y-92140
X200850Y-126340
X200850Y-160540
X201740Y-79630
X201740Y-113830
X201740Y-148030
T2
X196010Y-111680
X196010Y-119300
X201090Y-111680
X201090Y-119300
X167010Y-145880
X167010Y-153500
X172090Y-145880
X172090Y-153500
X196010Y-77480
X196010Y-85100
X201090Y-77480
X201090Y-85100
X167010Y-111680
X167010Y-119300
X172090Y-111680
X172090Y-119300
X138010Y-77480
X138010Y-85100
X143090Y-77480
X143090Y-85100
X138010Y-145880
X138010Y-153500
X143090Y-145880
X143090Y-153500
X196010Y-145880
X196010Y-153500
X201090Y-145880
X201090Y-153500
X167010Y-77480
X167010Y-85100
X172090Y-77480
X172090Y-85100
X138010Y-111680
X138010Y-119300
X143090Y-111680
X143090Y-119300
T3
X187605Y-90605
X190145Y-90605
X192175Y-90605
X194715Y-90605
X158605Y-124805
X161145Y-124805
X163175Y-124805
X165715Y-124805
X129605Y-159005
X132145Y-159005
X134175Y-159005
X136715Y-159005
X187605Y-159005
X190145Y-159005
X192175Y-159005
X194715Y-159005
X158605Y-90605
X161145Y-90605
X163175Y-90605
X165715Y-90605
X129605Y-124805
X132145Y-124805
X134175Y-124805
X136715Y-124805
X187605Y-124805
X190145Y-124805
X192175Y-124805
X194715Y-124805
X158605Y-159005
X161145Y-159005
X163175Y-159005
X165715Y-159005
X129605Y-90605
X132145Y-90605
X134175Y-90605
X136715Y-90605
T4
X184045Y-93275
X197765Y-93275
X155045Y-127475
X168765Y-127475
X126045Y-161675
X139765Y-161675
X184045Y-161675
X197765Y-161675
X155045Y-93275
X168765Y-93275
X126045Y-127475
X139765Y-127475
X184045Y-127475
X197765Y-127475
X155045Y-161675
X168765Y-161675
X126045Y-93275
X139765Y-93275
T0
M30
