G04 #@! TF.GenerationSoftware,KiCad,Pcbnew,(5.0.1)-4*
G04 #@! TF.CreationDate,2019-01-31T17:22:40-08:00*
G04 #@! TF.ProjectId,programing_adapter,70726F6772616D696E675F6164617074,rev?*
G04 #@! TF.SameCoordinates,Original*
G04 #@! TF.FileFunction,Paste,Top*
G04 #@! TF.FilePolarity,Positive*
%FSLAX46Y46*%
G04 Gerber Fmt 4.6, Leading zero omitted, Abs format (unit mm)*
G04 Created by KiCad (PCBNEW (5.0.1)-4) date 1/31/2019 5:22:40 PM*
%MOMM*%
%LPD*%
G01*
G04 APERTURE LIST*
%ADD10R,0.762000X2.921000*%
G04 APERTURE END LIST*
D10*
G04 #@! TO.C,J1*
X187680000Y-150945500D03*
X188950000Y-150945500D03*
X186410000Y-150945500D03*
X185140000Y-150945500D03*
X183870000Y-150945500D03*
X188950000Y-146754500D03*
X187680000Y-146754500D03*
X186410000Y-146754500D03*
X185140000Y-146754500D03*
X183870000Y-146754500D03*
G04 #@! TD*
G04 #@! TO.C,J1*
X158680000Y-150945500D03*
X159950000Y-150945500D03*
X157410000Y-150945500D03*
X156140000Y-150945500D03*
X154870000Y-150945500D03*
X159950000Y-146754500D03*
X158680000Y-146754500D03*
X157410000Y-146754500D03*
X156140000Y-146754500D03*
X154870000Y-146754500D03*
G04 #@! TD*
G04 #@! TO.C,J1*
X129680000Y-150945500D03*
X130950000Y-150945500D03*
X128410000Y-150945500D03*
X127140000Y-150945500D03*
X125870000Y-150945500D03*
X130950000Y-146754500D03*
X129680000Y-146754500D03*
X128410000Y-146754500D03*
X127140000Y-146754500D03*
X125870000Y-146754500D03*
G04 #@! TD*
G04 #@! TO.C,J1*
X187680000Y-116745500D03*
X188950000Y-116745500D03*
X186410000Y-116745500D03*
X185140000Y-116745500D03*
X183870000Y-116745500D03*
X188950000Y-112554500D03*
X187680000Y-112554500D03*
X186410000Y-112554500D03*
X185140000Y-112554500D03*
X183870000Y-112554500D03*
G04 #@! TD*
G04 #@! TO.C,J1*
X158680000Y-116745500D03*
X159950000Y-116745500D03*
X157410000Y-116745500D03*
X156140000Y-116745500D03*
X154870000Y-116745500D03*
X159950000Y-112554500D03*
X158680000Y-112554500D03*
X157410000Y-112554500D03*
X156140000Y-112554500D03*
X154870000Y-112554500D03*
G04 #@! TD*
G04 #@! TO.C,J1*
X129680000Y-116745500D03*
X130950000Y-116745500D03*
X128410000Y-116745500D03*
X127140000Y-116745500D03*
X125870000Y-116745500D03*
X130950000Y-112554500D03*
X129680000Y-112554500D03*
X128410000Y-112554500D03*
X127140000Y-112554500D03*
X125870000Y-112554500D03*
G04 #@! TD*
G04 #@! TO.C,J1*
X187680000Y-82545500D03*
X188950000Y-82545500D03*
X186410000Y-82545500D03*
X185140000Y-82545500D03*
X183870000Y-82545500D03*
X188950000Y-78354500D03*
X187680000Y-78354500D03*
X186410000Y-78354500D03*
X185140000Y-78354500D03*
X183870000Y-78354500D03*
G04 #@! TD*
G04 #@! TO.C,J1*
X158680000Y-82545500D03*
X159950000Y-82545500D03*
X157410000Y-82545500D03*
X156140000Y-82545500D03*
X154870000Y-82545500D03*
X159950000Y-78354500D03*
X158680000Y-78354500D03*
X157410000Y-78354500D03*
X156140000Y-78354500D03*
X154870000Y-78354500D03*
G04 #@! TD*
G04 #@! TO.C,J1*
X125870000Y-78354500D03*
X127140000Y-78354500D03*
X128410000Y-78354500D03*
X129680000Y-78354500D03*
X130950000Y-78354500D03*
X125870000Y-82545500D03*
X127140000Y-82545500D03*
X128410000Y-82545500D03*
X130950000Y-82545500D03*
X129680000Y-82545500D03*
G04 #@! TD*
M02*
