G04 #@! TF.GenerationSoftware,KiCad,Pcbnew,(5.0.1)-4*
G04 #@! TF.CreationDate,2019-01-31T17:22:40-08:00*
G04 #@! TF.ProjectId,programing_adapter,70726F6772616D696E675F6164617074,rev?*
G04 #@! TF.SameCoordinates,Original*
G04 #@! TF.FileFunction,Soldermask,Bot*
G04 #@! TF.FilePolarity,Negative*
%FSLAX46Y46*%
G04 Gerber Fmt 4.6, Leading zero omitted, Abs format (unit mm)*
G04 Created by KiCad (PCBNEW (5.0.1)-4) date 1/31/2019 5:22:40 PM*
%MOMM*%
%LPD*%
G01*
G04 APERTURE LIST*
%ADD10C,0.020000*%
G04 APERTURE END LIST*
D10*
G36*
X190596565Y-164539389D02*
X190787834Y-164618615D01*
X190959976Y-164733637D01*
X191106363Y-164880024D01*
X191221385Y-165052166D01*
X191300611Y-165243435D01*
X191341000Y-165446484D01*
X191341000Y-165653516D01*
X191300611Y-165856565D01*
X191221385Y-166047834D01*
X191106363Y-166219976D01*
X190959976Y-166366363D01*
X190787834Y-166481385D01*
X190596565Y-166560611D01*
X190393516Y-166601000D01*
X190186484Y-166601000D01*
X189983435Y-166560611D01*
X189792166Y-166481385D01*
X189620024Y-166366363D01*
X189473637Y-166219976D01*
X189358615Y-166047834D01*
X189279389Y-165856565D01*
X189239000Y-165653516D01*
X189239000Y-165446484D01*
X189279389Y-165243435D01*
X189358615Y-165052166D01*
X189473637Y-164880024D01*
X189620024Y-164733637D01*
X189792166Y-164618615D01*
X189983435Y-164539389D01*
X190186484Y-164499000D01*
X190393516Y-164499000D01*
X190596565Y-164539389D01*
X190596565Y-164539389D01*
G37*
G36*
X132596565Y-164539389D02*
X132787834Y-164618615D01*
X132959976Y-164733637D01*
X133106363Y-164880024D01*
X133221385Y-165052166D01*
X133300611Y-165243435D01*
X133341000Y-165446484D01*
X133341000Y-165653516D01*
X133300611Y-165856565D01*
X133221385Y-166047834D01*
X133106363Y-166219976D01*
X132959976Y-166366363D01*
X132787834Y-166481385D01*
X132596565Y-166560611D01*
X132393516Y-166601000D01*
X132186484Y-166601000D01*
X131983435Y-166560611D01*
X131792166Y-166481385D01*
X131620024Y-166366363D01*
X131473637Y-166219976D01*
X131358615Y-166047834D01*
X131279389Y-165856565D01*
X131239000Y-165653516D01*
X131239000Y-165446484D01*
X131279389Y-165243435D01*
X131358615Y-165052166D01*
X131473637Y-164880024D01*
X131620024Y-164733637D01*
X131792166Y-164618615D01*
X131983435Y-164539389D01*
X132186484Y-164499000D01*
X132393516Y-164499000D01*
X132596565Y-164539389D01*
X132596565Y-164539389D01*
G37*
G36*
X161596565Y-164539389D02*
X161787834Y-164618615D01*
X161959976Y-164733637D01*
X162106363Y-164880024D01*
X162221385Y-165052166D01*
X162300611Y-165243435D01*
X162341000Y-165446484D01*
X162341000Y-165653516D01*
X162300611Y-165856565D01*
X162221385Y-166047834D01*
X162106363Y-166219976D01*
X161959976Y-166366363D01*
X161787834Y-166481385D01*
X161596565Y-166560611D01*
X161393516Y-166601000D01*
X161186484Y-166601000D01*
X160983435Y-166560611D01*
X160792166Y-166481385D01*
X160620024Y-166366363D01*
X160473637Y-166219976D01*
X160358615Y-166047834D01*
X160279389Y-165856565D01*
X160239000Y-165653516D01*
X160239000Y-165446484D01*
X160279389Y-165243435D01*
X160358615Y-165052166D01*
X160473637Y-164880024D01*
X160620024Y-164733637D01*
X160792166Y-164618615D01*
X160983435Y-164539389D01*
X161186484Y-164499000D01*
X161393516Y-164499000D01*
X161596565Y-164539389D01*
X161596565Y-164539389D01*
G37*
G36*
X136376565Y-162649389D02*
X136567834Y-162728615D01*
X136739976Y-162843637D01*
X136886363Y-162990024D01*
X137001385Y-163162166D01*
X137080611Y-163353435D01*
X137121000Y-163556484D01*
X137121000Y-163763516D01*
X137080611Y-163966565D01*
X137001385Y-164157834D01*
X136886363Y-164329976D01*
X136739976Y-164476363D01*
X136567834Y-164591385D01*
X136376565Y-164670611D01*
X136173516Y-164711000D01*
X135966484Y-164711000D01*
X135763435Y-164670611D01*
X135572166Y-164591385D01*
X135400024Y-164476363D01*
X135253637Y-164329976D01*
X135138615Y-164157834D01*
X135059389Y-163966565D01*
X135019000Y-163763516D01*
X135019000Y-163556484D01*
X135059389Y-163353435D01*
X135138615Y-163162166D01*
X135253637Y-162990024D01*
X135400024Y-162843637D01*
X135572166Y-162728615D01*
X135763435Y-162649389D01*
X135966484Y-162609000D01*
X136173516Y-162609000D01*
X136376565Y-162649389D01*
X136376565Y-162649389D01*
G37*
G36*
X165376565Y-162649389D02*
X165567834Y-162728615D01*
X165739976Y-162843637D01*
X165886363Y-162990024D01*
X166001385Y-163162166D01*
X166080611Y-163353435D01*
X166121000Y-163556484D01*
X166121000Y-163763516D01*
X166080611Y-163966565D01*
X166001385Y-164157834D01*
X165886363Y-164329976D01*
X165739976Y-164476363D01*
X165567834Y-164591385D01*
X165376565Y-164670611D01*
X165173516Y-164711000D01*
X164966484Y-164711000D01*
X164763435Y-164670611D01*
X164572166Y-164591385D01*
X164400024Y-164476363D01*
X164253637Y-164329976D01*
X164138615Y-164157834D01*
X164059389Y-163966565D01*
X164019000Y-163763516D01*
X164019000Y-163556484D01*
X164059389Y-163353435D01*
X164138615Y-163162166D01*
X164253637Y-162990024D01*
X164400024Y-162843637D01*
X164572166Y-162728615D01*
X164763435Y-162649389D01*
X164966484Y-162609000D01*
X165173516Y-162609000D01*
X165376565Y-162649389D01*
X165376565Y-162649389D01*
G37*
G36*
X194376565Y-162649389D02*
X194567834Y-162728615D01*
X194739976Y-162843637D01*
X194886363Y-162990024D01*
X195001385Y-163162166D01*
X195080611Y-163353435D01*
X195121000Y-163556484D01*
X195121000Y-163763516D01*
X195080611Y-163966565D01*
X195001385Y-164157834D01*
X194886363Y-164329976D01*
X194739976Y-164476363D01*
X194567834Y-164591385D01*
X194376565Y-164670611D01*
X194173516Y-164711000D01*
X193966484Y-164711000D01*
X193763435Y-164670611D01*
X193572166Y-164591385D01*
X193400024Y-164476363D01*
X193253637Y-164329976D01*
X193138615Y-164157834D01*
X193059389Y-163966565D01*
X193019000Y-163763516D01*
X193019000Y-163556484D01*
X193059389Y-163353435D01*
X193138615Y-163162166D01*
X193253637Y-162990024D01*
X193400024Y-162843637D01*
X193572166Y-162728615D01*
X193763435Y-162649389D01*
X193966484Y-162609000D01*
X194173516Y-162609000D01*
X194376565Y-162649389D01*
X194376565Y-162649389D01*
G37*
G36*
X187706565Y-162629389D02*
X187897834Y-162708615D01*
X188069976Y-162823637D01*
X188216363Y-162970024D01*
X188331385Y-163142166D01*
X188410611Y-163333435D01*
X188451000Y-163536484D01*
X188451000Y-163743516D01*
X188410611Y-163946565D01*
X188331385Y-164137834D01*
X188216363Y-164309976D01*
X188069976Y-164456363D01*
X187897834Y-164571385D01*
X187706565Y-164650611D01*
X187503516Y-164691000D01*
X187296484Y-164691000D01*
X187093435Y-164650611D01*
X186902166Y-164571385D01*
X186730024Y-164456363D01*
X186583637Y-164309976D01*
X186468615Y-164137834D01*
X186389389Y-163946565D01*
X186349000Y-163743516D01*
X186349000Y-163536484D01*
X186389389Y-163333435D01*
X186468615Y-163142166D01*
X186583637Y-162970024D01*
X186730024Y-162823637D01*
X186902166Y-162708615D01*
X187093435Y-162629389D01*
X187296484Y-162589000D01*
X187503516Y-162589000D01*
X187706565Y-162629389D01*
X187706565Y-162629389D01*
G37*
G36*
X129706565Y-162629389D02*
X129897834Y-162708615D01*
X130069976Y-162823637D01*
X130216363Y-162970024D01*
X130331385Y-163142166D01*
X130410611Y-163333435D01*
X130451000Y-163536484D01*
X130451000Y-163743516D01*
X130410611Y-163946565D01*
X130331385Y-164137834D01*
X130216363Y-164309976D01*
X130069976Y-164456363D01*
X129897834Y-164571385D01*
X129706565Y-164650611D01*
X129503516Y-164691000D01*
X129296484Y-164691000D01*
X129093435Y-164650611D01*
X128902166Y-164571385D01*
X128730024Y-164456363D01*
X128583637Y-164309976D01*
X128468615Y-164137834D01*
X128389389Y-163946565D01*
X128349000Y-163743516D01*
X128349000Y-163536484D01*
X128389389Y-163333435D01*
X128468615Y-163142166D01*
X128583637Y-162970024D01*
X128730024Y-162823637D01*
X128902166Y-162708615D01*
X129093435Y-162629389D01*
X129296484Y-162589000D01*
X129503516Y-162589000D01*
X129706565Y-162629389D01*
X129706565Y-162629389D01*
G37*
G36*
X158706565Y-162629389D02*
X158897834Y-162708615D01*
X159069976Y-162823637D01*
X159216363Y-162970024D01*
X159331385Y-163142166D01*
X159410611Y-163333435D01*
X159451000Y-163536484D01*
X159451000Y-163743516D01*
X159410611Y-163946565D01*
X159331385Y-164137834D01*
X159216363Y-164309976D01*
X159069976Y-164456363D01*
X158897834Y-164571385D01*
X158706565Y-164650611D01*
X158503516Y-164691000D01*
X158296484Y-164691000D01*
X158093435Y-164650611D01*
X157902166Y-164571385D01*
X157730024Y-164456363D01*
X157583637Y-164309976D01*
X157468615Y-164137834D01*
X157389389Y-163946565D01*
X157349000Y-163743516D01*
X157349000Y-163536484D01*
X157389389Y-163333435D01*
X157468615Y-163142166D01*
X157583637Y-162970024D01*
X157730024Y-162823637D01*
X157902166Y-162708615D01*
X158093435Y-162629389D01*
X158296484Y-162589000D01*
X158503516Y-162589000D01*
X158706565Y-162629389D01*
X158706565Y-162629389D01*
G37*
G36*
X140117528Y-160163737D02*
X140217411Y-160183605D01*
X140499675Y-160300522D01*
X140753706Y-160470260D01*
X140969742Y-160686296D01*
X141139480Y-160940327D01*
X141256397Y-161222591D01*
X141316001Y-161522241D01*
X141316001Y-161827761D01*
X141256397Y-162127411D01*
X141139480Y-162409675D01*
X140969742Y-162663706D01*
X140753706Y-162879742D01*
X140499675Y-163049480D01*
X140217411Y-163166397D01*
X140117528Y-163186265D01*
X139917763Y-163226001D01*
X139612239Y-163226001D01*
X139412474Y-163186265D01*
X139312591Y-163166397D01*
X139030327Y-163049480D01*
X138776296Y-162879742D01*
X138560260Y-162663706D01*
X138390522Y-162409675D01*
X138273605Y-162127411D01*
X138214001Y-161827761D01*
X138214001Y-161522241D01*
X138273605Y-161222591D01*
X138390522Y-160940327D01*
X138560260Y-160686296D01*
X138776296Y-160470260D01*
X139030327Y-160300522D01*
X139312591Y-160183605D01*
X139412474Y-160163737D01*
X139612239Y-160124001D01*
X139917763Y-160124001D01*
X140117528Y-160163737D01*
X140117528Y-160163737D01*
G37*
G36*
X184397528Y-160163737D02*
X184497411Y-160183605D01*
X184779675Y-160300522D01*
X185033706Y-160470260D01*
X185249742Y-160686296D01*
X185419480Y-160940327D01*
X185536397Y-161222591D01*
X185596001Y-161522241D01*
X185596001Y-161827761D01*
X185536397Y-162127411D01*
X185419480Y-162409675D01*
X185249742Y-162663706D01*
X185033706Y-162879742D01*
X184779675Y-163049480D01*
X184497411Y-163166397D01*
X184397528Y-163186265D01*
X184197763Y-163226001D01*
X183892239Y-163226001D01*
X183692474Y-163186265D01*
X183592591Y-163166397D01*
X183310327Y-163049480D01*
X183056296Y-162879742D01*
X182840260Y-162663706D01*
X182670522Y-162409675D01*
X182553605Y-162127411D01*
X182494001Y-161827761D01*
X182494001Y-161522241D01*
X182553605Y-161222591D01*
X182670522Y-160940327D01*
X182840260Y-160686296D01*
X183056296Y-160470260D01*
X183310327Y-160300522D01*
X183592591Y-160183605D01*
X183692474Y-160163737D01*
X183892239Y-160124001D01*
X184197763Y-160124001D01*
X184397528Y-160163737D01*
X184397528Y-160163737D01*
G37*
G36*
X169117528Y-160163737D02*
X169217411Y-160183605D01*
X169499675Y-160300522D01*
X169753706Y-160470260D01*
X169969742Y-160686296D01*
X170139480Y-160940327D01*
X170256397Y-161222591D01*
X170316001Y-161522241D01*
X170316001Y-161827761D01*
X170256397Y-162127411D01*
X170139480Y-162409675D01*
X169969742Y-162663706D01*
X169753706Y-162879742D01*
X169499675Y-163049480D01*
X169217411Y-163166397D01*
X169117528Y-163186265D01*
X168917763Y-163226001D01*
X168612239Y-163226001D01*
X168412474Y-163186265D01*
X168312591Y-163166397D01*
X168030327Y-163049480D01*
X167776296Y-162879742D01*
X167560260Y-162663706D01*
X167390522Y-162409675D01*
X167273605Y-162127411D01*
X167214001Y-161827761D01*
X167214001Y-161522241D01*
X167273605Y-161222591D01*
X167390522Y-160940327D01*
X167560260Y-160686296D01*
X167776296Y-160470260D01*
X168030327Y-160300522D01*
X168312591Y-160183605D01*
X168412474Y-160163737D01*
X168612239Y-160124001D01*
X168917763Y-160124001D01*
X169117528Y-160163737D01*
X169117528Y-160163737D01*
G37*
G36*
X155397528Y-160163737D02*
X155497411Y-160183605D01*
X155779675Y-160300522D01*
X156033706Y-160470260D01*
X156249742Y-160686296D01*
X156419480Y-160940327D01*
X156536397Y-161222591D01*
X156596001Y-161522241D01*
X156596001Y-161827761D01*
X156536397Y-162127411D01*
X156419480Y-162409675D01*
X156249742Y-162663706D01*
X156033706Y-162879742D01*
X155779675Y-163049480D01*
X155497411Y-163166397D01*
X155397528Y-163186265D01*
X155197763Y-163226001D01*
X154892239Y-163226001D01*
X154692474Y-163186265D01*
X154592591Y-163166397D01*
X154310327Y-163049480D01*
X154056296Y-162879742D01*
X153840260Y-162663706D01*
X153670522Y-162409675D01*
X153553605Y-162127411D01*
X153494001Y-161827761D01*
X153494001Y-161522241D01*
X153553605Y-161222591D01*
X153670522Y-160940327D01*
X153840260Y-160686296D01*
X154056296Y-160470260D01*
X154310327Y-160300522D01*
X154592591Y-160183605D01*
X154692474Y-160163737D01*
X154892239Y-160124001D01*
X155197763Y-160124001D01*
X155397528Y-160163737D01*
X155397528Y-160163737D01*
G37*
G36*
X126397528Y-160163737D02*
X126497411Y-160183605D01*
X126779675Y-160300522D01*
X127033706Y-160470260D01*
X127249742Y-160686296D01*
X127419480Y-160940327D01*
X127536397Y-161222591D01*
X127596001Y-161522241D01*
X127596001Y-161827761D01*
X127536397Y-162127411D01*
X127419480Y-162409675D01*
X127249742Y-162663706D01*
X127033706Y-162879742D01*
X126779675Y-163049480D01*
X126497411Y-163166397D01*
X126397528Y-163186265D01*
X126197763Y-163226001D01*
X125892239Y-163226001D01*
X125692474Y-163186265D01*
X125592591Y-163166397D01*
X125310327Y-163049480D01*
X125056296Y-162879742D01*
X124840260Y-162663706D01*
X124670522Y-162409675D01*
X124553605Y-162127411D01*
X124494001Y-161827761D01*
X124494001Y-161522241D01*
X124553605Y-161222591D01*
X124670522Y-160940327D01*
X124840260Y-160686296D01*
X125056296Y-160470260D01*
X125310327Y-160300522D01*
X125592591Y-160183605D01*
X125692474Y-160163737D01*
X125892239Y-160124001D01*
X126197763Y-160124001D01*
X126397528Y-160163737D01*
X126397528Y-160163737D01*
G37*
G36*
X198117528Y-160163737D02*
X198217411Y-160183605D01*
X198499675Y-160300522D01*
X198753706Y-160470260D01*
X198969742Y-160686296D01*
X199139480Y-160940327D01*
X199256397Y-161222591D01*
X199316001Y-161522241D01*
X199316001Y-161827761D01*
X199256397Y-162127411D01*
X199139480Y-162409675D01*
X198969742Y-162663706D01*
X198753706Y-162879742D01*
X198499675Y-163049480D01*
X198217411Y-163166397D01*
X198117528Y-163186265D01*
X197917763Y-163226001D01*
X197612239Y-163226001D01*
X197412474Y-163186265D01*
X197312591Y-163166397D01*
X197030327Y-163049480D01*
X196776296Y-162879742D01*
X196560260Y-162663706D01*
X196390522Y-162409675D01*
X196273605Y-162127411D01*
X196214001Y-161827761D01*
X196214001Y-161522241D01*
X196273605Y-161222591D01*
X196390522Y-160940327D01*
X196560260Y-160686296D01*
X196776296Y-160470260D01*
X197030327Y-160300522D01*
X197312591Y-160183605D01*
X197412474Y-160163737D01*
X197612239Y-160124001D01*
X197917763Y-160124001D01*
X198117528Y-160163737D01*
X198117528Y-160163737D01*
G37*
G36*
X190378644Y-158234782D02*
X190524416Y-158295163D01*
X190655612Y-158382825D01*
X190767177Y-158494390D01*
X190854839Y-158625586D01*
X190915220Y-158771358D01*
X190946001Y-158926108D01*
X190946001Y-159083894D01*
X190915220Y-159238644D01*
X190854839Y-159384416D01*
X190767177Y-159515612D01*
X190655612Y-159627177D01*
X190524416Y-159714839D01*
X190378644Y-159775220D01*
X190223894Y-159806001D01*
X190066108Y-159806001D01*
X189911358Y-159775220D01*
X189765586Y-159714839D01*
X189634390Y-159627177D01*
X189522825Y-159515612D01*
X189435163Y-159384416D01*
X189374782Y-159238644D01*
X189344001Y-159083894D01*
X189344001Y-158926108D01*
X189374782Y-158771358D01*
X189435163Y-158625586D01*
X189522825Y-158494390D01*
X189634390Y-158382825D01*
X189765586Y-158295163D01*
X189911358Y-158234782D01*
X190066108Y-158204001D01*
X190223894Y-158204001D01*
X190378644Y-158234782D01*
X190378644Y-158234782D01*
G37*
G36*
X129838644Y-158234782D02*
X129984416Y-158295163D01*
X130115612Y-158382825D01*
X130227177Y-158494390D01*
X130314839Y-158625586D01*
X130375220Y-158771358D01*
X130406001Y-158926108D01*
X130406001Y-159083894D01*
X130375220Y-159238644D01*
X130314839Y-159384416D01*
X130227177Y-159515612D01*
X130115612Y-159627177D01*
X129984416Y-159714839D01*
X129838644Y-159775220D01*
X129683894Y-159806001D01*
X129526108Y-159806001D01*
X129371358Y-159775220D01*
X129225586Y-159714839D01*
X129094390Y-159627177D01*
X128982825Y-159515612D01*
X128895163Y-159384416D01*
X128834782Y-159238644D01*
X128804001Y-159083894D01*
X128804001Y-158926108D01*
X128834782Y-158771358D01*
X128895163Y-158625586D01*
X128982825Y-158494390D01*
X129094390Y-158382825D01*
X129225586Y-158295163D01*
X129371358Y-158234782D01*
X129526108Y-158204001D01*
X129683894Y-158204001D01*
X129838644Y-158234782D01*
X129838644Y-158234782D01*
G37*
G36*
X132378644Y-158234782D02*
X132524416Y-158295163D01*
X132655612Y-158382825D01*
X132767177Y-158494390D01*
X132854839Y-158625586D01*
X132915220Y-158771358D01*
X132946001Y-158926108D01*
X132946001Y-159083894D01*
X132915220Y-159238644D01*
X132854839Y-159384416D01*
X132767177Y-159515612D01*
X132655612Y-159627177D01*
X132524416Y-159714839D01*
X132378644Y-159775220D01*
X132223894Y-159806001D01*
X132066108Y-159806001D01*
X131911358Y-159775220D01*
X131765586Y-159714839D01*
X131634390Y-159627177D01*
X131522825Y-159515612D01*
X131435163Y-159384416D01*
X131374782Y-159238644D01*
X131344001Y-159083894D01*
X131344001Y-158926108D01*
X131374782Y-158771358D01*
X131435163Y-158625586D01*
X131522825Y-158494390D01*
X131634390Y-158382825D01*
X131765586Y-158295163D01*
X131911358Y-158234782D01*
X132066108Y-158204001D01*
X132223894Y-158204001D01*
X132378644Y-158234782D01*
X132378644Y-158234782D01*
G37*
G36*
X134408644Y-158234782D02*
X134554416Y-158295163D01*
X134685612Y-158382825D01*
X134797177Y-158494390D01*
X134884839Y-158625586D01*
X134945220Y-158771358D01*
X134976001Y-158926108D01*
X134976001Y-159083894D01*
X134945220Y-159238644D01*
X134884839Y-159384416D01*
X134797177Y-159515612D01*
X134685612Y-159627177D01*
X134554416Y-159714839D01*
X134408644Y-159775220D01*
X134253894Y-159806001D01*
X134096108Y-159806001D01*
X133941358Y-159775220D01*
X133795586Y-159714839D01*
X133664390Y-159627177D01*
X133552825Y-159515612D01*
X133465163Y-159384416D01*
X133404782Y-159238644D01*
X133374001Y-159083894D01*
X133374001Y-158926108D01*
X133404782Y-158771358D01*
X133465163Y-158625586D01*
X133552825Y-158494390D01*
X133664390Y-158382825D01*
X133795586Y-158295163D01*
X133941358Y-158234782D01*
X134096108Y-158204001D01*
X134253894Y-158204001D01*
X134408644Y-158234782D01*
X134408644Y-158234782D01*
G37*
G36*
X136948644Y-158234782D02*
X137094416Y-158295163D01*
X137225612Y-158382825D01*
X137337177Y-158494390D01*
X137424839Y-158625586D01*
X137485220Y-158771358D01*
X137516001Y-158926108D01*
X137516001Y-159083894D01*
X137485220Y-159238644D01*
X137424839Y-159384416D01*
X137337177Y-159515612D01*
X137225612Y-159627177D01*
X137094416Y-159714839D01*
X136948644Y-159775220D01*
X136793894Y-159806001D01*
X136636108Y-159806001D01*
X136481358Y-159775220D01*
X136335586Y-159714839D01*
X136204390Y-159627177D01*
X136092825Y-159515612D01*
X136005163Y-159384416D01*
X135944782Y-159238644D01*
X135914001Y-159083894D01*
X135914001Y-158926108D01*
X135944782Y-158771358D01*
X136005163Y-158625586D01*
X136092825Y-158494390D01*
X136204390Y-158382825D01*
X136335586Y-158295163D01*
X136481358Y-158234782D01*
X136636108Y-158204001D01*
X136793894Y-158204001D01*
X136948644Y-158234782D01*
X136948644Y-158234782D01*
G37*
G36*
X158838644Y-158234782D02*
X158984416Y-158295163D01*
X159115612Y-158382825D01*
X159227177Y-158494390D01*
X159314839Y-158625586D01*
X159375220Y-158771358D01*
X159406001Y-158926108D01*
X159406001Y-159083894D01*
X159375220Y-159238644D01*
X159314839Y-159384416D01*
X159227177Y-159515612D01*
X159115612Y-159627177D01*
X158984416Y-159714839D01*
X158838644Y-159775220D01*
X158683894Y-159806001D01*
X158526108Y-159806001D01*
X158371358Y-159775220D01*
X158225586Y-159714839D01*
X158094390Y-159627177D01*
X157982825Y-159515612D01*
X157895163Y-159384416D01*
X157834782Y-159238644D01*
X157804001Y-159083894D01*
X157804001Y-158926108D01*
X157834782Y-158771358D01*
X157895163Y-158625586D01*
X157982825Y-158494390D01*
X158094390Y-158382825D01*
X158225586Y-158295163D01*
X158371358Y-158234782D01*
X158526108Y-158204001D01*
X158683894Y-158204001D01*
X158838644Y-158234782D01*
X158838644Y-158234782D01*
G37*
G36*
X161378644Y-158234782D02*
X161524416Y-158295163D01*
X161655612Y-158382825D01*
X161767177Y-158494390D01*
X161854839Y-158625586D01*
X161915220Y-158771358D01*
X161946001Y-158926108D01*
X161946001Y-159083894D01*
X161915220Y-159238644D01*
X161854839Y-159384416D01*
X161767177Y-159515612D01*
X161655612Y-159627177D01*
X161524416Y-159714839D01*
X161378644Y-159775220D01*
X161223894Y-159806001D01*
X161066108Y-159806001D01*
X160911358Y-159775220D01*
X160765586Y-159714839D01*
X160634390Y-159627177D01*
X160522825Y-159515612D01*
X160435163Y-159384416D01*
X160374782Y-159238644D01*
X160344001Y-159083894D01*
X160344001Y-158926108D01*
X160374782Y-158771358D01*
X160435163Y-158625586D01*
X160522825Y-158494390D01*
X160634390Y-158382825D01*
X160765586Y-158295163D01*
X160911358Y-158234782D01*
X161066108Y-158204001D01*
X161223894Y-158204001D01*
X161378644Y-158234782D01*
X161378644Y-158234782D01*
G37*
G36*
X163408644Y-158234782D02*
X163554416Y-158295163D01*
X163685612Y-158382825D01*
X163797177Y-158494390D01*
X163884839Y-158625586D01*
X163945220Y-158771358D01*
X163976001Y-158926108D01*
X163976001Y-159083894D01*
X163945220Y-159238644D01*
X163884839Y-159384416D01*
X163797177Y-159515612D01*
X163685612Y-159627177D01*
X163554416Y-159714839D01*
X163408644Y-159775220D01*
X163253894Y-159806001D01*
X163096108Y-159806001D01*
X162941358Y-159775220D01*
X162795586Y-159714839D01*
X162664390Y-159627177D01*
X162552825Y-159515612D01*
X162465163Y-159384416D01*
X162404782Y-159238644D01*
X162374001Y-159083894D01*
X162374001Y-158926108D01*
X162404782Y-158771358D01*
X162465163Y-158625586D01*
X162552825Y-158494390D01*
X162664390Y-158382825D01*
X162795586Y-158295163D01*
X162941358Y-158234782D01*
X163096108Y-158204001D01*
X163253894Y-158204001D01*
X163408644Y-158234782D01*
X163408644Y-158234782D01*
G37*
G36*
X165948644Y-158234782D02*
X166094416Y-158295163D01*
X166225612Y-158382825D01*
X166337177Y-158494390D01*
X166424839Y-158625586D01*
X166485220Y-158771358D01*
X166516001Y-158926108D01*
X166516001Y-159083894D01*
X166485220Y-159238644D01*
X166424839Y-159384416D01*
X166337177Y-159515612D01*
X166225612Y-159627177D01*
X166094416Y-159714839D01*
X165948644Y-159775220D01*
X165793894Y-159806001D01*
X165636108Y-159806001D01*
X165481358Y-159775220D01*
X165335586Y-159714839D01*
X165204390Y-159627177D01*
X165092825Y-159515612D01*
X165005163Y-159384416D01*
X164944782Y-159238644D01*
X164914001Y-159083894D01*
X164914001Y-158926108D01*
X164944782Y-158771358D01*
X165005163Y-158625586D01*
X165092825Y-158494390D01*
X165204390Y-158382825D01*
X165335586Y-158295163D01*
X165481358Y-158234782D01*
X165636108Y-158204001D01*
X165793894Y-158204001D01*
X165948644Y-158234782D01*
X165948644Y-158234782D01*
G37*
G36*
X194948644Y-158234782D02*
X195094416Y-158295163D01*
X195225612Y-158382825D01*
X195337177Y-158494390D01*
X195424839Y-158625586D01*
X195485220Y-158771358D01*
X195516001Y-158926108D01*
X195516001Y-159083894D01*
X195485220Y-159238644D01*
X195424839Y-159384416D01*
X195337177Y-159515612D01*
X195225612Y-159627177D01*
X195094416Y-159714839D01*
X194948644Y-159775220D01*
X194793894Y-159806001D01*
X194636108Y-159806001D01*
X194481358Y-159775220D01*
X194335586Y-159714839D01*
X194204390Y-159627177D01*
X194092825Y-159515612D01*
X194005163Y-159384416D01*
X193944782Y-159238644D01*
X193914001Y-159083894D01*
X193914001Y-158926108D01*
X193944782Y-158771358D01*
X194005163Y-158625586D01*
X194092825Y-158494390D01*
X194204390Y-158382825D01*
X194335586Y-158295163D01*
X194481358Y-158234782D01*
X194636108Y-158204001D01*
X194793894Y-158204001D01*
X194948644Y-158234782D01*
X194948644Y-158234782D01*
G37*
G36*
X187838644Y-158234782D02*
X187984416Y-158295163D01*
X188115612Y-158382825D01*
X188227177Y-158494390D01*
X188314839Y-158625586D01*
X188375220Y-158771358D01*
X188406001Y-158926108D01*
X188406001Y-159083894D01*
X188375220Y-159238644D01*
X188314839Y-159384416D01*
X188227177Y-159515612D01*
X188115612Y-159627177D01*
X187984416Y-159714839D01*
X187838644Y-159775220D01*
X187683894Y-159806001D01*
X187526108Y-159806001D01*
X187371358Y-159775220D01*
X187225586Y-159714839D01*
X187094390Y-159627177D01*
X186982825Y-159515612D01*
X186895163Y-159384416D01*
X186834782Y-159238644D01*
X186804001Y-159083894D01*
X186804001Y-158926108D01*
X186834782Y-158771358D01*
X186895163Y-158625586D01*
X186982825Y-158494390D01*
X187094390Y-158382825D01*
X187225586Y-158295163D01*
X187371358Y-158234782D01*
X187526108Y-158204001D01*
X187683894Y-158204001D01*
X187838644Y-158234782D01*
X187838644Y-158234782D01*
G37*
G36*
X192408644Y-158234782D02*
X192554416Y-158295163D01*
X192685612Y-158382825D01*
X192797177Y-158494390D01*
X192884839Y-158625586D01*
X192945220Y-158771358D01*
X192976001Y-158926108D01*
X192976001Y-159083894D01*
X192945220Y-159238644D01*
X192884839Y-159384416D01*
X192797177Y-159515612D01*
X192685612Y-159627177D01*
X192554416Y-159714839D01*
X192408644Y-159775220D01*
X192253894Y-159806001D01*
X192096108Y-159806001D01*
X191941358Y-159775220D01*
X191795586Y-159714839D01*
X191664390Y-159627177D01*
X191552825Y-159515612D01*
X191465163Y-159384416D01*
X191404782Y-159238644D01*
X191374001Y-159083894D01*
X191374001Y-158926108D01*
X191404782Y-158771358D01*
X191465163Y-158625586D01*
X191552825Y-158494390D01*
X191664390Y-158382825D01*
X191795586Y-158295163D01*
X191941358Y-158234782D01*
X192096108Y-158204001D01*
X192253894Y-158204001D01*
X192408644Y-158234782D01*
X192408644Y-158234782D01*
G37*
G36*
X156506565Y-155089389D02*
X156697834Y-155168615D01*
X156869976Y-155283637D01*
X157016363Y-155430024D01*
X157131385Y-155602166D01*
X157210611Y-155793435D01*
X157251000Y-155996484D01*
X157251000Y-156203516D01*
X157210611Y-156406565D01*
X157131385Y-156597834D01*
X157016363Y-156769976D01*
X156869976Y-156916363D01*
X156697834Y-157031385D01*
X156506565Y-157110611D01*
X156303516Y-157151000D01*
X156096484Y-157151000D01*
X155893435Y-157110611D01*
X155702166Y-157031385D01*
X155530024Y-156916363D01*
X155383637Y-156769976D01*
X155268615Y-156597834D01*
X155189389Y-156406565D01*
X155149000Y-156203516D01*
X155149000Y-155996484D01*
X155189389Y-155793435D01*
X155268615Y-155602166D01*
X155383637Y-155430024D01*
X155530024Y-155283637D01*
X155702166Y-155168615D01*
X155893435Y-155089389D01*
X156096484Y-155049000D01*
X156303516Y-155049000D01*
X156506565Y-155089389D01*
X156506565Y-155089389D01*
G37*
G36*
X127506565Y-155089389D02*
X127697834Y-155168615D01*
X127869976Y-155283637D01*
X128016363Y-155430024D01*
X128131385Y-155602166D01*
X128210611Y-155793435D01*
X128251000Y-155996484D01*
X128251000Y-156203516D01*
X128210611Y-156406565D01*
X128131385Y-156597834D01*
X128016363Y-156769976D01*
X127869976Y-156916363D01*
X127697834Y-157031385D01*
X127506565Y-157110611D01*
X127303516Y-157151000D01*
X127096484Y-157151000D01*
X126893435Y-157110611D01*
X126702166Y-157031385D01*
X126530024Y-156916363D01*
X126383637Y-156769976D01*
X126268615Y-156597834D01*
X126189389Y-156406565D01*
X126149000Y-156203516D01*
X126149000Y-155996484D01*
X126189389Y-155793435D01*
X126268615Y-155602166D01*
X126383637Y-155430024D01*
X126530024Y-155283637D01*
X126702166Y-155168615D01*
X126893435Y-155089389D01*
X127096484Y-155049000D01*
X127303516Y-155049000D01*
X127506565Y-155089389D01*
X127506565Y-155089389D01*
G37*
G36*
X185506565Y-155089389D02*
X185697834Y-155168615D01*
X185869976Y-155283637D01*
X186016363Y-155430024D01*
X186131385Y-155602166D01*
X186210611Y-155793435D01*
X186251000Y-155996484D01*
X186251000Y-156203516D01*
X186210611Y-156406565D01*
X186131385Y-156597834D01*
X186016363Y-156769976D01*
X185869976Y-156916363D01*
X185697834Y-157031385D01*
X185506565Y-157110611D01*
X185303516Y-157151000D01*
X185096484Y-157151000D01*
X184893435Y-157110611D01*
X184702166Y-157031385D01*
X184530024Y-156916363D01*
X184383637Y-156769976D01*
X184268615Y-156597834D01*
X184189389Y-156406565D01*
X184149000Y-156203516D01*
X184149000Y-155996484D01*
X184189389Y-155793435D01*
X184268615Y-155602166D01*
X184383637Y-155430024D01*
X184530024Y-155283637D01*
X184702166Y-155168615D01*
X184893435Y-155089389D01*
X185096484Y-155049000D01*
X185303516Y-155049000D01*
X185506565Y-155089389D01*
X185506565Y-155089389D01*
G37*
G36*
X167228621Y-152779302D02*
X167365022Y-152835801D01*
X167487779Y-152917825D01*
X167592175Y-153022221D01*
X167674199Y-153144978D01*
X167730698Y-153281379D01*
X167759500Y-153426181D01*
X167759500Y-153573819D01*
X167730698Y-153718621D01*
X167674199Y-153855022D01*
X167592175Y-153977779D01*
X167487779Y-154082175D01*
X167365022Y-154164199D01*
X167228621Y-154220698D01*
X167083819Y-154249500D01*
X166936181Y-154249500D01*
X166791379Y-154220698D01*
X166654978Y-154164199D01*
X166532221Y-154082175D01*
X166427825Y-153977779D01*
X166345801Y-153855022D01*
X166289302Y-153718621D01*
X166260500Y-153573819D01*
X166260500Y-153426181D01*
X166289302Y-153281379D01*
X166345801Y-153144978D01*
X166427825Y-153022221D01*
X166532221Y-152917825D01*
X166654978Y-152835801D01*
X166791379Y-152779302D01*
X166936181Y-152750500D01*
X167083819Y-152750500D01*
X167228621Y-152779302D01*
X167228621Y-152779302D01*
G37*
G36*
X201308621Y-152779302D02*
X201445022Y-152835801D01*
X201567779Y-152917825D01*
X201672175Y-153022221D01*
X201754199Y-153144978D01*
X201810698Y-153281379D01*
X201839500Y-153426181D01*
X201839500Y-153573819D01*
X201810698Y-153718621D01*
X201754199Y-153855022D01*
X201672175Y-153977779D01*
X201567779Y-154082175D01*
X201445022Y-154164199D01*
X201308621Y-154220698D01*
X201163819Y-154249500D01*
X201016181Y-154249500D01*
X200871379Y-154220698D01*
X200734978Y-154164199D01*
X200612221Y-154082175D01*
X200507825Y-153977779D01*
X200425801Y-153855022D01*
X200369302Y-153718621D01*
X200340500Y-153573819D01*
X200340500Y-153426181D01*
X200369302Y-153281379D01*
X200425801Y-153144978D01*
X200507825Y-153022221D01*
X200612221Y-152917825D01*
X200734978Y-152835801D01*
X200871379Y-152779302D01*
X201016181Y-152750500D01*
X201163819Y-152750500D01*
X201308621Y-152779302D01*
X201308621Y-152779302D01*
G37*
G36*
X196228621Y-152779302D02*
X196365022Y-152835801D01*
X196487779Y-152917825D01*
X196592175Y-153022221D01*
X196674199Y-153144978D01*
X196730698Y-153281379D01*
X196759500Y-153426181D01*
X196759500Y-153573819D01*
X196730698Y-153718621D01*
X196674199Y-153855022D01*
X196592175Y-153977779D01*
X196487779Y-154082175D01*
X196365022Y-154164199D01*
X196228621Y-154220698D01*
X196083819Y-154249500D01*
X195936181Y-154249500D01*
X195791379Y-154220698D01*
X195654978Y-154164199D01*
X195532221Y-154082175D01*
X195427825Y-153977779D01*
X195345801Y-153855022D01*
X195289302Y-153718621D01*
X195260500Y-153573819D01*
X195260500Y-153426181D01*
X195289302Y-153281379D01*
X195345801Y-153144978D01*
X195427825Y-153022221D01*
X195532221Y-152917825D01*
X195654978Y-152835801D01*
X195791379Y-152779302D01*
X195936181Y-152750500D01*
X196083819Y-152750500D01*
X196228621Y-152779302D01*
X196228621Y-152779302D01*
G37*
G36*
X172308621Y-152779302D02*
X172445022Y-152835801D01*
X172567779Y-152917825D01*
X172672175Y-153022221D01*
X172754199Y-153144978D01*
X172810698Y-153281379D01*
X172839500Y-153426181D01*
X172839500Y-153573819D01*
X172810698Y-153718621D01*
X172754199Y-153855022D01*
X172672175Y-153977779D01*
X172567779Y-154082175D01*
X172445022Y-154164199D01*
X172308621Y-154220698D01*
X172163819Y-154249500D01*
X172016181Y-154249500D01*
X171871379Y-154220698D01*
X171734978Y-154164199D01*
X171612221Y-154082175D01*
X171507825Y-153977779D01*
X171425801Y-153855022D01*
X171369302Y-153718621D01*
X171340500Y-153573819D01*
X171340500Y-153426181D01*
X171369302Y-153281379D01*
X171425801Y-153144978D01*
X171507825Y-153022221D01*
X171612221Y-152917825D01*
X171734978Y-152835801D01*
X171871379Y-152779302D01*
X172016181Y-152750500D01*
X172163819Y-152750500D01*
X172308621Y-152779302D01*
X172308621Y-152779302D01*
G37*
G36*
X138228621Y-152779302D02*
X138365022Y-152835801D01*
X138487779Y-152917825D01*
X138592175Y-153022221D01*
X138674199Y-153144978D01*
X138730698Y-153281379D01*
X138759500Y-153426181D01*
X138759500Y-153573819D01*
X138730698Y-153718621D01*
X138674199Y-153855022D01*
X138592175Y-153977779D01*
X138487779Y-154082175D01*
X138365022Y-154164199D01*
X138228621Y-154220698D01*
X138083819Y-154249500D01*
X137936181Y-154249500D01*
X137791379Y-154220698D01*
X137654978Y-154164199D01*
X137532221Y-154082175D01*
X137427825Y-153977779D01*
X137345801Y-153855022D01*
X137289302Y-153718621D01*
X137260500Y-153573819D01*
X137260500Y-153426181D01*
X137289302Y-153281379D01*
X137345801Y-153144978D01*
X137427825Y-153022221D01*
X137532221Y-152917825D01*
X137654978Y-152835801D01*
X137791379Y-152779302D01*
X137936181Y-152750500D01*
X138083819Y-152750500D01*
X138228621Y-152779302D01*
X138228621Y-152779302D01*
G37*
G36*
X143308621Y-152779302D02*
X143445022Y-152835801D01*
X143567779Y-152917825D01*
X143672175Y-153022221D01*
X143754199Y-153144978D01*
X143810698Y-153281379D01*
X143839500Y-153426181D01*
X143839500Y-153573819D01*
X143810698Y-153718621D01*
X143754199Y-153855022D01*
X143672175Y-153977779D01*
X143567779Y-154082175D01*
X143445022Y-154164199D01*
X143308621Y-154220698D01*
X143163819Y-154249500D01*
X143016181Y-154249500D01*
X142871379Y-154220698D01*
X142734978Y-154164199D01*
X142612221Y-154082175D01*
X142507825Y-153977779D01*
X142425801Y-153855022D01*
X142369302Y-153718621D01*
X142340500Y-153573819D01*
X142340500Y-153426181D01*
X142369302Y-153281379D01*
X142425801Y-153144978D01*
X142507825Y-153022221D01*
X142612221Y-152917825D01*
X142734978Y-152835801D01*
X142871379Y-152779302D01*
X143016181Y-152750500D01*
X143163819Y-152750500D01*
X143308621Y-152779302D01*
X143308621Y-152779302D01*
G37*
G36*
X140746565Y-148799389D02*
X140937834Y-148878615D01*
X141109976Y-148993637D01*
X141256363Y-149140024D01*
X141371385Y-149312166D01*
X141450611Y-149503435D01*
X141491000Y-149706484D01*
X141491000Y-149913516D01*
X141450611Y-150116565D01*
X141371385Y-150307834D01*
X141256363Y-150479976D01*
X141109976Y-150626363D01*
X140937834Y-150741385D01*
X140746565Y-150820611D01*
X140543516Y-150861000D01*
X140336484Y-150861000D01*
X140133435Y-150820611D01*
X139942166Y-150741385D01*
X139770024Y-150626363D01*
X139623637Y-150479976D01*
X139508615Y-150307834D01*
X139429389Y-150116565D01*
X139389000Y-149913516D01*
X139389000Y-149706484D01*
X139429389Y-149503435D01*
X139508615Y-149312166D01*
X139623637Y-149140024D01*
X139770024Y-148993637D01*
X139942166Y-148878615D01*
X140133435Y-148799389D01*
X140336484Y-148759000D01*
X140543516Y-148759000D01*
X140746565Y-148799389D01*
X140746565Y-148799389D01*
G37*
G36*
X198746565Y-148799389D02*
X198937834Y-148878615D01*
X199109976Y-148993637D01*
X199256363Y-149140024D01*
X199371385Y-149312166D01*
X199450611Y-149503435D01*
X199491000Y-149706484D01*
X199491000Y-149913516D01*
X199450611Y-150116565D01*
X199371385Y-150307834D01*
X199256363Y-150479976D01*
X199109976Y-150626363D01*
X198937834Y-150741385D01*
X198746565Y-150820611D01*
X198543516Y-150861000D01*
X198336484Y-150861000D01*
X198133435Y-150820611D01*
X197942166Y-150741385D01*
X197770024Y-150626363D01*
X197623637Y-150479976D01*
X197508615Y-150307834D01*
X197429389Y-150116565D01*
X197389000Y-149913516D01*
X197389000Y-149706484D01*
X197429389Y-149503435D01*
X197508615Y-149312166D01*
X197623637Y-149140024D01*
X197770024Y-148993637D01*
X197942166Y-148878615D01*
X198133435Y-148799389D01*
X198336484Y-148759000D01*
X198543516Y-148759000D01*
X198746565Y-148799389D01*
X198746565Y-148799389D01*
G37*
G36*
X169746565Y-148799389D02*
X169937834Y-148878615D01*
X170109976Y-148993637D01*
X170256363Y-149140024D01*
X170371385Y-149312166D01*
X170450611Y-149503435D01*
X170491000Y-149706484D01*
X170491000Y-149913516D01*
X170450611Y-150116565D01*
X170371385Y-150307834D01*
X170256363Y-150479976D01*
X170109976Y-150626363D01*
X169937834Y-150741385D01*
X169746565Y-150820611D01*
X169543516Y-150861000D01*
X169336484Y-150861000D01*
X169133435Y-150820611D01*
X168942166Y-150741385D01*
X168770024Y-150626363D01*
X168623637Y-150479976D01*
X168508615Y-150307834D01*
X168429389Y-150116565D01*
X168389000Y-149913516D01*
X168389000Y-149706484D01*
X168429389Y-149503435D01*
X168508615Y-149312166D01*
X168623637Y-149140024D01*
X168770024Y-148993637D01*
X168942166Y-148878615D01*
X169133435Y-148799389D01*
X169336484Y-148759000D01*
X169543516Y-148759000D01*
X169746565Y-148799389D01*
X169746565Y-148799389D01*
G37*
G36*
X172308621Y-145159302D02*
X172445022Y-145215801D01*
X172567779Y-145297825D01*
X172672175Y-145402221D01*
X172754199Y-145524978D01*
X172810698Y-145661379D01*
X172839500Y-145806181D01*
X172839500Y-145953819D01*
X172810698Y-146098621D01*
X172754199Y-146235022D01*
X172672175Y-146357779D01*
X172567779Y-146462175D01*
X172445022Y-146544199D01*
X172308621Y-146600698D01*
X172163819Y-146629500D01*
X172016181Y-146629500D01*
X171871379Y-146600698D01*
X171734978Y-146544199D01*
X171612221Y-146462175D01*
X171507825Y-146357779D01*
X171425801Y-146235022D01*
X171369302Y-146098621D01*
X171340500Y-145953819D01*
X171340500Y-145806181D01*
X171369302Y-145661379D01*
X171425801Y-145524978D01*
X171507825Y-145402221D01*
X171612221Y-145297825D01*
X171734978Y-145215801D01*
X171871379Y-145159302D01*
X172016181Y-145130500D01*
X172163819Y-145130500D01*
X172308621Y-145159302D01*
X172308621Y-145159302D01*
G37*
G36*
X196228621Y-145159302D02*
X196365022Y-145215801D01*
X196487779Y-145297825D01*
X196592175Y-145402221D01*
X196674199Y-145524978D01*
X196730698Y-145661379D01*
X196759500Y-145806181D01*
X196759500Y-145953819D01*
X196730698Y-146098621D01*
X196674199Y-146235022D01*
X196592175Y-146357779D01*
X196487779Y-146462175D01*
X196365022Y-146544199D01*
X196228621Y-146600698D01*
X196083819Y-146629500D01*
X195936181Y-146629500D01*
X195791379Y-146600698D01*
X195654978Y-146544199D01*
X195532221Y-146462175D01*
X195427825Y-146357779D01*
X195345801Y-146235022D01*
X195289302Y-146098621D01*
X195260500Y-145953819D01*
X195260500Y-145806181D01*
X195289302Y-145661379D01*
X195345801Y-145524978D01*
X195427825Y-145402221D01*
X195532221Y-145297825D01*
X195654978Y-145215801D01*
X195791379Y-145159302D01*
X195936181Y-145130500D01*
X196083819Y-145130500D01*
X196228621Y-145159302D01*
X196228621Y-145159302D01*
G37*
G36*
X201308621Y-145159302D02*
X201445022Y-145215801D01*
X201567779Y-145297825D01*
X201672175Y-145402221D01*
X201754199Y-145524978D01*
X201810698Y-145661379D01*
X201839500Y-145806181D01*
X201839500Y-145953819D01*
X201810698Y-146098621D01*
X201754199Y-146235022D01*
X201672175Y-146357779D01*
X201567779Y-146462175D01*
X201445022Y-146544199D01*
X201308621Y-146600698D01*
X201163819Y-146629500D01*
X201016181Y-146629500D01*
X200871379Y-146600698D01*
X200734978Y-146544199D01*
X200612221Y-146462175D01*
X200507825Y-146357779D01*
X200425801Y-146235022D01*
X200369302Y-146098621D01*
X200340500Y-145953819D01*
X200340500Y-145806181D01*
X200369302Y-145661379D01*
X200425801Y-145524978D01*
X200507825Y-145402221D01*
X200612221Y-145297825D01*
X200734978Y-145215801D01*
X200871379Y-145159302D01*
X201016181Y-145130500D01*
X201163819Y-145130500D01*
X201308621Y-145159302D01*
X201308621Y-145159302D01*
G37*
G36*
X167228621Y-145159302D02*
X167365022Y-145215801D01*
X167487779Y-145297825D01*
X167592175Y-145402221D01*
X167674199Y-145524978D01*
X167730698Y-145661379D01*
X167759500Y-145806181D01*
X167759500Y-145953819D01*
X167730698Y-146098621D01*
X167674199Y-146235022D01*
X167592175Y-146357779D01*
X167487779Y-146462175D01*
X167365022Y-146544199D01*
X167228621Y-146600698D01*
X167083819Y-146629500D01*
X166936181Y-146629500D01*
X166791379Y-146600698D01*
X166654978Y-146544199D01*
X166532221Y-146462175D01*
X166427825Y-146357779D01*
X166345801Y-146235022D01*
X166289302Y-146098621D01*
X166260500Y-145953819D01*
X166260500Y-145806181D01*
X166289302Y-145661379D01*
X166345801Y-145524978D01*
X166427825Y-145402221D01*
X166532221Y-145297825D01*
X166654978Y-145215801D01*
X166791379Y-145159302D01*
X166936181Y-145130500D01*
X167083819Y-145130500D01*
X167228621Y-145159302D01*
X167228621Y-145159302D01*
G37*
G36*
X138228621Y-145159302D02*
X138365022Y-145215801D01*
X138487779Y-145297825D01*
X138592175Y-145402221D01*
X138674199Y-145524978D01*
X138730698Y-145661379D01*
X138759500Y-145806181D01*
X138759500Y-145953819D01*
X138730698Y-146098621D01*
X138674199Y-146235022D01*
X138592175Y-146357779D01*
X138487779Y-146462175D01*
X138365022Y-146544199D01*
X138228621Y-146600698D01*
X138083819Y-146629500D01*
X137936181Y-146629500D01*
X137791379Y-146600698D01*
X137654978Y-146544199D01*
X137532221Y-146462175D01*
X137427825Y-146357779D01*
X137345801Y-146235022D01*
X137289302Y-146098621D01*
X137260500Y-145953819D01*
X137260500Y-145806181D01*
X137289302Y-145661379D01*
X137345801Y-145524978D01*
X137427825Y-145402221D01*
X137532221Y-145297825D01*
X137654978Y-145215801D01*
X137791379Y-145159302D01*
X137936181Y-145130500D01*
X138083819Y-145130500D01*
X138228621Y-145159302D01*
X138228621Y-145159302D01*
G37*
G36*
X143308621Y-145159302D02*
X143445022Y-145215801D01*
X143567779Y-145297825D01*
X143672175Y-145402221D01*
X143754199Y-145524978D01*
X143810698Y-145661379D01*
X143839500Y-145806181D01*
X143839500Y-145953819D01*
X143810698Y-146098621D01*
X143754199Y-146235022D01*
X143672175Y-146357779D01*
X143567779Y-146462175D01*
X143445022Y-146544199D01*
X143308621Y-146600698D01*
X143163819Y-146629500D01*
X143016181Y-146629500D01*
X142871379Y-146600698D01*
X142734978Y-146544199D01*
X142612221Y-146462175D01*
X142507825Y-146357779D01*
X142425801Y-146235022D01*
X142369302Y-146098621D01*
X142340500Y-145953819D01*
X142340500Y-145806181D01*
X142369302Y-145661379D01*
X142425801Y-145524978D01*
X142507825Y-145402221D01*
X142612221Y-145297825D01*
X142734978Y-145215801D01*
X142871379Y-145159302D01*
X143016181Y-145130500D01*
X143163819Y-145130500D01*
X143308621Y-145159302D01*
X143308621Y-145159302D01*
G37*
G36*
X190596565Y-130339389D02*
X190787834Y-130418615D01*
X190959976Y-130533637D01*
X191106363Y-130680024D01*
X191221385Y-130852166D01*
X191300611Y-131043435D01*
X191341000Y-131246484D01*
X191341000Y-131453516D01*
X191300611Y-131656565D01*
X191221385Y-131847834D01*
X191106363Y-132019976D01*
X190959976Y-132166363D01*
X190787834Y-132281385D01*
X190596565Y-132360611D01*
X190393516Y-132401000D01*
X190186484Y-132401000D01*
X189983435Y-132360611D01*
X189792166Y-132281385D01*
X189620024Y-132166363D01*
X189473637Y-132019976D01*
X189358615Y-131847834D01*
X189279389Y-131656565D01*
X189239000Y-131453516D01*
X189239000Y-131246484D01*
X189279389Y-131043435D01*
X189358615Y-130852166D01*
X189473637Y-130680024D01*
X189620024Y-130533637D01*
X189792166Y-130418615D01*
X189983435Y-130339389D01*
X190186484Y-130299000D01*
X190393516Y-130299000D01*
X190596565Y-130339389D01*
X190596565Y-130339389D01*
G37*
G36*
X161596565Y-130339389D02*
X161787834Y-130418615D01*
X161959976Y-130533637D01*
X162106363Y-130680024D01*
X162221385Y-130852166D01*
X162300611Y-131043435D01*
X162341000Y-131246484D01*
X162341000Y-131453516D01*
X162300611Y-131656565D01*
X162221385Y-131847834D01*
X162106363Y-132019976D01*
X161959976Y-132166363D01*
X161787834Y-132281385D01*
X161596565Y-132360611D01*
X161393516Y-132401000D01*
X161186484Y-132401000D01*
X160983435Y-132360611D01*
X160792166Y-132281385D01*
X160620024Y-132166363D01*
X160473637Y-132019976D01*
X160358615Y-131847834D01*
X160279389Y-131656565D01*
X160239000Y-131453516D01*
X160239000Y-131246484D01*
X160279389Y-131043435D01*
X160358615Y-130852166D01*
X160473637Y-130680024D01*
X160620024Y-130533637D01*
X160792166Y-130418615D01*
X160983435Y-130339389D01*
X161186484Y-130299000D01*
X161393516Y-130299000D01*
X161596565Y-130339389D01*
X161596565Y-130339389D01*
G37*
G36*
X132596565Y-130339389D02*
X132787834Y-130418615D01*
X132959976Y-130533637D01*
X133106363Y-130680024D01*
X133221385Y-130852166D01*
X133300611Y-131043435D01*
X133341000Y-131246484D01*
X133341000Y-131453516D01*
X133300611Y-131656565D01*
X133221385Y-131847834D01*
X133106363Y-132019976D01*
X132959976Y-132166363D01*
X132787834Y-132281385D01*
X132596565Y-132360611D01*
X132393516Y-132401000D01*
X132186484Y-132401000D01*
X131983435Y-132360611D01*
X131792166Y-132281385D01*
X131620024Y-132166363D01*
X131473637Y-132019976D01*
X131358615Y-131847834D01*
X131279389Y-131656565D01*
X131239000Y-131453516D01*
X131239000Y-131246484D01*
X131279389Y-131043435D01*
X131358615Y-130852166D01*
X131473637Y-130680024D01*
X131620024Y-130533637D01*
X131792166Y-130418615D01*
X131983435Y-130339389D01*
X132186484Y-130299000D01*
X132393516Y-130299000D01*
X132596565Y-130339389D01*
X132596565Y-130339389D01*
G37*
G36*
X165376565Y-128449389D02*
X165567834Y-128528615D01*
X165739976Y-128643637D01*
X165886363Y-128790024D01*
X166001385Y-128962166D01*
X166080611Y-129153435D01*
X166121000Y-129356484D01*
X166121000Y-129563516D01*
X166080611Y-129766565D01*
X166001385Y-129957834D01*
X165886363Y-130129976D01*
X165739976Y-130276363D01*
X165567834Y-130391385D01*
X165376565Y-130470611D01*
X165173516Y-130511000D01*
X164966484Y-130511000D01*
X164763435Y-130470611D01*
X164572166Y-130391385D01*
X164400024Y-130276363D01*
X164253637Y-130129976D01*
X164138615Y-129957834D01*
X164059389Y-129766565D01*
X164019000Y-129563516D01*
X164019000Y-129356484D01*
X164059389Y-129153435D01*
X164138615Y-128962166D01*
X164253637Y-128790024D01*
X164400024Y-128643637D01*
X164572166Y-128528615D01*
X164763435Y-128449389D01*
X164966484Y-128409000D01*
X165173516Y-128409000D01*
X165376565Y-128449389D01*
X165376565Y-128449389D01*
G37*
G36*
X194376565Y-128449389D02*
X194567834Y-128528615D01*
X194739976Y-128643637D01*
X194886363Y-128790024D01*
X195001385Y-128962166D01*
X195080611Y-129153435D01*
X195121000Y-129356484D01*
X195121000Y-129563516D01*
X195080611Y-129766565D01*
X195001385Y-129957834D01*
X194886363Y-130129976D01*
X194739976Y-130276363D01*
X194567834Y-130391385D01*
X194376565Y-130470611D01*
X194173516Y-130511000D01*
X193966484Y-130511000D01*
X193763435Y-130470611D01*
X193572166Y-130391385D01*
X193400024Y-130276363D01*
X193253637Y-130129976D01*
X193138615Y-129957834D01*
X193059389Y-129766565D01*
X193019000Y-129563516D01*
X193019000Y-129356484D01*
X193059389Y-129153435D01*
X193138615Y-128962166D01*
X193253637Y-128790024D01*
X193400024Y-128643637D01*
X193572166Y-128528615D01*
X193763435Y-128449389D01*
X193966484Y-128409000D01*
X194173516Y-128409000D01*
X194376565Y-128449389D01*
X194376565Y-128449389D01*
G37*
G36*
X136376565Y-128449389D02*
X136567834Y-128528615D01*
X136739976Y-128643637D01*
X136886363Y-128790024D01*
X137001385Y-128962166D01*
X137080611Y-129153435D01*
X137121000Y-129356484D01*
X137121000Y-129563516D01*
X137080611Y-129766565D01*
X137001385Y-129957834D01*
X136886363Y-130129976D01*
X136739976Y-130276363D01*
X136567834Y-130391385D01*
X136376565Y-130470611D01*
X136173516Y-130511000D01*
X135966484Y-130511000D01*
X135763435Y-130470611D01*
X135572166Y-130391385D01*
X135400024Y-130276363D01*
X135253637Y-130129976D01*
X135138615Y-129957834D01*
X135059389Y-129766565D01*
X135019000Y-129563516D01*
X135019000Y-129356484D01*
X135059389Y-129153435D01*
X135138615Y-128962166D01*
X135253637Y-128790024D01*
X135400024Y-128643637D01*
X135572166Y-128528615D01*
X135763435Y-128449389D01*
X135966484Y-128409000D01*
X136173516Y-128409000D01*
X136376565Y-128449389D01*
X136376565Y-128449389D01*
G37*
G36*
X129706565Y-128429389D02*
X129897834Y-128508615D01*
X130069976Y-128623637D01*
X130216363Y-128770024D01*
X130331385Y-128942166D01*
X130410611Y-129133435D01*
X130451000Y-129336484D01*
X130451000Y-129543516D01*
X130410611Y-129746565D01*
X130331385Y-129937834D01*
X130216363Y-130109976D01*
X130069976Y-130256363D01*
X129897834Y-130371385D01*
X129706565Y-130450611D01*
X129503516Y-130491000D01*
X129296484Y-130491000D01*
X129093435Y-130450611D01*
X128902166Y-130371385D01*
X128730024Y-130256363D01*
X128583637Y-130109976D01*
X128468615Y-129937834D01*
X128389389Y-129746565D01*
X128349000Y-129543516D01*
X128349000Y-129336484D01*
X128389389Y-129133435D01*
X128468615Y-128942166D01*
X128583637Y-128770024D01*
X128730024Y-128623637D01*
X128902166Y-128508615D01*
X129093435Y-128429389D01*
X129296484Y-128389000D01*
X129503516Y-128389000D01*
X129706565Y-128429389D01*
X129706565Y-128429389D01*
G37*
G36*
X158706565Y-128429389D02*
X158897834Y-128508615D01*
X159069976Y-128623637D01*
X159216363Y-128770024D01*
X159331385Y-128942166D01*
X159410611Y-129133435D01*
X159451000Y-129336484D01*
X159451000Y-129543516D01*
X159410611Y-129746565D01*
X159331385Y-129937834D01*
X159216363Y-130109976D01*
X159069976Y-130256363D01*
X158897834Y-130371385D01*
X158706565Y-130450611D01*
X158503516Y-130491000D01*
X158296484Y-130491000D01*
X158093435Y-130450611D01*
X157902166Y-130371385D01*
X157730024Y-130256363D01*
X157583637Y-130109976D01*
X157468615Y-129937834D01*
X157389389Y-129746565D01*
X157349000Y-129543516D01*
X157349000Y-129336484D01*
X157389389Y-129133435D01*
X157468615Y-128942166D01*
X157583637Y-128770024D01*
X157730024Y-128623637D01*
X157902166Y-128508615D01*
X158093435Y-128429389D01*
X158296484Y-128389000D01*
X158503516Y-128389000D01*
X158706565Y-128429389D01*
X158706565Y-128429389D01*
G37*
G36*
X187706565Y-128429389D02*
X187897834Y-128508615D01*
X188069976Y-128623637D01*
X188216363Y-128770024D01*
X188331385Y-128942166D01*
X188410611Y-129133435D01*
X188451000Y-129336484D01*
X188451000Y-129543516D01*
X188410611Y-129746565D01*
X188331385Y-129937834D01*
X188216363Y-130109976D01*
X188069976Y-130256363D01*
X187897834Y-130371385D01*
X187706565Y-130450611D01*
X187503516Y-130491000D01*
X187296484Y-130491000D01*
X187093435Y-130450611D01*
X186902166Y-130371385D01*
X186730024Y-130256363D01*
X186583637Y-130109976D01*
X186468615Y-129937834D01*
X186389389Y-129746565D01*
X186349000Y-129543516D01*
X186349000Y-129336484D01*
X186389389Y-129133435D01*
X186468615Y-128942166D01*
X186583637Y-128770024D01*
X186730024Y-128623637D01*
X186902166Y-128508615D01*
X187093435Y-128429389D01*
X187296484Y-128389000D01*
X187503516Y-128389000D01*
X187706565Y-128429389D01*
X187706565Y-128429389D01*
G37*
G36*
X198117528Y-125963737D02*
X198217411Y-125983605D01*
X198499675Y-126100522D01*
X198753706Y-126270260D01*
X198969742Y-126486296D01*
X199139480Y-126740327D01*
X199256397Y-127022591D01*
X199316001Y-127322241D01*
X199316001Y-127627761D01*
X199256397Y-127927411D01*
X199139480Y-128209675D01*
X198969742Y-128463706D01*
X198753706Y-128679742D01*
X198499675Y-128849480D01*
X198217411Y-128966397D01*
X198117528Y-128986265D01*
X197917763Y-129026001D01*
X197612239Y-129026001D01*
X197412474Y-128986265D01*
X197312591Y-128966397D01*
X197030327Y-128849480D01*
X196776296Y-128679742D01*
X196560260Y-128463706D01*
X196390522Y-128209675D01*
X196273605Y-127927411D01*
X196214001Y-127627761D01*
X196214001Y-127322241D01*
X196273605Y-127022591D01*
X196390522Y-126740327D01*
X196560260Y-126486296D01*
X196776296Y-126270260D01*
X197030327Y-126100522D01*
X197312591Y-125983605D01*
X197412474Y-125963737D01*
X197612239Y-125924001D01*
X197917763Y-125924001D01*
X198117528Y-125963737D01*
X198117528Y-125963737D01*
G37*
G36*
X184397528Y-125963737D02*
X184497411Y-125983605D01*
X184779675Y-126100522D01*
X185033706Y-126270260D01*
X185249742Y-126486296D01*
X185419480Y-126740327D01*
X185536397Y-127022591D01*
X185596001Y-127322241D01*
X185596001Y-127627761D01*
X185536397Y-127927411D01*
X185419480Y-128209675D01*
X185249742Y-128463706D01*
X185033706Y-128679742D01*
X184779675Y-128849480D01*
X184497411Y-128966397D01*
X184397528Y-128986265D01*
X184197763Y-129026001D01*
X183892239Y-129026001D01*
X183692474Y-128986265D01*
X183592591Y-128966397D01*
X183310327Y-128849480D01*
X183056296Y-128679742D01*
X182840260Y-128463706D01*
X182670522Y-128209675D01*
X182553605Y-127927411D01*
X182494001Y-127627761D01*
X182494001Y-127322241D01*
X182553605Y-127022591D01*
X182670522Y-126740327D01*
X182840260Y-126486296D01*
X183056296Y-126270260D01*
X183310327Y-126100522D01*
X183592591Y-125983605D01*
X183692474Y-125963737D01*
X183892239Y-125924001D01*
X184197763Y-125924001D01*
X184397528Y-125963737D01*
X184397528Y-125963737D01*
G37*
G36*
X169117528Y-125963737D02*
X169217411Y-125983605D01*
X169499675Y-126100522D01*
X169753706Y-126270260D01*
X169969742Y-126486296D01*
X170139480Y-126740327D01*
X170256397Y-127022591D01*
X170316001Y-127322241D01*
X170316001Y-127627761D01*
X170256397Y-127927411D01*
X170139480Y-128209675D01*
X169969742Y-128463706D01*
X169753706Y-128679742D01*
X169499675Y-128849480D01*
X169217411Y-128966397D01*
X169117528Y-128986265D01*
X168917763Y-129026001D01*
X168612239Y-129026001D01*
X168412474Y-128986265D01*
X168312591Y-128966397D01*
X168030327Y-128849480D01*
X167776296Y-128679742D01*
X167560260Y-128463706D01*
X167390522Y-128209675D01*
X167273605Y-127927411D01*
X167214001Y-127627761D01*
X167214001Y-127322241D01*
X167273605Y-127022591D01*
X167390522Y-126740327D01*
X167560260Y-126486296D01*
X167776296Y-126270260D01*
X168030327Y-126100522D01*
X168312591Y-125983605D01*
X168412474Y-125963737D01*
X168612239Y-125924001D01*
X168917763Y-125924001D01*
X169117528Y-125963737D01*
X169117528Y-125963737D01*
G37*
G36*
X155397528Y-125963737D02*
X155497411Y-125983605D01*
X155779675Y-126100522D01*
X156033706Y-126270260D01*
X156249742Y-126486296D01*
X156419480Y-126740327D01*
X156536397Y-127022591D01*
X156596001Y-127322241D01*
X156596001Y-127627761D01*
X156536397Y-127927411D01*
X156419480Y-128209675D01*
X156249742Y-128463706D01*
X156033706Y-128679742D01*
X155779675Y-128849480D01*
X155497411Y-128966397D01*
X155397528Y-128986265D01*
X155197763Y-129026001D01*
X154892239Y-129026001D01*
X154692474Y-128986265D01*
X154592591Y-128966397D01*
X154310327Y-128849480D01*
X154056296Y-128679742D01*
X153840260Y-128463706D01*
X153670522Y-128209675D01*
X153553605Y-127927411D01*
X153494001Y-127627761D01*
X153494001Y-127322241D01*
X153553605Y-127022591D01*
X153670522Y-126740327D01*
X153840260Y-126486296D01*
X154056296Y-126270260D01*
X154310327Y-126100522D01*
X154592591Y-125983605D01*
X154692474Y-125963737D01*
X154892239Y-125924001D01*
X155197763Y-125924001D01*
X155397528Y-125963737D01*
X155397528Y-125963737D01*
G37*
G36*
X140117528Y-125963737D02*
X140217411Y-125983605D01*
X140499675Y-126100522D01*
X140753706Y-126270260D01*
X140969742Y-126486296D01*
X141139480Y-126740327D01*
X141256397Y-127022591D01*
X141316001Y-127322241D01*
X141316001Y-127627761D01*
X141256397Y-127927411D01*
X141139480Y-128209675D01*
X140969742Y-128463706D01*
X140753706Y-128679742D01*
X140499675Y-128849480D01*
X140217411Y-128966397D01*
X140117528Y-128986265D01*
X139917763Y-129026001D01*
X139612239Y-129026001D01*
X139412474Y-128986265D01*
X139312591Y-128966397D01*
X139030327Y-128849480D01*
X138776296Y-128679742D01*
X138560260Y-128463706D01*
X138390522Y-128209675D01*
X138273605Y-127927411D01*
X138214001Y-127627761D01*
X138214001Y-127322241D01*
X138273605Y-127022591D01*
X138390522Y-126740327D01*
X138560260Y-126486296D01*
X138776296Y-126270260D01*
X139030327Y-126100522D01*
X139312591Y-125983605D01*
X139412474Y-125963737D01*
X139612239Y-125924001D01*
X139917763Y-125924001D01*
X140117528Y-125963737D01*
X140117528Y-125963737D01*
G37*
G36*
X126397528Y-125963737D02*
X126497411Y-125983605D01*
X126779675Y-126100522D01*
X127033706Y-126270260D01*
X127249742Y-126486296D01*
X127419480Y-126740327D01*
X127536397Y-127022591D01*
X127596001Y-127322241D01*
X127596001Y-127627761D01*
X127536397Y-127927411D01*
X127419480Y-128209675D01*
X127249742Y-128463706D01*
X127033706Y-128679742D01*
X126779675Y-128849480D01*
X126497411Y-128966397D01*
X126397528Y-128986265D01*
X126197763Y-129026001D01*
X125892239Y-129026001D01*
X125692474Y-128986265D01*
X125592591Y-128966397D01*
X125310327Y-128849480D01*
X125056296Y-128679742D01*
X124840260Y-128463706D01*
X124670522Y-128209675D01*
X124553605Y-127927411D01*
X124494001Y-127627761D01*
X124494001Y-127322241D01*
X124553605Y-127022591D01*
X124670522Y-126740327D01*
X124840260Y-126486296D01*
X125056296Y-126270260D01*
X125310327Y-126100522D01*
X125592591Y-125983605D01*
X125692474Y-125963737D01*
X125892239Y-125924001D01*
X126197763Y-125924001D01*
X126397528Y-125963737D01*
X126397528Y-125963737D01*
G37*
G36*
X161378644Y-124034782D02*
X161524416Y-124095163D01*
X161655612Y-124182825D01*
X161767177Y-124294390D01*
X161854839Y-124425586D01*
X161915220Y-124571358D01*
X161946001Y-124726108D01*
X161946001Y-124883894D01*
X161915220Y-125038644D01*
X161854839Y-125184416D01*
X161767177Y-125315612D01*
X161655612Y-125427177D01*
X161524416Y-125514839D01*
X161378644Y-125575220D01*
X161223894Y-125606001D01*
X161066108Y-125606001D01*
X160911358Y-125575220D01*
X160765586Y-125514839D01*
X160634390Y-125427177D01*
X160522825Y-125315612D01*
X160435163Y-125184416D01*
X160374782Y-125038644D01*
X160344001Y-124883894D01*
X160344001Y-124726108D01*
X160374782Y-124571358D01*
X160435163Y-124425586D01*
X160522825Y-124294390D01*
X160634390Y-124182825D01*
X160765586Y-124095163D01*
X160911358Y-124034782D01*
X161066108Y-124004001D01*
X161223894Y-124004001D01*
X161378644Y-124034782D01*
X161378644Y-124034782D01*
G37*
G36*
X194948644Y-124034782D02*
X195094416Y-124095163D01*
X195225612Y-124182825D01*
X195337177Y-124294390D01*
X195424839Y-124425586D01*
X195485220Y-124571358D01*
X195516001Y-124726108D01*
X195516001Y-124883894D01*
X195485220Y-125038644D01*
X195424839Y-125184416D01*
X195337177Y-125315612D01*
X195225612Y-125427177D01*
X195094416Y-125514839D01*
X194948644Y-125575220D01*
X194793894Y-125606001D01*
X194636108Y-125606001D01*
X194481358Y-125575220D01*
X194335586Y-125514839D01*
X194204390Y-125427177D01*
X194092825Y-125315612D01*
X194005163Y-125184416D01*
X193944782Y-125038644D01*
X193914001Y-124883894D01*
X193914001Y-124726108D01*
X193944782Y-124571358D01*
X194005163Y-124425586D01*
X194092825Y-124294390D01*
X194204390Y-124182825D01*
X194335586Y-124095163D01*
X194481358Y-124034782D01*
X194636108Y-124004001D01*
X194793894Y-124004001D01*
X194948644Y-124034782D01*
X194948644Y-124034782D01*
G37*
G36*
X190378644Y-124034782D02*
X190524416Y-124095163D01*
X190655612Y-124182825D01*
X190767177Y-124294390D01*
X190854839Y-124425586D01*
X190915220Y-124571358D01*
X190946001Y-124726108D01*
X190946001Y-124883894D01*
X190915220Y-125038644D01*
X190854839Y-125184416D01*
X190767177Y-125315612D01*
X190655612Y-125427177D01*
X190524416Y-125514839D01*
X190378644Y-125575220D01*
X190223894Y-125606001D01*
X190066108Y-125606001D01*
X189911358Y-125575220D01*
X189765586Y-125514839D01*
X189634390Y-125427177D01*
X189522825Y-125315612D01*
X189435163Y-125184416D01*
X189374782Y-125038644D01*
X189344001Y-124883894D01*
X189344001Y-124726108D01*
X189374782Y-124571358D01*
X189435163Y-124425586D01*
X189522825Y-124294390D01*
X189634390Y-124182825D01*
X189765586Y-124095163D01*
X189911358Y-124034782D01*
X190066108Y-124004001D01*
X190223894Y-124004001D01*
X190378644Y-124034782D01*
X190378644Y-124034782D01*
G37*
G36*
X136948644Y-124034782D02*
X137094416Y-124095163D01*
X137225612Y-124182825D01*
X137337177Y-124294390D01*
X137424839Y-124425586D01*
X137485220Y-124571358D01*
X137516001Y-124726108D01*
X137516001Y-124883894D01*
X137485220Y-125038644D01*
X137424839Y-125184416D01*
X137337177Y-125315612D01*
X137225612Y-125427177D01*
X137094416Y-125514839D01*
X136948644Y-125575220D01*
X136793894Y-125606001D01*
X136636108Y-125606001D01*
X136481358Y-125575220D01*
X136335586Y-125514839D01*
X136204390Y-125427177D01*
X136092825Y-125315612D01*
X136005163Y-125184416D01*
X135944782Y-125038644D01*
X135914001Y-124883894D01*
X135914001Y-124726108D01*
X135944782Y-124571358D01*
X136005163Y-124425586D01*
X136092825Y-124294390D01*
X136204390Y-124182825D01*
X136335586Y-124095163D01*
X136481358Y-124034782D01*
X136636108Y-124004001D01*
X136793894Y-124004001D01*
X136948644Y-124034782D01*
X136948644Y-124034782D01*
G37*
G36*
X158838644Y-124034782D02*
X158984416Y-124095163D01*
X159115612Y-124182825D01*
X159227177Y-124294390D01*
X159314839Y-124425586D01*
X159375220Y-124571358D01*
X159406001Y-124726108D01*
X159406001Y-124883894D01*
X159375220Y-125038644D01*
X159314839Y-125184416D01*
X159227177Y-125315612D01*
X159115612Y-125427177D01*
X158984416Y-125514839D01*
X158838644Y-125575220D01*
X158683894Y-125606001D01*
X158526108Y-125606001D01*
X158371358Y-125575220D01*
X158225586Y-125514839D01*
X158094390Y-125427177D01*
X157982825Y-125315612D01*
X157895163Y-125184416D01*
X157834782Y-125038644D01*
X157804001Y-124883894D01*
X157804001Y-124726108D01*
X157834782Y-124571358D01*
X157895163Y-124425586D01*
X157982825Y-124294390D01*
X158094390Y-124182825D01*
X158225586Y-124095163D01*
X158371358Y-124034782D01*
X158526108Y-124004001D01*
X158683894Y-124004001D01*
X158838644Y-124034782D01*
X158838644Y-124034782D01*
G37*
G36*
X129838644Y-124034782D02*
X129984416Y-124095163D01*
X130115612Y-124182825D01*
X130227177Y-124294390D01*
X130314839Y-124425586D01*
X130375220Y-124571358D01*
X130406001Y-124726108D01*
X130406001Y-124883894D01*
X130375220Y-125038644D01*
X130314839Y-125184416D01*
X130227177Y-125315612D01*
X130115612Y-125427177D01*
X129984416Y-125514839D01*
X129838644Y-125575220D01*
X129683894Y-125606001D01*
X129526108Y-125606001D01*
X129371358Y-125575220D01*
X129225586Y-125514839D01*
X129094390Y-125427177D01*
X128982825Y-125315612D01*
X128895163Y-125184416D01*
X128834782Y-125038644D01*
X128804001Y-124883894D01*
X128804001Y-124726108D01*
X128834782Y-124571358D01*
X128895163Y-124425586D01*
X128982825Y-124294390D01*
X129094390Y-124182825D01*
X129225586Y-124095163D01*
X129371358Y-124034782D01*
X129526108Y-124004001D01*
X129683894Y-124004001D01*
X129838644Y-124034782D01*
X129838644Y-124034782D01*
G37*
G36*
X165948644Y-124034782D02*
X166094416Y-124095163D01*
X166225612Y-124182825D01*
X166337177Y-124294390D01*
X166424839Y-124425586D01*
X166485220Y-124571358D01*
X166516001Y-124726108D01*
X166516001Y-124883894D01*
X166485220Y-125038644D01*
X166424839Y-125184416D01*
X166337177Y-125315612D01*
X166225612Y-125427177D01*
X166094416Y-125514839D01*
X165948644Y-125575220D01*
X165793894Y-125606001D01*
X165636108Y-125606001D01*
X165481358Y-125575220D01*
X165335586Y-125514839D01*
X165204390Y-125427177D01*
X165092825Y-125315612D01*
X165005163Y-125184416D01*
X164944782Y-125038644D01*
X164914001Y-124883894D01*
X164914001Y-124726108D01*
X164944782Y-124571358D01*
X165005163Y-124425586D01*
X165092825Y-124294390D01*
X165204390Y-124182825D01*
X165335586Y-124095163D01*
X165481358Y-124034782D01*
X165636108Y-124004001D01*
X165793894Y-124004001D01*
X165948644Y-124034782D01*
X165948644Y-124034782D01*
G37*
G36*
X187838644Y-124034782D02*
X187984416Y-124095163D01*
X188115612Y-124182825D01*
X188227177Y-124294390D01*
X188314839Y-124425586D01*
X188375220Y-124571358D01*
X188406001Y-124726108D01*
X188406001Y-124883894D01*
X188375220Y-125038644D01*
X188314839Y-125184416D01*
X188227177Y-125315612D01*
X188115612Y-125427177D01*
X187984416Y-125514839D01*
X187838644Y-125575220D01*
X187683894Y-125606001D01*
X187526108Y-125606001D01*
X187371358Y-125575220D01*
X187225586Y-125514839D01*
X187094390Y-125427177D01*
X186982825Y-125315612D01*
X186895163Y-125184416D01*
X186834782Y-125038644D01*
X186804001Y-124883894D01*
X186804001Y-124726108D01*
X186834782Y-124571358D01*
X186895163Y-124425586D01*
X186982825Y-124294390D01*
X187094390Y-124182825D01*
X187225586Y-124095163D01*
X187371358Y-124034782D01*
X187526108Y-124004001D01*
X187683894Y-124004001D01*
X187838644Y-124034782D01*
X187838644Y-124034782D01*
G37*
G36*
X132378644Y-124034782D02*
X132524416Y-124095163D01*
X132655612Y-124182825D01*
X132767177Y-124294390D01*
X132854839Y-124425586D01*
X132915220Y-124571358D01*
X132946001Y-124726108D01*
X132946001Y-124883894D01*
X132915220Y-125038644D01*
X132854839Y-125184416D01*
X132767177Y-125315612D01*
X132655612Y-125427177D01*
X132524416Y-125514839D01*
X132378644Y-125575220D01*
X132223894Y-125606001D01*
X132066108Y-125606001D01*
X131911358Y-125575220D01*
X131765586Y-125514839D01*
X131634390Y-125427177D01*
X131522825Y-125315612D01*
X131435163Y-125184416D01*
X131374782Y-125038644D01*
X131344001Y-124883894D01*
X131344001Y-124726108D01*
X131374782Y-124571358D01*
X131435163Y-124425586D01*
X131522825Y-124294390D01*
X131634390Y-124182825D01*
X131765586Y-124095163D01*
X131911358Y-124034782D01*
X132066108Y-124004001D01*
X132223894Y-124004001D01*
X132378644Y-124034782D01*
X132378644Y-124034782D01*
G37*
G36*
X192408644Y-124034782D02*
X192554416Y-124095163D01*
X192685612Y-124182825D01*
X192797177Y-124294390D01*
X192884839Y-124425586D01*
X192945220Y-124571358D01*
X192976001Y-124726108D01*
X192976001Y-124883894D01*
X192945220Y-125038644D01*
X192884839Y-125184416D01*
X192797177Y-125315612D01*
X192685612Y-125427177D01*
X192554416Y-125514839D01*
X192408644Y-125575220D01*
X192253894Y-125606001D01*
X192096108Y-125606001D01*
X191941358Y-125575220D01*
X191795586Y-125514839D01*
X191664390Y-125427177D01*
X191552825Y-125315612D01*
X191465163Y-125184416D01*
X191404782Y-125038644D01*
X191374001Y-124883894D01*
X191374001Y-124726108D01*
X191404782Y-124571358D01*
X191465163Y-124425586D01*
X191552825Y-124294390D01*
X191664390Y-124182825D01*
X191795586Y-124095163D01*
X191941358Y-124034782D01*
X192096108Y-124004001D01*
X192253894Y-124004001D01*
X192408644Y-124034782D01*
X192408644Y-124034782D01*
G37*
G36*
X134408644Y-124034782D02*
X134554416Y-124095163D01*
X134685612Y-124182825D01*
X134797177Y-124294390D01*
X134884839Y-124425586D01*
X134945220Y-124571358D01*
X134976001Y-124726108D01*
X134976001Y-124883894D01*
X134945220Y-125038644D01*
X134884839Y-125184416D01*
X134797177Y-125315612D01*
X134685612Y-125427177D01*
X134554416Y-125514839D01*
X134408644Y-125575220D01*
X134253894Y-125606001D01*
X134096108Y-125606001D01*
X133941358Y-125575220D01*
X133795586Y-125514839D01*
X133664390Y-125427177D01*
X133552825Y-125315612D01*
X133465163Y-125184416D01*
X133404782Y-125038644D01*
X133374001Y-124883894D01*
X133374001Y-124726108D01*
X133404782Y-124571358D01*
X133465163Y-124425586D01*
X133552825Y-124294390D01*
X133664390Y-124182825D01*
X133795586Y-124095163D01*
X133941358Y-124034782D01*
X134096108Y-124004001D01*
X134253894Y-124004001D01*
X134408644Y-124034782D01*
X134408644Y-124034782D01*
G37*
G36*
X163408644Y-124034782D02*
X163554416Y-124095163D01*
X163685612Y-124182825D01*
X163797177Y-124294390D01*
X163884839Y-124425586D01*
X163945220Y-124571358D01*
X163976001Y-124726108D01*
X163976001Y-124883894D01*
X163945220Y-125038644D01*
X163884839Y-125184416D01*
X163797177Y-125315612D01*
X163685612Y-125427177D01*
X163554416Y-125514839D01*
X163408644Y-125575220D01*
X163253894Y-125606001D01*
X163096108Y-125606001D01*
X162941358Y-125575220D01*
X162795586Y-125514839D01*
X162664390Y-125427177D01*
X162552825Y-125315612D01*
X162465163Y-125184416D01*
X162404782Y-125038644D01*
X162374001Y-124883894D01*
X162374001Y-124726108D01*
X162404782Y-124571358D01*
X162465163Y-124425586D01*
X162552825Y-124294390D01*
X162664390Y-124182825D01*
X162795586Y-124095163D01*
X162941358Y-124034782D01*
X163096108Y-124004001D01*
X163253894Y-124004001D01*
X163408644Y-124034782D01*
X163408644Y-124034782D01*
G37*
G36*
X127506565Y-120889389D02*
X127697834Y-120968615D01*
X127869976Y-121083637D01*
X128016363Y-121230024D01*
X128131385Y-121402166D01*
X128210611Y-121593435D01*
X128251000Y-121796484D01*
X128251000Y-122003516D01*
X128210611Y-122206565D01*
X128131385Y-122397834D01*
X128016363Y-122569976D01*
X127869976Y-122716363D01*
X127697834Y-122831385D01*
X127506565Y-122910611D01*
X127303516Y-122951000D01*
X127096484Y-122951000D01*
X126893435Y-122910611D01*
X126702166Y-122831385D01*
X126530024Y-122716363D01*
X126383637Y-122569976D01*
X126268615Y-122397834D01*
X126189389Y-122206565D01*
X126149000Y-122003516D01*
X126149000Y-121796484D01*
X126189389Y-121593435D01*
X126268615Y-121402166D01*
X126383637Y-121230024D01*
X126530024Y-121083637D01*
X126702166Y-120968615D01*
X126893435Y-120889389D01*
X127096484Y-120849000D01*
X127303516Y-120849000D01*
X127506565Y-120889389D01*
X127506565Y-120889389D01*
G37*
G36*
X156506565Y-120889389D02*
X156697834Y-120968615D01*
X156869976Y-121083637D01*
X157016363Y-121230024D01*
X157131385Y-121402166D01*
X157210611Y-121593435D01*
X157251000Y-121796484D01*
X157251000Y-122003516D01*
X157210611Y-122206565D01*
X157131385Y-122397834D01*
X157016363Y-122569976D01*
X156869976Y-122716363D01*
X156697834Y-122831385D01*
X156506565Y-122910611D01*
X156303516Y-122951000D01*
X156096484Y-122951000D01*
X155893435Y-122910611D01*
X155702166Y-122831385D01*
X155530024Y-122716363D01*
X155383637Y-122569976D01*
X155268615Y-122397834D01*
X155189389Y-122206565D01*
X155149000Y-122003516D01*
X155149000Y-121796484D01*
X155189389Y-121593435D01*
X155268615Y-121402166D01*
X155383637Y-121230024D01*
X155530024Y-121083637D01*
X155702166Y-120968615D01*
X155893435Y-120889389D01*
X156096484Y-120849000D01*
X156303516Y-120849000D01*
X156506565Y-120889389D01*
X156506565Y-120889389D01*
G37*
G36*
X185506565Y-120889389D02*
X185697834Y-120968615D01*
X185869976Y-121083637D01*
X186016363Y-121230024D01*
X186131385Y-121402166D01*
X186210611Y-121593435D01*
X186251000Y-121796484D01*
X186251000Y-122003516D01*
X186210611Y-122206565D01*
X186131385Y-122397834D01*
X186016363Y-122569976D01*
X185869976Y-122716363D01*
X185697834Y-122831385D01*
X185506565Y-122910611D01*
X185303516Y-122951000D01*
X185096484Y-122951000D01*
X184893435Y-122910611D01*
X184702166Y-122831385D01*
X184530024Y-122716363D01*
X184383637Y-122569976D01*
X184268615Y-122397834D01*
X184189389Y-122206565D01*
X184149000Y-122003516D01*
X184149000Y-121796484D01*
X184189389Y-121593435D01*
X184268615Y-121402166D01*
X184383637Y-121230024D01*
X184530024Y-121083637D01*
X184702166Y-120968615D01*
X184893435Y-120889389D01*
X185096484Y-120849000D01*
X185303516Y-120849000D01*
X185506565Y-120889389D01*
X185506565Y-120889389D01*
G37*
G36*
X201308621Y-118579302D02*
X201445022Y-118635801D01*
X201567779Y-118717825D01*
X201672175Y-118822221D01*
X201754199Y-118944978D01*
X201810698Y-119081379D01*
X201839500Y-119226181D01*
X201839500Y-119373819D01*
X201810698Y-119518621D01*
X201754199Y-119655022D01*
X201672175Y-119777779D01*
X201567779Y-119882175D01*
X201445022Y-119964199D01*
X201308621Y-120020698D01*
X201163819Y-120049500D01*
X201016181Y-120049500D01*
X200871379Y-120020698D01*
X200734978Y-119964199D01*
X200612221Y-119882175D01*
X200507825Y-119777779D01*
X200425801Y-119655022D01*
X200369302Y-119518621D01*
X200340500Y-119373819D01*
X200340500Y-119226181D01*
X200369302Y-119081379D01*
X200425801Y-118944978D01*
X200507825Y-118822221D01*
X200612221Y-118717825D01*
X200734978Y-118635801D01*
X200871379Y-118579302D01*
X201016181Y-118550500D01*
X201163819Y-118550500D01*
X201308621Y-118579302D01*
X201308621Y-118579302D01*
G37*
G36*
X196228621Y-118579302D02*
X196365022Y-118635801D01*
X196487779Y-118717825D01*
X196592175Y-118822221D01*
X196674199Y-118944978D01*
X196730698Y-119081379D01*
X196759500Y-119226181D01*
X196759500Y-119373819D01*
X196730698Y-119518621D01*
X196674199Y-119655022D01*
X196592175Y-119777779D01*
X196487779Y-119882175D01*
X196365022Y-119964199D01*
X196228621Y-120020698D01*
X196083819Y-120049500D01*
X195936181Y-120049500D01*
X195791379Y-120020698D01*
X195654978Y-119964199D01*
X195532221Y-119882175D01*
X195427825Y-119777779D01*
X195345801Y-119655022D01*
X195289302Y-119518621D01*
X195260500Y-119373819D01*
X195260500Y-119226181D01*
X195289302Y-119081379D01*
X195345801Y-118944978D01*
X195427825Y-118822221D01*
X195532221Y-118717825D01*
X195654978Y-118635801D01*
X195791379Y-118579302D01*
X195936181Y-118550500D01*
X196083819Y-118550500D01*
X196228621Y-118579302D01*
X196228621Y-118579302D01*
G37*
G36*
X167228621Y-118579302D02*
X167365022Y-118635801D01*
X167487779Y-118717825D01*
X167592175Y-118822221D01*
X167674199Y-118944978D01*
X167730698Y-119081379D01*
X167759500Y-119226181D01*
X167759500Y-119373819D01*
X167730698Y-119518621D01*
X167674199Y-119655022D01*
X167592175Y-119777779D01*
X167487779Y-119882175D01*
X167365022Y-119964199D01*
X167228621Y-120020698D01*
X167083819Y-120049500D01*
X166936181Y-120049500D01*
X166791379Y-120020698D01*
X166654978Y-119964199D01*
X166532221Y-119882175D01*
X166427825Y-119777779D01*
X166345801Y-119655022D01*
X166289302Y-119518621D01*
X166260500Y-119373819D01*
X166260500Y-119226181D01*
X166289302Y-119081379D01*
X166345801Y-118944978D01*
X166427825Y-118822221D01*
X166532221Y-118717825D01*
X166654978Y-118635801D01*
X166791379Y-118579302D01*
X166936181Y-118550500D01*
X167083819Y-118550500D01*
X167228621Y-118579302D01*
X167228621Y-118579302D01*
G37*
G36*
X172308621Y-118579302D02*
X172445022Y-118635801D01*
X172567779Y-118717825D01*
X172672175Y-118822221D01*
X172754199Y-118944978D01*
X172810698Y-119081379D01*
X172839500Y-119226181D01*
X172839500Y-119373819D01*
X172810698Y-119518621D01*
X172754199Y-119655022D01*
X172672175Y-119777779D01*
X172567779Y-119882175D01*
X172445022Y-119964199D01*
X172308621Y-120020698D01*
X172163819Y-120049500D01*
X172016181Y-120049500D01*
X171871379Y-120020698D01*
X171734978Y-119964199D01*
X171612221Y-119882175D01*
X171507825Y-119777779D01*
X171425801Y-119655022D01*
X171369302Y-119518621D01*
X171340500Y-119373819D01*
X171340500Y-119226181D01*
X171369302Y-119081379D01*
X171425801Y-118944978D01*
X171507825Y-118822221D01*
X171612221Y-118717825D01*
X171734978Y-118635801D01*
X171871379Y-118579302D01*
X172016181Y-118550500D01*
X172163819Y-118550500D01*
X172308621Y-118579302D01*
X172308621Y-118579302D01*
G37*
G36*
X138228621Y-118579302D02*
X138365022Y-118635801D01*
X138487779Y-118717825D01*
X138592175Y-118822221D01*
X138674199Y-118944978D01*
X138730698Y-119081379D01*
X138759500Y-119226181D01*
X138759500Y-119373819D01*
X138730698Y-119518621D01*
X138674199Y-119655022D01*
X138592175Y-119777779D01*
X138487779Y-119882175D01*
X138365022Y-119964199D01*
X138228621Y-120020698D01*
X138083819Y-120049500D01*
X137936181Y-120049500D01*
X137791379Y-120020698D01*
X137654978Y-119964199D01*
X137532221Y-119882175D01*
X137427825Y-119777779D01*
X137345801Y-119655022D01*
X137289302Y-119518621D01*
X137260500Y-119373819D01*
X137260500Y-119226181D01*
X137289302Y-119081379D01*
X137345801Y-118944978D01*
X137427825Y-118822221D01*
X137532221Y-118717825D01*
X137654978Y-118635801D01*
X137791379Y-118579302D01*
X137936181Y-118550500D01*
X138083819Y-118550500D01*
X138228621Y-118579302D01*
X138228621Y-118579302D01*
G37*
G36*
X143308621Y-118579302D02*
X143445022Y-118635801D01*
X143567779Y-118717825D01*
X143672175Y-118822221D01*
X143754199Y-118944978D01*
X143810698Y-119081379D01*
X143839500Y-119226181D01*
X143839500Y-119373819D01*
X143810698Y-119518621D01*
X143754199Y-119655022D01*
X143672175Y-119777779D01*
X143567779Y-119882175D01*
X143445022Y-119964199D01*
X143308621Y-120020698D01*
X143163819Y-120049500D01*
X143016181Y-120049500D01*
X142871379Y-120020698D01*
X142734978Y-119964199D01*
X142612221Y-119882175D01*
X142507825Y-119777779D01*
X142425801Y-119655022D01*
X142369302Y-119518621D01*
X142340500Y-119373819D01*
X142340500Y-119226181D01*
X142369302Y-119081379D01*
X142425801Y-118944978D01*
X142507825Y-118822221D01*
X142612221Y-118717825D01*
X142734978Y-118635801D01*
X142871379Y-118579302D01*
X143016181Y-118550500D01*
X143163819Y-118550500D01*
X143308621Y-118579302D01*
X143308621Y-118579302D01*
G37*
G36*
X198746565Y-114599389D02*
X198937834Y-114678615D01*
X199109976Y-114793637D01*
X199256363Y-114940024D01*
X199371385Y-115112166D01*
X199450611Y-115303435D01*
X199491000Y-115506484D01*
X199491000Y-115713516D01*
X199450611Y-115916565D01*
X199371385Y-116107834D01*
X199256363Y-116279976D01*
X199109976Y-116426363D01*
X198937834Y-116541385D01*
X198746565Y-116620611D01*
X198543516Y-116661000D01*
X198336484Y-116661000D01*
X198133435Y-116620611D01*
X197942166Y-116541385D01*
X197770024Y-116426363D01*
X197623637Y-116279976D01*
X197508615Y-116107834D01*
X197429389Y-115916565D01*
X197389000Y-115713516D01*
X197389000Y-115506484D01*
X197429389Y-115303435D01*
X197508615Y-115112166D01*
X197623637Y-114940024D01*
X197770024Y-114793637D01*
X197942166Y-114678615D01*
X198133435Y-114599389D01*
X198336484Y-114559000D01*
X198543516Y-114559000D01*
X198746565Y-114599389D01*
X198746565Y-114599389D01*
G37*
G36*
X140746565Y-114599389D02*
X140937834Y-114678615D01*
X141109976Y-114793637D01*
X141256363Y-114940024D01*
X141371385Y-115112166D01*
X141450611Y-115303435D01*
X141491000Y-115506484D01*
X141491000Y-115713516D01*
X141450611Y-115916565D01*
X141371385Y-116107834D01*
X141256363Y-116279976D01*
X141109976Y-116426363D01*
X140937834Y-116541385D01*
X140746565Y-116620611D01*
X140543516Y-116661000D01*
X140336484Y-116661000D01*
X140133435Y-116620611D01*
X139942166Y-116541385D01*
X139770024Y-116426363D01*
X139623637Y-116279976D01*
X139508615Y-116107834D01*
X139429389Y-115916565D01*
X139389000Y-115713516D01*
X139389000Y-115506484D01*
X139429389Y-115303435D01*
X139508615Y-115112166D01*
X139623637Y-114940024D01*
X139770024Y-114793637D01*
X139942166Y-114678615D01*
X140133435Y-114599389D01*
X140336484Y-114559000D01*
X140543516Y-114559000D01*
X140746565Y-114599389D01*
X140746565Y-114599389D01*
G37*
G36*
X169746565Y-114599389D02*
X169937834Y-114678615D01*
X170109976Y-114793637D01*
X170256363Y-114940024D01*
X170371385Y-115112166D01*
X170450611Y-115303435D01*
X170491000Y-115506484D01*
X170491000Y-115713516D01*
X170450611Y-115916565D01*
X170371385Y-116107834D01*
X170256363Y-116279976D01*
X170109976Y-116426363D01*
X169937834Y-116541385D01*
X169746565Y-116620611D01*
X169543516Y-116661000D01*
X169336484Y-116661000D01*
X169133435Y-116620611D01*
X168942166Y-116541385D01*
X168770024Y-116426363D01*
X168623637Y-116279976D01*
X168508615Y-116107834D01*
X168429389Y-115916565D01*
X168389000Y-115713516D01*
X168389000Y-115506484D01*
X168429389Y-115303435D01*
X168508615Y-115112166D01*
X168623637Y-114940024D01*
X168770024Y-114793637D01*
X168942166Y-114678615D01*
X169133435Y-114599389D01*
X169336484Y-114559000D01*
X169543516Y-114559000D01*
X169746565Y-114599389D01*
X169746565Y-114599389D01*
G37*
G36*
X196228621Y-110959302D02*
X196365022Y-111015801D01*
X196487779Y-111097825D01*
X196592175Y-111202221D01*
X196674199Y-111324978D01*
X196730698Y-111461379D01*
X196759500Y-111606181D01*
X196759500Y-111753819D01*
X196730698Y-111898621D01*
X196674199Y-112035022D01*
X196592175Y-112157779D01*
X196487779Y-112262175D01*
X196365022Y-112344199D01*
X196228621Y-112400698D01*
X196083819Y-112429500D01*
X195936181Y-112429500D01*
X195791379Y-112400698D01*
X195654978Y-112344199D01*
X195532221Y-112262175D01*
X195427825Y-112157779D01*
X195345801Y-112035022D01*
X195289302Y-111898621D01*
X195260500Y-111753819D01*
X195260500Y-111606181D01*
X195289302Y-111461379D01*
X195345801Y-111324978D01*
X195427825Y-111202221D01*
X195532221Y-111097825D01*
X195654978Y-111015801D01*
X195791379Y-110959302D01*
X195936181Y-110930500D01*
X196083819Y-110930500D01*
X196228621Y-110959302D01*
X196228621Y-110959302D01*
G37*
G36*
X143308621Y-110959302D02*
X143445022Y-111015801D01*
X143567779Y-111097825D01*
X143672175Y-111202221D01*
X143754199Y-111324978D01*
X143810698Y-111461379D01*
X143839500Y-111606181D01*
X143839500Y-111753819D01*
X143810698Y-111898621D01*
X143754199Y-112035022D01*
X143672175Y-112157779D01*
X143567779Y-112262175D01*
X143445022Y-112344199D01*
X143308621Y-112400698D01*
X143163819Y-112429500D01*
X143016181Y-112429500D01*
X142871379Y-112400698D01*
X142734978Y-112344199D01*
X142612221Y-112262175D01*
X142507825Y-112157779D01*
X142425801Y-112035022D01*
X142369302Y-111898621D01*
X142340500Y-111753819D01*
X142340500Y-111606181D01*
X142369302Y-111461379D01*
X142425801Y-111324978D01*
X142507825Y-111202221D01*
X142612221Y-111097825D01*
X142734978Y-111015801D01*
X142871379Y-110959302D01*
X143016181Y-110930500D01*
X143163819Y-110930500D01*
X143308621Y-110959302D01*
X143308621Y-110959302D01*
G37*
G36*
X138228621Y-110959302D02*
X138365022Y-111015801D01*
X138487779Y-111097825D01*
X138592175Y-111202221D01*
X138674199Y-111324978D01*
X138730698Y-111461379D01*
X138759500Y-111606181D01*
X138759500Y-111753819D01*
X138730698Y-111898621D01*
X138674199Y-112035022D01*
X138592175Y-112157779D01*
X138487779Y-112262175D01*
X138365022Y-112344199D01*
X138228621Y-112400698D01*
X138083819Y-112429500D01*
X137936181Y-112429500D01*
X137791379Y-112400698D01*
X137654978Y-112344199D01*
X137532221Y-112262175D01*
X137427825Y-112157779D01*
X137345801Y-112035022D01*
X137289302Y-111898621D01*
X137260500Y-111753819D01*
X137260500Y-111606181D01*
X137289302Y-111461379D01*
X137345801Y-111324978D01*
X137427825Y-111202221D01*
X137532221Y-111097825D01*
X137654978Y-111015801D01*
X137791379Y-110959302D01*
X137936181Y-110930500D01*
X138083819Y-110930500D01*
X138228621Y-110959302D01*
X138228621Y-110959302D01*
G37*
G36*
X172308621Y-110959302D02*
X172445022Y-111015801D01*
X172567779Y-111097825D01*
X172672175Y-111202221D01*
X172754199Y-111324978D01*
X172810698Y-111461379D01*
X172839500Y-111606181D01*
X172839500Y-111753819D01*
X172810698Y-111898621D01*
X172754199Y-112035022D01*
X172672175Y-112157779D01*
X172567779Y-112262175D01*
X172445022Y-112344199D01*
X172308621Y-112400698D01*
X172163819Y-112429500D01*
X172016181Y-112429500D01*
X171871379Y-112400698D01*
X171734978Y-112344199D01*
X171612221Y-112262175D01*
X171507825Y-112157779D01*
X171425801Y-112035022D01*
X171369302Y-111898621D01*
X171340500Y-111753819D01*
X171340500Y-111606181D01*
X171369302Y-111461379D01*
X171425801Y-111324978D01*
X171507825Y-111202221D01*
X171612221Y-111097825D01*
X171734978Y-111015801D01*
X171871379Y-110959302D01*
X172016181Y-110930500D01*
X172163819Y-110930500D01*
X172308621Y-110959302D01*
X172308621Y-110959302D01*
G37*
G36*
X167228621Y-110959302D02*
X167365022Y-111015801D01*
X167487779Y-111097825D01*
X167592175Y-111202221D01*
X167674199Y-111324978D01*
X167730698Y-111461379D01*
X167759500Y-111606181D01*
X167759500Y-111753819D01*
X167730698Y-111898621D01*
X167674199Y-112035022D01*
X167592175Y-112157779D01*
X167487779Y-112262175D01*
X167365022Y-112344199D01*
X167228621Y-112400698D01*
X167083819Y-112429500D01*
X166936181Y-112429500D01*
X166791379Y-112400698D01*
X166654978Y-112344199D01*
X166532221Y-112262175D01*
X166427825Y-112157779D01*
X166345801Y-112035022D01*
X166289302Y-111898621D01*
X166260500Y-111753819D01*
X166260500Y-111606181D01*
X166289302Y-111461379D01*
X166345801Y-111324978D01*
X166427825Y-111202221D01*
X166532221Y-111097825D01*
X166654978Y-111015801D01*
X166791379Y-110959302D01*
X166936181Y-110930500D01*
X167083819Y-110930500D01*
X167228621Y-110959302D01*
X167228621Y-110959302D01*
G37*
G36*
X201308621Y-110959302D02*
X201445022Y-111015801D01*
X201567779Y-111097825D01*
X201672175Y-111202221D01*
X201754199Y-111324978D01*
X201810698Y-111461379D01*
X201839500Y-111606181D01*
X201839500Y-111753819D01*
X201810698Y-111898621D01*
X201754199Y-112035022D01*
X201672175Y-112157779D01*
X201567779Y-112262175D01*
X201445022Y-112344199D01*
X201308621Y-112400698D01*
X201163819Y-112429500D01*
X201016181Y-112429500D01*
X200871379Y-112400698D01*
X200734978Y-112344199D01*
X200612221Y-112262175D01*
X200507825Y-112157779D01*
X200425801Y-112035022D01*
X200369302Y-111898621D01*
X200340500Y-111753819D01*
X200340500Y-111606181D01*
X200369302Y-111461379D01*
X200425801Y-111324978D01*
X200507825Y-111202221D01*
X200612221Y-111097825D01*
X200734978Y-111015801D01*
X200871379Y-110959302D01*
X201016181Y-110930500D01*
X201163819Y-110930500D01*
X201308621Y-110959302D01*
X201308621Y-110959302D01*
G37*
G36*
X190596565Y-96139389D02*
X190787834Y-96218615D01*
X190959976Y-96333637D01*
X191106363Y-96480024D01*
X191221385Y-96652166D01*
X191300611Y-96843435D01*
X191341000Y-97046484D01*
X191341000Y-97253516D01*
X191300611Y-97456565D01*
X191221385Y-97647834D01*
X191106363Y-97819976D01*
X190959976Y-97966363D01*
X190787834Y-98081385D01*
X190596565Y-98160611D01*
X190393516Y-98201000D01*
X190186484Y-98201000D01*
X189983435Y-98160611D01*
X189792166Y-98081385D01*
X189620024Y-97966363D01*
X189473637Y-97819976D01*
X189358615Y-97647834D01*
X189279389Y-97456565D01*
X189239000Y-97253516D01*
X189239000Y-97046484D01*
X189279389Y-96843435D01*
X189358615Y-96652166D01*
X189473637Y-96480024D01*
X189620024Y-96333637D01*
X189792166Y-96218615D01*
X189983435Y-96139389D01*
X190186484Y-96099000D01*
X190393516Y-96099000D01*
X190596565Y-96139389D01*
X190596565Y-96139389D01*
G37*
G36*
X132596565Y-96139389D02*
X132787834Y-96218615D01*
X132959976Y-96333637D01*
X133106363Y-96480024D01*
X133221385Y-96652166D01*
X133300611Y-96843435D01*
X133341000Y-97046484D01*
X133341000Y-97253516D01*
X133300611Y-97456565D01*
X133221385Y-97647834D01*
X133106363Y-97819976D01*
X132959976Y-97966363D01*
X132787834Y-98081385D01*
X132596565Y-98160611D01*
X132393516Y-98201000D01*
X132186484Y-98201000D01*
X131983435Y-98160611D01*
X131792166Y-98081385D01*
X131620024Y-97966363D01*
X131473637Y-97819976D01*
X131358615Y-97647834D01*
X131279389Y-97456565D01*
X131239000Y-97253516D01*
X131239000Y-97046484D01*
X131279389Y-96843435D01*
X131358615Y-96652166D01*
X131473637Y-96480024D01*
X131620024Y-96333637D01*
X131792166Y-96218615D01*
X131983435Y-96139389D01*
X132186484Y-96099000D01*
X132393516Y-96099000D01*
X132596565Y-96139389D01*
X132596565Y-96139389D01*
G37*
G36*
X161596565Y-96139389D02*
X161787834Y-96218615D01*
X161959976Y-96333637D01*
X162106363Y-96480024D01*
X162221385Y-96652166D01*
X162300611Y-96843435D01*
X162341000Y-97046484D01*
X162341000Y-97253516D01*
X162300611Y-97456565D01*
X162221385Y-97647834D01*
X162106363Y-97819976D01*
X161959976Y-97966363D01*
X161787834Y-98081385D01*
X161596565Y-98160611D01*
X161393516Y-98201000D01*
X161186484Y-98201000D01*
X160983435Y-98160611D01*
X160792166Y-98081385D01*
X160620024Y-97966363D01*
X160473637Y-97819976D01*
X160358615Y-97647834D01*
X160279389Y-97456565D01*
X160239000Y-97253516D01*
X160239000Y-97046484D01*
X160279389Y-96843435D01*
X160358615Y-96652166D01*
X160473637Y-96480024D01*
X160620024Y-96333637D01*
X160792166Y-96218615D01*
X160983435Y-96139389D01*
X161186484Y-96099000D01*
X161393516Y-96099000D01*
X161596565Y-96139389D01*
X161596565Y-96139389D01*
G37*
G36*
X136376565Y-94249389D02*
X136567834Y-94328615D01*
X136739976Y-94443637D01*
X136886363Y-94590024D01*
X137001385Y-94762166D01*
X137080611Y-94953435D01*
X137121000Y-95156484D01*
X137121000Y-95363516D01*
X137080611Y-95566565D01*
X137001385Y-95757834D01*
X136886363Y-95929976D01*
X136739976Y-96076363D01*
X136567834Y-96191385D01*
X136376565Y-96270611D01*
X136173516Y-96311000D01*
X135966484Y-96311000D01*
X135763435Y-96270611D01*
X135572166Y-96191385D01*
X135400024Y-96076363D01*
X135253637Y-95929976D01*
X135138615Y-95757834D01*
X135059389Y-95566565D01*
X135019000Y-95363516D01*
X135019000Y-95156484D01*
X135059389Y-94953435D01*
X135138615Y-94762166D01*
X135253637Y-94590024D01*
X135400024Y-94443637D01*
X135572166Y-94328615D01*
X135763435Y-94249389D01*
X135966484Y-94209000D01*
X136173516Y-94209000D01*
X136376565Y-94249389D01*
X136376565Y-94249389D01*
G37*
G36*
X194376565Y-94249389D02*
X194567834Y-94328615D01*
X194739976Y-94443637D01*
X194886363Y-94590024D01*
X195001385Y-94762166D01*
X195080611Y-94953435D01*
X195121000Y-95156484D01*
X195121000Y-95363516D01*
X195080611Y-95566565D01*
X195001385Y-95757834D01*
X194886363Y-95929976D01*
X194739976Y-96076363D01*
X194567834Y-96191385D01*
X194376565Y-96270611D01*
X194173516Y-96311000D01*
X193966484Y-96311000D01*
X193763435Y-96270611D01*
X193572166Y-96191385D01*
X193400024Y-96076363D01*
X193253637Y-95929976D01*
X193138615Y-95757834D01*
X193059389Y-95566565D01*
X193019000Y-95363516D01*
X193019000Y-95156484D01*
X193059389Y-94953435D01*
X193138615Y-94762166D01*
X193253637Y-94590024D01*
X193400024Y-94443637D01*
X193572166Y-94328615D01*
X193763435Y-94249389D01*
X193966484Y-94209000D01*
X194173516Y-94209000D01*
X194376565Y-94249389D01*
X194376565Y-94249389D01*
G37*
G36*
X165376565Y-94249389D02*
X165567834Y-94328615D01*
X165739976Y-94443637D01*
X165886363Y-94590024D01*
X166001385Y-94762166D01*
X166080611Y-94953435D01*
X166121000Y-95156484D01*
X166121000Y-95363516D01*
X166080611Y-95566565D01*
X166001385Y-95757834D01*
X165886363Y-95929976D01*
X165739976Y-96076363D01*
X165567834Y-96191385D01*
X165376565Y-96270611D01*
X165173516Y-96311000D01*
X164966484Y-96311000D01*
X164763435Y-96270611D01*
X164572166Y-96191385D01*
X164400024Y-96076363D01*
X164253637Y-95929976D01*
X164138615Y-95757834D01*
X164059389Y-95566565D01*
X164019000Y-95363516D01*
X164019000Y-95156484D01*
X164059389Y-94953435D01*
X164138615Y-94762166D01*
X164253637Y-94590024D01*
X164400024Y-94443637D01*
X164572166Y-94328615D01*
X164763435Y-94249389D01*
X164966484Y-94209000D01*
X165173516Y-94209000D01*
X165376565Y-94249389D01*
X165376565Y-94249389D01*
G37*
G36*
X187706565Y-94229389D02*
X187897834Y-94308615D01*
X188069976Y-94423637D01*
X188216363Y-94570024D01*
X188331385Y-94742166D01*
X188410611Y-94933435D01*
X188451000Y-95136484D01*
X188451000Y-95343516D01*
X188410611Y-95546565D01*
X188331385Y-95737834D01*
X188216363Y-95909976D01*
X188069976Y-96056363D01*
X187897834Y-96171385D01*
X187706565Y-96250611D01*
X187503516Y-96291000D01*
X187296484Y-96291000D01*
X187093435Y-96250611D01*
X186902166Y-96171385D01*
X186730024Y-96056363D01*
X186583637Y-95909976D01*
X186468615Y-95737834D01*
X186389389Y-95546565D01*
X186349000Y-95343516D01*
X186349000Y-95136484D01*
X186389389Y-94933435D01*
X186468615Y-94742166D01*
X186583637Y-94570024D01*
X186730024Y-94423637D01*
X186902166Y-94308615D01*
X187093435Y-94229389D01*
X187296484Y-94189000D01*
X187503516Y-94189000D01*
X187706565Y-94229389D01*
X187706565Y-94229389D01*
G37*
G36*
X129706565Y-94229389D02*
X129897834Y-94308615D01*
X130069976Y-94423637D01*
X130216363Y-94570024D01*
X130331385Y-94742166D01*
X130410611Y-94933435D01*
X130451000Y-95136484D01*
X130451000Y-95343516D01*
X130410611Y-95546565D01*
X130331385Y-95737834D01*
X130216363Y-95909976D01*
X130069976Y-96056363D01*
X129897834Y-96171385D01*
X129706565Y-96250611D01*
X129503516Y-96291000D01*
X129296484Y-96291000D01*
X129093435Y-96250611D01*
X128902166Y-96171385D01*
X128730024Y-96056363D01*
X128583637Y-95909976D01*
X128468615Y-95737834D01*
X128389389Y-95546565D01*
X128349000Y-95343516D01*
X128349000Y-95136484D01*
X128389389Y-94933435D01*
X128468615Y-94742166D01*
X128583637Y-94570024D01*
X128730024Y-94423637D01*
X128902166Y-94308615D01*
X129093435Y-94229389D01*
X129296484Y-94189000D01*
X129503516Y-94189000D01*
X129706565Y-94229389D01*
X129706565Y-94229389D01*
G37*
G36*
X158706565Y-94229389D02*
X158897834Y-94308615D01*
X159069976Y-94423637D01*
X159216363Y-94570024D01*
X159331385Y-94742166D01*
X159410611Y-94933435D01*
X159451000Y-95136484D01*
X159451000Y-95343516D01*
X159410611Y-95546565D01*
X159331385Y-95737834D01*
X159216363Y-95909976D01*
X159069976Y-96056363D01*
X158897834Y-96171385D01*
X158706565Y-96250611D01*
X158503516Y-96291000D01*
X158296484Y-96291000D01*
X158093435Y-96250611D01*
X157902166Y-96171385D01*
X157730024Y-96056363D01*
X157583637Y-95909976D01*
X157468615Y-95737834D01*
X157389389Y-95546565D01*
X157349000Y-95343516D01*
X157349000Y-95136484D01*
X157389389Y-94933435D01*
X157468615Y-94742166D01*
X157583637Y-94570024D01*
X157730024Y-94423637D01*
X157902166Y-94308615D01*
X158093435Y-94229389D01*
X158296484Y-94189000D01*
X158503516Y-94189000D01*
X158706565Y-94229389D01*
X158706565Y-94229389D01*
G37*
G36*
X169117528Y-91763737D02*
X169217411Y-91783605D01*
X169499675Y-91900522D01*
X169753706Y-92070260D01*
X169969742Y-92286296D01*
X170139480Y-92540327D01*
X170256397Y-92822591D01*
X170316001Y-93122241D01*
X170316001Y-93427761D01*
X170256397Y-93727411D01*
X170139480Y-94009675D01*
X169969742Y-94263706D01*
X169753706Y-94479742D01*
X169499675Y-94649480D01*
X169217411Y-94766397D01*
X169117528Y-94786265D01*
X168917763Y-94826001D01*
X168612239Y-94826001D01*
X168412474Y-94786265D01*
X168312591Y-94766397D01*
X168030327Y-94649480D01*
X167776296Y-94479742D01*
X167560260Y-94263706D01*
X167390522Y-94009675D01*
X167273605Y-93727411D01*
X167214001Y-93427761D01*
X167214001Y-93122241D01*
X167273605Y-92822591D01*
X167390522Y-92540327D01*
X167560260Y-92286296D01*
X167776296Y-92070260D01*
X168030327Y-91900522D01*
X168312591Y-91783605D01*
X168412474Y-91763737D01*
X168612239Y-91724001D01*
X168917763Y-91724001D01*
X169117528Y-91763737D01*
X169117528Y-91763737D01*
G37*
G36*
X140117528Y-91763737D02*
X140217411Y-91783605D01*
X140499675Y-91900522D01*
X140753706Y-92070260D01*
X140969742Y-92286296D01*
X141139480Y-92540327D01*
X141256397Y-92822591D01*
X141316001Y-93122241D01*
X141316001Y-93427761D01*
X141256397Y-93727411D01*
X141139480Y-94009675D01*
X140969742Y-94263706D01*
X140753706Y-94479742D01*
X140499675Y-94649480D01*
X140217411Y-94766397D01*
X140117528Y-94786265D01*
X139917763Y-94826001D01*
X139612239Y-94826001D01*
X139412474Y-94786265D01*
X139312591Y-94766397D01*
X139030327Y-94649480D01*
X138776296Y-94479742D01*
X138560260Y-94263706D01*
X138390522Y-94009675D01*
X138273605Y-93727411D01*
X138214001Y-93427761D01*
X138214001Y-93122241D01*
X138273605Y-92822591D01*
X138390522Y-92540327D01*
X138560260Y-92286296D01*
X138776296Y-92070260D01*
X139030327Y-91900522D01*
X139312591Y-91783605D01*
X139412474Y-91763737D01*
X139612239Y-91724001D01*
X139917763Y-91724001D01*
X140117528Y-91763737D01*
X140117528Y-91763737D01*
G37*
G36*
X155397528Y-91763737D02*
X155497411Y-91783605D01*
X155779675Y-91900522D01*
X156033706Y-92070260D01*
X156249742Y-92286296D01*
X156419480Y-92540327D01*
X156536397Y-92822591D01*
X156596001Y-93122241D01*
X156596001Y-93427761D01*
X156536397Y-93727411D01*
X156419480Y-94009675D01*
X156249742Y-94263706D01*
X156033706Y-94479742D01*
X155779675Y-94649480D01*
X155497411Y-94766397D01*
X155397528Y-94786265D01*
X155197763Y-94826001D01*
X154892239Y-94826001D01*
X154692474Y-94786265D01*
X154592591Y-94766397D01*
X154310327Y-94649480D01*
X154056296Y-94479742D01*
X153840260Y-94263706D01*
X153670522Y-94009675D01*
X153553605Y-93727411D01*
X153494001Y-93427761D01*
X153494001Y-93122241D01*
X153553605Y-92822591D01*
X153670522Y-92540327D01*
X153840260Y-92286296D01*
X154056296Y-92070260D01*
X154310327Y-91900522D01*
X154592591Y-91783605D01*
X154692474Y-91763737D01*
X154892239Y-91724001D01*
X155197763Y-91724001D01*
X155397528Y-91763737D01*
X155397528Y-91763737D01*
G37*
G36*
X184397528Y-91763737D02*
X184497411Y-91783605D01*
X184779675Y-91900522D01*
X185033706Y-92070260D01*
X185249742Y-92286296D01*
X185419480Y-92540327D01*
X185536397Y-92822591D01*
X185596001Y-93122241D01*
X185596001Y-93427761D01*
X185536397Y-93727411D01*
X185419480Y-94009675D01*
X185249742Y-94263706D01*
X185033706Y-94479742D01*
X184779675Y-94649480D01*
X184497411Y-94766397D01*
X184397528Y-94786265D01*
X184197763Y-94826001D01*
X183892239Y-94826001D01*
X183692474Y-94786265D01*
X183592591Y-94766397D01*
X183310327Y-94649480D01*
X183056296Y-94479742D01*
X182840260Y-94263706D01*
X182670522Y-94009675D01*
X182553605Y-93727411D01*
X182494001Y-93427761D01*
X182494001Y-93122241D01*
X182553605Y-92822591D01*
X182670522Y-92540327D01*
X182840260Y-92286296D01*
X183056296Y-92070260D01*
X183310327Y-91900522D01*
X183592591Y-91783605D01*
X183692474Y-91763737D01*
X183892239Y-91724001D01*
X184197763Y-91724001D01*
X184397528Y-91763737D01*
X184397528Y-91763737D01*
G37*
G36*
X198117528Y-91763737D02*
X198217411Y-91783605D01*
X198499675Y-91900522D01*
X198753706Y-92070260D01*
X198969742Y-92286296D01*
X199139480Y-92540327D01*
X199256397Y-92822591D01*
X199316001Y-93122241D01*
X199316001Y-93427761D01*
X199256397Y-93727411D01*
X199139480Y-94009675D01*
X198969742Y-94263706D01*
X198753706Y-94479742D01*
X198499675Y-94649480D01*
X198217411Y-94766397D01*
X198117528Y-94786265D01*
X197917763Y-94826001D01*
X197612239Y-94826001D01*
X197412474Y-94786265D01*
X197312591Y-94766397D01*
X197030327Y-94649480D01*
X196776296Y-94479742D01*
X196560260Y-94263706D01*
X196390522Y-94009675D01*
X196273605Y-93727411D01*
X196214001Y-93427761D01*
X196214001Y-93122241D01*
X196273605Y-92822591D01*
X196390522Y-92540327D01*
X196560260Y-92286296D01*
X196776296Y-92070260D01*
X197030327Y-91900522D01*
X197312591Y-91783605D01*
X197412474Y-91763737D01*
X197612239Y-91724001D01*
X197917763Y-91724001D01*
X198117528Y-91763737D01*
X198117528Y-91763737D01*
G37*
G36*
X126397528Y-91763737D02*
X126497411Y-91783605D01*
X126779675Y-91900522D01*
X127033706Y-92070260D01*
X127249742Y-92286296D01*
X127419480Y-92540327D01*
X127536397Y-92822591D01*
X127596001Y-93122241D01*
X127596001Y-93427761D01*
X127536397Y-93727411D01*
X127419480Y-94009675D01*
X127249742Y-94263706D01*
X127033706Y-94479742D01*
X126779675Y-94649480D01*
X126497411Y-94766397D01*
X126397528Y-94786265D01*
X126197763Y-94826001D01*
X125892239Y-94826001D01*
X125692474Y-94786265D01*
X125592591Y-94766397D01*
X125310327Y-94649480D01*
X125056296Y-94479742D01*
X124840260Y-94263706D01*
X124670522Y-94009675D01*
X124553605Y-93727411D01*
X124494001Y-93427761D01*
X124494001Y-93122241D01*
X124553605Y-92822591D01*
X124670522Y-92540327D01*
X124840260Y-92286296D01*
X125056296Y-92070260D01*
X125310327Y-91900522D01*
X125592591Y-91783605D01*
X125692474Y-91763737D01*
X125892239Y-91724001D01*
X126197763Y-91724001D01*
X126397528Y-91763737D01*
X126397528Y-91763737D01*
G37*
G36*
X190378644Y-89834782D02*
X190524416Y-89895163D01*
X190655612Y-89982825D01*
X190767177Y-90094390D01*
X190854839Y-90225586D01*
X190915220Y-90371358D01*
X190946001Y-90526108D01*
X190946001Y-90683894D01*
X190915220Y-90838644D01*
X190854839Y-90984416D01*
X190767177Y-91115612D01*
X190655612Y-91227177D01*
X190524416Y-91314839D01*
X190378644Y-91375220D01*
X190223894Y-91406001D01*
X190066108Y-91406001D01*
X189911358Y-91375220D01*
X189765586Y-91314839D01*
X189634390Y-91227177D01*
X189522825Y-91115612D01*
X189435163Y-90984416D01*
X189374782Y-90838644D01*
X189344001Y-90683894D01*
X189344001Y-90526108D01*
X189374782Y-90371358D01*
X189435163Y-90225586D01*
X189522825Y-90094390D01*
X189634390Y-89982825D01*
X189765586Y-89895163D01*
X189911358Y-89834782D01*
X190066108Y-89804001D01*
X190223894Y-89804001D01*
X190378644Y-89834782D01*
X190378644Y-89834782D01*
G37*
G36*
X192408644Y-89834782D02*
X192554416Y-89895163D01*
X192685612Y-89982825D01*
X192797177Y-90094390D01*
X192884839Y-90225586D01*
X192945220Y-90371358D01*
X192976001Y-90526108D01*
X192976001Y-90683894D01*
X192945220Y-90838644D01*
X192884839Y-90984416D01*
X192797177Y-91115612D01*
X192685612Y-91227177D01*
X192554416Y-91314839D01*
X192408644Y-91375220D01*
X192253894Y-91406001D01*
X192096108Y-91406001D01*
X191941358Y-91375220D01*
X191795586Y-91314839D01*
X191664390Y-91227177D01*
X191552825Y-91115612D01*
X191465163Y-90984416D01*
X191404782Y-90838644D01*
X191374001Y-90683894D01*
X191374001Y-90526108D01*
X191404782Y-90371358D01*
X191465163Y-90225586D01*
X191552825Y-90094390D01*
X191664390Y-89982825D01*
X191795586Y-89895163D01*
X191941358Y-89834782D01*
X192096108Y-89804001D01*
X192253894Y-89804001D01*
X192408644Y-89834782D01*
X192408644Y-89834782D01*
G37*
G36*
X161378644Y-89834782D02*
X161524416Y-89895163D01*
X161655612Y-89982825D01*
X161767177Y-90094390D01*
X161854839Y-90225586D01*
X161915220Y-90371358D01*
X161946001Y-90526108D01*
X161946001Y-90683894D01*
X161915220Y-90838644D01*
X161854839Y-90984416D01*
X161767177Y-91115612D01*
X161655612Y-91227177D01*
X161524416Y-91314839D01*
X161378644Y-91375220D01*
X161223894Y-91406001D01*
X161066108Y-91406001D01*
X160911358Y-91375220D01*
X160765586Y-91314839D01*
X160634390Y-91227177D01*
X160522825Y-91115612D01*
X160435163Y-90984416D01*
X160374782Y-90838644D01*
X160344001Y-90683894D01*
X160344001Y-90526108D01*
X160374782Y-90371358D01*
X160435163Y-90225586D01*
X160522825Y-90094390D01*
X160634390Y-89982825D01*
X160765586Y-89895163D01*
X160911358Y-89834782D01*
X161066108Y-89804001D01*
X161223894Y-89804001D01*
X161378644Y-89834782D01*
X161378644Y-89834782D01*
G37*
G36*
X187838644Y-89834782D02*
X187984416Y-89895163D01*
X188115612Y-89982825D01*
X188227177Y-90094390D01*
X188314839Y-90225586D01*
X188375220Y-90371358D01*
X188406001Y-90526108D01*
X188406001Y-90683894D01*
X188375220Y-90838644D01*
X188314839Y-90984416D01*
X188227177Y-91115612D01*
X188115612Y-91227177D01*
X187984416Y-91314839D01*
X187838644Y-91375220D01*
X187683894Y-91406001D01*
X187526108Y-91406001D01*
X187371358Y-91375220D01*
X187225586Y-91314839D01*
X187094390Y-91227177D01*
X186982825Y-91115612D01*
X186895163Y-90984416D01*
X186834782Y-90838644D01*
X186804001Y-90683894D01*
X186804001Y-90526108D01*
X186834782Y-90371358D01*
X186895163Y-90225586D01*
X186982825Y-90094390D01*
X187094390Y-89982825D01*
X187225586Y-89895163D01*
X187371358Y-89834782D01*
X187526108Y-89804001D01*
X187683894Y-89804001D01*
X187838644Y-89834782D01*
X187838644Y-89834782D01*
G37*
G36*
X194948644Y-89834782D02*
X195094416Y-89895163D01*
X195225612Y-89982825D01*
X195337177Y-90094390D01*
X195424839Y-90225586D01*
X195485220Y-90371358D01*
X195516001Y-90526108D01*
X195516001Y-90683894D01*
X195485220Y-90838644D01*
X195424839Y-90984416D01*
X195337177Y-91115612D01*
X195225612Y-91227177D01*
X195094416Y-91314839D01*
X194948644Y-91375220D01*
X194793894Y-91406001D01*
X194636108Y-91406001D01*
X194481358Y-91375220D01*
X194335586Y-91314839D01*
X194204390Y-91227177D01*
X194092825Y-91115612D01*
X194005163Y-90984416D01*
X193944782Y-90838644D01*
X193914001Y-90683894D01*
X193914001Y-90526108D01*
X193944782Y-90371358D01*
X194005163Y-90225586D01*
X194092825Y-90094390D01*
X194204390Y-89982825D01*
X194335586Y-89895163D01*
X194481358Y-89834782D01*
X194636108Y-89804001D01*
X194793894Y-89804001D01*
X194948644Y-89834782D01*
X194948644Y-89834782D01*
G37*
G36*
X158838644Y-89834782D02*
X158984416Y-89895163D01*
X159115612Y-89982825D01*
X159227177Y-90094390D01*
X159314839Y-90225586D01*
X159375220Y-90371358D01*
X159406001Y-90526108D01*
X159406001Y-90683894D01*
X159375220Y-90838644D01*
X159314839Y-90984416D01*
X159227177Y-91115612D01*
X159115612Y-91227177D01*
X158984416Y-91314839D01*
X158838644Y-91375220D01*
X158683894Y-91406001D01*
X158526108Y-91406001D01*
X158371358Y-91375220D01*
X158225586Y-91314839D01*
X158094390Y-91227177D01*
X157982825Y-91115612D01*
X157895163Y-90984416D01*
X157834782Y-90838644D01*
X157804001Y-90683894D01*
X157804001Y-90526108D01*
X157834782Y-90371358D01*
X157895163Y-90225586D01*
X157982825Y-90094390D01*
X158094390Y-89982825D01*
X158225586Y-89895163D01*
X158371358Y-89834782D01*
X158526108Y-89804001D01*
X158683894Y-89804001D01*
X158838644Y-89834782D01*
X158838644Y-89834782D01*
G37*
G36*
X129838644Y-89834782D02*
X129984416Y-89895163D01*
X130115612Y-89982825D01*
X130227177Y-90094390D01*
X130314839Y-90225586D01*
X130375220Y-90371358D01*
X130406001Y-90526108D01*
X130406001Y-90683894D01*
X130375220Y-90838644D01*
X130314839Y-90984416D01*
X130227177Y-91115612D01*
X130115612Y-91227177D01*
X129984416Y-91314839D01*
X129838644Y-91375220D01*
X129683894Y-91406001D01*
X129526108Y-91406001D01*
X129371358Y-91375220D01*
X129225586Y-91314839D01*
X129094390Y-91227177D01*
X128982825Y-91115612D01*
X128895163Y-90984416D01*
X128834782Y-90838644D01*
X128804001Y-90683894D01*
X128804001Y-90526108D01*
X128834782Y-90371358D01*
X128895163Y-90225586D01*
X128982825Y-90094390D01*
X129094390Y-89982825D01*
X129225586Y-89895163D01*
X129371358Y-89834782D01*
X129526108Y-89804001D01*
X129683894Y-89804001D01*
X129838644Y-89834782D01*
X129838644Y-89834782D01*
G37*
G36*
X163408644Y-89834782D02*
X163554416Y-89895163D01*
X163685612Y-89982825D01*
X163797177Y-90094390D01*
X163884839Y-90225586D01*
X163945220Y-90371358D01*
X163976001Y-90526108D01*
X163976001Y-90683894D01*
X163945220Y-90838644D01*
X163884839Y-90984416D01*
X163797177Y-91115612D01*
X163685612Y-91227177D01*
X163554416Y-91314839D01*
X163408644Y-91375220D01*
X163253894Y-91406001D01*
X163096108Y-91406001D01*
X162941358Y-91375220D01*
X162795586Y-91314839D01*
X162664390Y-91227177D01*
X162552825Y-91115612D01*
X162465163Y-90984416D01*
X162404782Y-90838644D01*
X162374001Y-90683894D01*
X162374001Y-90526108D01*
X162404782Y-90371358D01*
X162465163Y-90225586D01*
X162552825Y-90094390D01*
X162664390Y-89982825D01*
X162795586Y-89895163D01*
X162941358Y-89834782D01*
X163096108Y-89804001D01*
X163253894Y-89804001D01*
X163408644Y-89834782D01*
X163408644Y-89834782D01*
G37*
G36*
X165948644Y-89834782D02*
X166094416Y-89895163D01*
X166225612Y-89982825D01*
X166337177Y-90094390D01*
X166424839Y-90225586D01*
X166485220Y-90371358D01*
X166516001Y-90526108D01*
X166516001Y-90683894D01*
X166485220Y-90838644D01*
X166424839Y-90984416D01*
X166337177Y-91115612D01*
X166225612Y-91227177D01*
X166094416Y-91314839D01*
X165948644Y-91375220D01*
X165793894Y-91406001D01*
X165636108Y-91406001D01*
X165481358Y-91375220D01*
X165335586Y-91314839D01*
X165204390Y-91227177D01*
X165092825Y-91115612D01*
X165005163Y-90984416D01*
X164944782Y-90838644D01*
X164914001Y-90683894D01*
X164914001Y-90526108D01*
X164944782Y-90371358D01*
X165005163Y-90225586D01*
X165092825Y-90094390D01*
X165204390Y-89982825D01*
X165335586Y-89895163D01*
X165481358Y-89834782D01*
X165636108Y-89804001D01*
X165793894Y-89804001D01*
X165948644Y-89834782D01*
X165948644Y-89834782D01*
G37*
G36*
X136948644Y-89834782D02*
X137094416Y-89895163D01*
X137225612Y-89982825D01*
X137337177Y-90094390D01*
X137424839Y-90225586D01*
X137485220Y-90371358D01*
X137516001Y-90526108D01*
X137516001Y-90683894D01*
X137485220Y-90838644D01*
X137424839Y-90984416D01*
X137337177Y-91115612D01*
X137225612Y-91227177D01*
X137094416Y-91314839D01*
X136948644Y-91375220D01*
X136793894Y-91406001D01*
X136636108Y-91406001D01*
X136481358Y-91375220D01*
X136335586Y-91314839D01*
X136204390Y-91227177D01*
X136092825Y-91115612D01*
X136005163Y-90984416D01*
X135944782Y-90838644D01*
X135914001Y-90683894D01*
X135914001Y-90526108D01*
X135944782Y-90371358D01*
X136005163Y-90225586D01*
X136092825Y-90094390D01*
X136204390Y-89982825D01*
X136335586Y-89895163D01*
X136481358Y-89834782D01*
X136636108Y-89804001D01*
X136793894Y-89804001D01*
X136948644Y-89834782D01*
X136948644Y-89834782D01*
G37*
G36*
X134408644Y-89834782D02*
X134554416Y-89895163D01*
X134685612Y-89982825D01*
X134797177Y-90094390D01*
X134884839Y-90225586D01*
X134945220Y-90371358D01*
X134976001Y-90526108D01*
X134976001Y-90683894D01*
X134945220Y-90838644D01*
X134884839Y-90984416D01*
X134797177Y-91115612D01*
X134685612Y-91227177D01*
X134554416Y-91314839D01*
X134408644Y-91375220D01*
X134253894Y-91406001D01*
X134096108Y-91406001D01*
X133941358Y-91375220D01*
X133795586Y-91314839D01*
X133664390Y-91227177D01*
X133552825Y-91115612D01*
X133465163Y-90984416D01*
X133404782Y-90838644D01*
X133374001Y-90683894D01*
X133374001Y-90526108D01*
X133404782Y-90371358D01*
X133465163Y-90225586D01*
X133552825Y-90094390D01*
X133664390Y-89982825D01*
X133795586Y-89895163D01*
X133941358Y-89834782D01*
X134096108Y-89804001D01*
X134253894Y-89804001D01*
X134408644Y-89834782D01*
X134408644Y-89834782D01*
G37*
G36*
X132378644Y-89834782D02*
X132524416Y-89895163D01*
X132655612Y-89982825D01*
X132767177Y-90094390D01*
X132854839Y-90225586D01*
X132915220Y-90371358D01*
X132946001Y-90526108D01*
X132946001Y-90683894D01*
X132915220Y-90838644D01*
X132854839Y-90984416D01*
X132767177Y-91115612D01*
X132655612Y-91227177D01*
X132524416Y-91314839D01*
X132378644Y-91375220D01*
X132223894Y-91406001D01*
X132066108Y-91406001D01*
X131911358Y-91375220D01*
X131765586Y-91314839D01*
X131634390Y-91227177D01*
X131522825Y-91115612D01*
X131435163Y-90984416D01*
X131374782Y-90838644D01*
X131344001Y-90683894D01*
X131344001Y-90526108D01*
X131374782Y-90371358D01*
X131435163Y-90225586D01*
X131522825Y-90094390D01*
X131634390Y-89982825D01*
X131765586Y-89895163D01*
X131911358Y-89834782D01*
X132066108Y-89804001D01*
X132223894Y-89804001D01*
X132378644Y-89834782D01*
X132378644Y-89834782D01*
G37*
G36*
X185506565Y-86689389D02*
X185697834Y-86768615D01*
X185869976Y-86883637D01*
X186016363Y-87030024D01*
X186131385Y-87202166D01*
X186210611Y-87393435D01*
X186251000Y-87596484D01*
X186251000Y-87803516D01*
X186210611Y-88006565D01*
X186131385Y-88197834D01*
X186016363Y-88369976D01*
X185869976Y-88516363D01*
X185697834Y-88631385D01*
X185506565Y-88710611D01*
X185303516Y-88751000D01*
X185096484Y-88751000D01*
X184893435Y-88710611D01*
X184702166Y-88631385D01*
X184530024Y-88516363D01*
X184383637Y-88369976D01*
X184268615Y-88197834D01*
X184189389Y-88006565D01*
X184149000Y-87803516D01*
X184149000Y-87596484D01*
X184189389Y-87393435D01*
X184268615Y-87202166D01*
X184383637Y-87030024D01*
X184530024Y-86883637D01*
X184702166Y-86768615D01*
X184893435Y-86689389D01*
X185096484Y-86649000D01*
X185303516Y-86649000D01*
X185506565Y-86689389D01*
X185506565Y-86689389D01*
G37*
G36*
X127506565Y-86689389D02*
X127697834Y-86768615D01*
X127869976Y-86883637D01*
X128016363Y-87030024D01*
X128131385Y-87202166D01*
X128210611Y-87393435D01*
X128251000Y-87596484D01*
X128251000Y-87803516D01*
X128210611Y-88006565D01*
X128131385Y-88197834D01*
X128016363Y-88369976D01*
X127869976Y-88516363D01*
X127697834Y-88631385D01*
X127506565Y-88710611D01*
X127303516Y-88751000D01*
X127096484Y-88751000D01*
X126893435Y-88710611D01*
X126702166Y-88631385D01*
X126530024Y-88516363D01*
X126383637Y-88369976D01*
X126268615Y-88197834D01*
X126189389Y-88006565D01*
X126149000Y-87803516D01*
X126149000Y-87596484D01*
X126189389Y-87393435D01*
X126268615Y-87202166D01*
X126383637Y-87030024D01*
X126530024Y-86883637D01*
X126702166Y-86768615D01*
X126893435Y-86689389D01*
X127096484Y-86649000D01*
X127303516Y-86649000D01*
X127506565Y-86689389D01*
X127506565Y-86689389D01*
G37*
G36*
X156506565Y-86689389D02*
X156697834Y-86768615D01*
X156869976Y-86883637D01*
X157016363Y-87030024D01*
X157131385Y-87202166D01*
X157210611Y-87393435D01*
X157251000Y-87596484D01*
X157251000Y-87803516D01*
X157210611Y-88006565D01*
X157131385Y-88197834D01*
X157016363Y-88369976D01*
X156869976Y-88516363D01*
X156697834Y-88631385D01*
X156506565Y-88710611D01*
X156303516Y-88751000D01*
X156096484Y-88751000D01*
X155893435Y-88710611D01*
X155702166Y-88631385D01*
X155530024Y-88516363D01*
X155383637Y-88369976D01*
X155268615Y-88197834D01*
X155189389Y-88006565D01*
X155149000Y-87803516D01*
X155149000Y-87596484D01*
X155189389Y-87393435D01*
X155268615Y-87202166D01*
X155383637Y-87030024D01*
X155530024Y-86883637D01*
X155702166Y-86768615D01*
X155893435Y-86689389D01*
X156096484Y-86649000D01*
X156303516Y-86649000D01*
X156506565Y-86689389D01*
X156506565Y-86689389D01*
G37*
G36*
X167228621Y-84379302D02*
X167365022Y-84435801D01*
X167487779Y-84517825D01*
X167592175Y-84622221D01*
X167674199Y-84744978D01*
X167730698Y-84881379D01*
X167759500Y-85026181D01*
X167759500Y-85173819D01*
X167730698Y-85318621D01*
X167674199Y-85455022D01*
X167592175Y-85577779D01*
X167487779Y-85682175D01*
X167365022Y-85764199D01*
X167228621Y-85820698D01*
X167083819Y-85849500D01*
X166936181Y-85849500D01*
X166791379Y-85820698D01*
X166654978Y-85764199D01*
X166532221Y-85682175D01*
X166427825Y-85577779D01*
X166345801Y-85455022D01*
X166289302Y-85318621D01*
X166260500Y-85173819D01*
X166260500Y-85026181D01*
X166289302Y-84881379D01*
X166345801Y-84744978D01*
X166427825Y-84622221D01*
X166532221Y-84517825D01*
X166654978Y-84435801D01*
X166791379Y-84379302D01*
X166936181Y-84350500D01*
X167083819Y-84350500D01*
X167228621Y-84379302D01*
X167228621Y-84379302D01*
G37*
G36*
X143308621Y-84379302D02*
X143445022Y-84435801D01*
X143567779Y-84517825D01*
X143672175Y-84622221D01*
X143754199Y-84744978D01*
X143810698Y-84881379D01*
X143839500Y-85026181D01*
X143839500Y-85173819D01*
X143810698Y-85318621D01*
X143754199Y-85455022D01*
X143672175Y-85577779D01*
X143567779Y-85682175D01*
X143445022Y-85764199D01*
X143308621Y-85820698D01*
X143163819Y-85849500D01*
X143016181Y-85849500D01*
X142871379Y-85820698D01*
X142734978Y-85764199D01*
X142612221Y-85682175D01*
X142507825Y-85577779D01*
X142425801Y-85455022D01*
X142369302Y-85318621D01*
X142340500Y-85173819D01*
X142340500Y-85026181D01*
X142369302Y-84881379D01*
X142425801Y-84744978D01*
X142507825Y-84622221D01*
X142612221Y-84517825D01*
X142734978Y-84435801D01*
X142871379Y-84379302D01*
X143016181Y-84350500D01*
X143163819Y-84350500D01*
X143308621Y-84379302D01*
X143308621Y-84379302D01*
G37*
G36*
X138228621Y-84379302D02*
X138365022Y-84435801D01*
X138487779Y-84517825D01*
X138592175Y-84622221D01*
X138674199Y-84744978D01*
X138730698Y-84881379D01*
X138759500Y-85026181D01*
X138759500Y-85173819D01*
X138730698Y-85318621D01*
X138674199Y-85455022D01*
X138592175Y-85577779D01*
X138487779Y-85682175D01*
X138365022Y-85764199D01*
X138228621Y-85820698D01*
X138083819Y-85849500D01*
X137936181Y-85849500D01*
X137791379Y-85820698D01*
X137654978Y-85764199D01*
X137532221Y-85682175D01*
X137427825Y-85577779D01*
X137345801Y-85455022D01*
X137289302Y-85318621D01*
X137260500Y-85173819D01*
X137260500Y-85026181D01*
X137289302Y-84881379D01*
X137345801Y-84744978D01*
X137427825Y-84622221D01*
X137532221Y-84517825D01*
X137654978Y-84435801D01*
X137791379Y-84379302D01*
X137936181Y-84350500D01*
X138083819Y-84350500D01*
X138228621Y-84379302D01*
X138228621Y-84379302D01*
G37*
G36*
X201308621Y-84379302D02*
X201445022Y-84435801D01*
X201567779Y-84517825D01*
X201672175Y-84622221D01*
X201754199Y-84744978D01*
X201810698Y-84881379D01*
X201839500Y-85026181D01*
X201839500Y-85173819D01*
X201810698Y-85318621D01*
X201754199Y-85455022D01*
X201672175Y-85577779D01*
X201567779Y-85682175D01*
X201445022Y-85764199D01*
X201308621Y-85820698D01*
X201163819Y-85849500D01*
X201016181Y-85849500D01*
X200871379Y-85820698D01*
X200734978Y-85764199D01*
X200612221Y-85682175D01*
X200507825Y-85577779D01*
X200425801Y-85455022D01*
X200369302Y-85318621D01*
X200340500Y-85173819D01*
X200340500Y-85026181D01*
X200369302Y-84881379D01*
X200425801Y-84744978D01*
X200507825Y-84622221D01*
X200612221Y-84517825D01*
X200734978Y-84435801D01*
X200871379Y-84379302D01*
X201016181Y-84350500D01*
X201163819Y-84350500D01*
X201308621Y-84379302D01*
X201308621Y-84379302D01*
G37*
G36*
X196228621Y-84379302D02*
X196365022Y-84435801D01*
X196487779Y-84517825D01*
X196592175Y-84622221D01*
X196674199Y-84744978D01*
X196730698Y-84881379D01*
X196759500Y-85026181D01*
X196759500Y-85173819D01*
X196730698Y-85318621D01*
X196674199Y-85455022D01*
X196592175Y-85577779D01*
X196487779Y-85682175D01*
X196365022Y-85764199D01*
X196228621Y-85820698D01*
X196083819Y-85849500D01*
X195936181Y-85849500D01*
X195791379Y-85820698D01*
X195654978Y-85764199D01*
X195532221Y-85682175D01*
X195427825Y-85577779D01*
X195345801Y-85455022D01*
X195289302Y-85318621D01*
X195260500Y-85173819D01*
X195260500Y-85026181D01*
X195289302Y-84881379D01*
X195345801Y-84744978D01*
X195427825Y-84622221D01*
X195532221Y-84517825D01*
X195654978Y-84435801D01*
X195791379Y-84379302D01*
X195936181Y-84350500D01*
X196083819Y-84350500D01*
X196228621Y-84379302D01*
X196228621Y-84379302D01*
G37*
G36*
X172308621Y-84379302D02*
X172445022Y-84435801D01*
X172567779Y-84517825D01*
X172672175Y-84622221D01*
X172754199Y-84744978D01*
X172810698Y-84881379D01*
X172839500Y-85026181D01*
X172839500Y-85173819D01*
X172810698Y-85318621D01*
X172754199Y-85455022D01*
X172672175Y-85577779D01*
X172567779Y-85682175D01*
X172445022Y-85764199D01*
X172308621Y-85820698D01*
X172163819Y-85849500D01*
X172016181Y-85849500D01*
X171871379Y-85820698D01*
X171734978Y-85764199D01*
X171612221Y-85682175D01*
X171507825Y-85577779D01*
X171425801Y-85455022D01*
X171369302Y-85318621D01*
X171340500Y-85173819D01*
X171340500Y-85026181D01*
X171369302Y-84881379D01*
X171425801Y-84744978D01*
X171507825Y-84622221D01*
X171612221Y-84517825D01*
X171734978Y-84435801D01*
X171871379Y-84379302D01*
X172016181Y-84350500D01*
X172163819Y-84350500D01*
X172308621Y-84379302D01*
X172308621Y-84379302D01*
G37*
G36*
X198746565Y-80399389D02*
X198937834Y-80478615D01*
X199109976Y-80593637D01*
X199256363Y-80740024D01*
X199371385Y-80912166D01*
X199450611Y-81103435D01*
X199491000Y-81306484D01*
X199491000Y-81513516D01*
X199450611Y-81716565D01*
X199371385Y-81907834D01*
X199256363Y-82079976D01*
X199109976Y-82226363D01*
X198937834Y-82341385D01*
X198746565Y-82420611D01*
X198543516Y-82461000D01*
X198336484Y-82461000D01*
X198133435Y-82420611D01*
X197942166Y-82341385D01*
X197770024Y-82226363D01*
X197623637Y-82079976D01*
X197508615Y-81907834D01*
X197429389Y-81716565D01*
X197389000Y-81513516D01*
X197389000Y-81306484D01*
X197429389Y-81103435D01*
X197508615Y-80912166D01*
X197623637Y-80740024D01*
X197770024Y-80593637D01*
X197942166Y-80478615D01*
X198133435Y-80399389D01*
X198336484Y-80359000D01*
X198543516Y-80359000D01*
X198746565Y-80399389D01*
X198746565Y-80399389D01*
G37*
G36*
X169746565Y-80399389D02*
X169937834Y-80478615D01*
X170109976Y-80593637D01*
X170256363Y-80740024D01*
X170371385Y-80912166D01*
X170450611Y-81103435D01*
X170491000Y-81306484D01*
X170491000Y-81513516D01*
X170450611Y-81716565D01*
X170371385Y-81907834D01*
X170256363Y-82079976D01*
X170109976Y-82226363D01*
X169937834Y-82341385D01*
X169746565Y-82420611D01*
X169543516Y-82461000D01*
X169336484Y-82461000D01*
X169133435Y-82420611D01*
X168942166Y-82341385D01*
X168770024Y-82226363D01*
X168623637Y-82079976D01*
X168508615Y-81907834D01*
X168429389Y-81716565D01*
X168389000Y-81513516D01*
X168389000Y-81306484D01*
X168429389Y-81103435D01*
X168508615Y-80912166D01*
X168623637Y-80740024D01*
X168770024Y-80593637D01*
X168942166Y-80478615D01*
X169133435Y-80399389D01*
X169336484Y-80359000D01*
X169543516Y-80359000D01*
X169746565Y-80399389D01*
X169746565Y-80399389D01*
G37*
G36*
X140746565Y-80399389D02*
X140937834Y-80478615D01*
X141109976Y-80593637D01*
X141256363Y-80740024D01*
X141371385Y-80912166D01*
X141450611Y-81103435D01*
X141491000Y-81306484D01*
X141491000Y-81513516D01*
X141450611Y-81716565D01*
X141371385Y-81907834D01*
X141256363Y-82079976D01*
X141109976Y-82226363D01*
X140937834Y-82341385D01*
X140746565Y-82420611D01*
X140543516Y-82461000D01*
X140336484Y-82461000D01*
X140133435Y-82420611D01*
X139942166Y-82341385D01*
X139770024Y-82226363D01*
X139623637Y-82079976D01*
X139508615Y-81907834D01*
X139429389Y-81716565D01*
X139389000Y-81513516D01*
X139389000Y-81306484D01*
X139429389Y-81103435D01*
X139508615Y-80912166D01*
X139623637Y-80740024D01*
X139770024Y-80593637D01*
X139942166Y-80478615D01*
X140133435Y-80399389D01*
X140336484Y-80359000D01*
X140543516Y-80359000D01*
X140746565Y-80399389D01*
X140746565Y-80399389D01*
G37*
G36*
X138228621Y-76759302D02*
X138365022Y-76815801D01*
X138487779Y-76897825D01*
X138592175Y-77002221D01*
X138674199Y-77124978D01*
X138730698Y-77261379D01*
X138759500Y-77406181D01*
X138759500Y-77553819D01*
X138730698Y-77698621D01*
X138674199Y-77835022D01*
X138592175Y-77957779D01*
X138487779Y-78062175D01*
X138365022Y-78144199D01*
X138228621Y-78200698D01*
X138083819Y-78229500D01*
X137936181Y-78229500D01*
X137791379Y-78200698D01*
X137654978Y-78144199D01*
X137532221Y-78062175D01*
X137427825Y-77957779D01*
X137345801Y-77835022D01*
X137289302Y-77698621D01*
X137260500Y-77553819D01*
X137260500Y-77406181D01*
X137289302Y-77261379D01*
X137345801Y-77124978D01*
X137427825Y-77002221D01*
X137532221Y-76897825D01*
X137654978Y-76815801D01*
X137791379Y-76759302D01*
X137936181Y-76730500D01*
X138083819Y-76730500D01*
X138228621Y-76759302D01*
X138228621Y-76759302D01*
G37*
G36*
X143308621Y-76759302D02*
X143445022Y-76815801D01*
X143567779Y-76897825D01*
X143672175Y-77002221D01*
X143754199Y-77124978D01*
X143810698Y-77261379D01*
X143839500Y-77406181D01*
X143839500Y-77553819D01*
X143810698Y-77698621D01*
X143754199Y-77835022D01*
X143672175Y-77957779D01*
X143567779Y-78062175D01*
X143445022Y-78144199D01*
X143308621Y-78200698D01*
X143163819Y-78229500D01*
X143016181Y-78229500D01*
X142871379Y-78200698D01*
X142734978Y-78144199D01*
X142612221Y-78062175D01*
X142507825Y-77957779D01*
X142425801Y-77835022D01*
X142369302Y-77698621D01*
X142340500Y-77553819D01*
X142340500Y-77406181D01*
X142369302Y-77261379D01*
X142425801Y-77124978D01*
X142507825Y-77002221D01*
X142612221Y-76897825D01*
X142734978Y-76815801D01*
X142871379Y-76759302D01*
X143016181Y-76730500D01*
X143163819Y-76730500D01*
X143308621Y-76759302D01*
X143308621Y-76759302D01*
G37*
G36*
X172308621Y-76759302D02*
X172445022Y-76815801D01*
X172567779Y-76897825D01*
X172672175Y-77002221D01*
X172754199Y-77124978D01*
X172810698Y-77261379D01*
X172839500Y-77406181D01*
X172839500Y-77553819D01*
X172810698Y-77698621D01*
X172754199Y-77835022D01*
X172672175Y-77957779D01*
X172567779Y-78062175D01*
X172445022Y-78144199D01*
X172308621Y-78200698D01*
X172163819Y-78229500D01*
X172016181Y-78229500D01*
X171871379Y-78200698D01*
X171734978Y-78144199D01*
X171612221Y-78062175D01*
X171507825Y-77957779D01*
X171425801Y-77835022D01*
X171369302Y-77698621D01*
X171340500Y-77553819D01*
X171340500Y-77406181D01*
X171369302Y-77261379D01*
X171425801Y-77124978D01*
X171507825Y-77002221D01*
X171612221Y-76897825D01*
X171734978Y-76815801D01*
X171871379Y-76759302D01*
X172016181Y-76730500D01*
X172163819Y-76730500D01*
X172308621Y-76759302D01*
X172308621Y-76759302D01*
G37*
G36*
X167228621Y-76759302D02*
X167365022Y-76815801D01*
X167487779Y-76897825D01*
X167592175Y-77002221D01*
X167674199Y-77124978D01*
X167730698Y-77261379D01*
X167759500Y-77406181D01*
X167759500Y-77553819D01*
X167730698Y-77698621D01*
X167674199Y-77835022D01*
X167592175Y-77957779D01*
X167487779Y-78062175D01*
X167365022Y-78144199D01*
X167228621Y-78200698D01*
X167083819Y-78229500D01*
X166936181Y-78229500D01*
X166791379Y-78200698D01*
X166654978Y-78144199D01*
X166532221Y-78062175D01*
X166427825Y-77957779D01*
X166345801Y-77835022D01*
X166289302Y-77698621D01*
X166260500Y-77553819D01*
X166260500Y-77406181D01*
X166289302Y-77261379D01*
X166345801Y-77124978D01*
X166427825Y-77002221D01*
X166532221Y-76897825D01*
X166654978Y-76815801D01*
X166791379Y-76759302D01*
X166936181Y-76730500D01*
X167083819Y-76730500D01*
X167228621Y-76759302D01*
X167228621Y-76759302D01*
G37*
G36*
X201308621Y-76759302D02*
X201445022Y-76815801D01*
X201567779Y-76897825D01*
X201672175Y-77002221D01*
X201754199Y-77124978D01*
X201810698Y-77261379D01*
X201839500Y-77406181D01*
X201839500Y-77553819D01*
X201810698Y-77698621D01*
X201754199Y-77835022D01*
X201672175Y-77957779D01*
X201567779Y-78062175D01*
X201445022Y-78144199D01*
X201308621Y-78200698D01*
X201163819Y-78229500D01*
X201016181Y-78229500D01*
X200871379Y-78200698D01*
X200734978Y-78144199D01*
X200612221Y-78062175D01*
X200507825Y-77957779D01*
X200425801Y-77835022D01*
X200369302Y-77698621D01*
X200340500Y-77553819D01*
X200340500Y-77406181D01*
X200369302Y-77261379D01*
X200425801Y-77124978D01*
X200507825Y-77002221D01*
X200612221Y-76897825D01*
X200734978Y-76815801D01*
X200871379Y-76759302D01*
X201016181Y-76730500D01*
X201163819Y-76730500D01*
X201308621Y-76759302D01*
X201308621Y-76759302D01*
G37*
G36*
X196228621Y-76759302D02*
X196365022Y-76815801D01*
X196487779Y-76897825D01*
X196592175Y-77002221D01*
X196674199Y-77124978D01*
X196730698Y-77261379D01*
X196759500Y-77406181D01*
X196759500Y-77553819D01*
X196730698Y-77698621D01*
X196674199Y-77835022D01*
X196592175Y-77957779D01*
X196487779Y-78062175D01*
X196365022Y-78144199D01*
X196228621Y-78200698D01*
X196083819Y-78229500D01*
X195936181Y-78229500D01*
X195791379Y-78200698D01*
X195654978Y-78144199D01*
X195532221Y-78062175D01*
X195427825Y-77957779D01*
X195345801Y-77835022D01*
X195289302Y-77698621D01*
X195260500Y-77553819D01*
X195260500Y-77406181D01*
X195289302Y-77261379D01*
X195345801Y-77124978D01*
X195427825Y-77002221D01*
X195532221Y-76897825D01*
X195654978Y-76815801D01*
X195791379Y-76759302D01*
X195936181Y-76730500D01*
X196083819Y-76730500D01*
X196228621Y-76759302D01*
X196228621Y-76759302D01*
G37*
M02*
