G04 #@! TF.GenerationSoftware,KiCad,Pcbnew,(5.0.1)-4*
G04 #@! TF.CreationDate,2019-01-31T17:22:40-08:00*
G04 #@! TF.ProjectId,programing_adapter,70726F6772616D696E675F6164617074,rev?*
G04 #@! TF.SameCoordinates,Original*
G04 #@! TF.FileFunction,Legend,Top*
G04 #@! TF.FilePolarity,Positive*
%FSLAX46Y46*%
G04 Gerber Fmt 4.6, Leading zero omitted, Abs format (unit mm)*
G04 Created by KiCad (PCBNEW (5.0.1)-4) date 1/31/2019 5:22:40 PM*
%MOMM*%
%LPD*%
G01*
G04 APERTURE LIST*
%ADD10C,0.120000*%
%ADD11C,0.100000*%
%ADD12C,0.150000*%
G04 APERTURE END LIST*
D10*
G04 #@! TO.C,SW1*
X194740000Y-153500000D02*
X194740000Y-145880000D01*
X194740000Y-145880000D02*
X195040000Y-145880000D01*
X202360000Y-145880000D02*
X202360000Y-153500000D01*
X194740000Y-153500000D02*
X195040000Y-153500000D01*
X196980000Y-145880000D02*
X200120000Y-145880000D01*
X196980000Y-153500000D02*
X200120000Y-153500000D01*
X202060000Y-145880000D02*
X202360000Y-145880000D01*
X202060000Y-153500000D02*
X202360000Y-153500000D01*
X201090000Y-149690000D02*
G75*
G03X201090000Y-149690000I-2540000J0D01*
G01*
X165740000Y-153500000D02*
X165740000Y-145880000D01*
X165740000Y-145880000D02*
X166040000Y-145880000D01*
X173360000Y-145880000D02*
X173360000Y-153500000D01*
X165740000Y-153500000D02*
X166040000Y-153500000D01*
X167980000Y-145880000D02*
X171120000Y-145880000D01*
X167980000Y-153500000D02*
X171120000Y-153500000D01*
X173060000Y-145880000D02*
X173360000Y-145880000D01*
X173060000Y-153500000D02*
X173360000Y-153500000D01*
X172090000Y-149690000D02*
G75*
G03X172090000Y-149690000I-2540000J0D01*
G01*
X136740000Y-153500000D02*
X136740000Y-145880000D01*
X136740000Y-145880000D02*
X137040000Y-145880000D01*
X144360000Y-145880000D02*
X144360000Y-153500000D01*
X136740000Y-153500000D02*
X137040000Y-153500000D01*
X138980000Y-145880000D02*
X142120000Y-145880000D01*
X138980000Y-153500000D02*
X142120000Y-153500000D01*
X144060000Y-145880000D02*
X144360000Y-145880000D01*
X144060000Y-153500000D02*
X144360000Y-153500000D01*
X143090000Y-149690000D02*
G75*
G03X143090000Y-149690000I-2540000J0D01*
G01*
X194740000Y-119300000D02*
X194740000Y-111680000D01*
X194740000Y-111680000D02*
X195040000Y-111680000D01*
X202360000Y-111680000D02*
X202360000Y-119300000D01*
X194740000Y-119300000D02*
X195040000Y-119300000D01*
X196980000Y-111680000D02*
X200120000Y-111680000D01*
X196980000Y-119300000D02*
X200120000Y-119300000D01*
X202060000Y-111680000D02*
X202360000Y-111680000D01*
X202060000Y-119300000D02*
X202360000Y-119300000D01*
X201090000Y-115490000D02*
G75*
G03X201090000Y-115490000I-2540000J0D01*
G01*
X165740000Y-119300000D02*
X165740000Y-111680000D01*
X165740000Y-111680000D02*
X166040000Y-111680000D01*
X173360000Y-111680000D02*
X173360000Y-119300000D01*
X165740000Y-119300000D02*
X166040000Y-119300000D01*
X167980000Y-111680000D02*
X171120000Y-111680000D01*
X167980000Y-119300000D02*
X171120000Y-119300000D01*
X173060000Y-111680000D02*
X173360000Y-111680000D01*
X173060000Y-119300000D02*
X173360000Y-119300000D01*
X172090000Y-115490000D02*
G75*
G03X172090000Y-115490000I-2540000J0D01*
G01*
X136740000Y-119300000D02*
X136740000Y-111680000D01*
X136740000Y-111680000D02*
X137040000Y-111680000D01*
X144360000Y-111680000D02*
X144360000Y-119300000D01*
X136740000Y-119300000D02*
X137040000Y-119300000D01*
X138980000Y-111680000D02*
X142120000Y-111680000D01*
X138980000Y-119300000D02*
X142120000Y-119300000D01*
X144060000Y-111680000D02*
X144360000Y-111680000D01*
X144060000Y-119300000D02*
X144360000Y-119300000D01*
X143090000Y-115490000D02*
G75*
G03X143090000Y-115490000I-2540000J0D01*
G01*
X194740000Y-85100000D02*
X194740000Y-77480000D01*
X194740000Y-77480000D02*
X195040000Y-77480000D01*
X202360000Y-77480000D02*
X202360000Y-85100000D01*
X194740000Y-85100000D02*
X195040000Y-85100000D01*
X196980000Y-77480000D02*
X200120000Y-77480000D01*
X196980000Y-85100000D02*
X200120000Y-85100000D01*
X202060000Y-77480000D02*
X202360000Y-77480000D01*
X202060000Y-85100000D02*
X202360000Y-85100000D01*
X201090000Y-81290000D02*
G75*
G03X201090000Y-81290000I-2540000J0D01*
G01*
X165740000Y-85100000D02*
X165740000Y-77480000D01*
X165740000Y-77480000D02*
X166040000Y-77480000D01*
X173360000Y-77480000D02*
X173360000Y-85100000D01*
X165740000Y-85100000D02*
X166040000Y-85100000D01*
X167980000Y-77480000D02*
X171120000Y-77480000D01*
X167980000Y-85100000D02*
X171120000Y-85100000D01*
X173060000Y-77480000D02*
X173360000Y-77480000D01*
X173060000Y-85100000D02*
X173360000Y-85100000D01*
X172090000Y-81290000D02*
G75*
G03X172090000Y-81290000I-2540000J0D01*
G01*
G04 #@! TO.C,J2*
X198655001Y-157865001D02*
X198655001Y-160195001D01*
X183665001Y-157865001D02*
X183665001Y-159985001D01*
X198655001Y-157865001D02*
X183665001Y-157865001D01*
X198655001Y-171955001D02*
X183665001Y-171955001D01*
X198655001Y-163155001D02*
X198655001Y-171955001D01*
X183665001Y-163355001D02*
X183665001Y-171955001D01*
X169655001Y-157865001D02*
X169655001Y-160195001D01*
X154665001Y-157865001D02*
X154665001Y-159985001D01*
X169655001Y-157865001D02*
X154665001Y-157865001D01*
X169655001Y-171955001D02*
X154665001Y-171955001D01*
X169655001Y-163155001D02*
X169655001Y-171955001D01*
X154665001Y-163355001D02*
X154665001Y-171955001D01*
X140655001Y-157865001D02*
X140655001Y-160195001D01*
X125665001Y-157865001D02*
X125665001Y-159985001D01*
X140655001Y-157865001D02*
X125665001Y-157865001D01*
X140655001Y-171955001D02*
X125665001Y-171955001D01*
X140655001Y-163155001D02*
X140655001Y-171955001D01*
X125665001Y-163355001D02*
X125665001Y-171955001D01*
X198655001Y-123665001D02*
X198655001Y-125995001D01*
X183665001Y-123665001D02*
X183665001Y-125785001D01*
X198655001Y-123665001D02*
X183665001Y-123665001D01*
X198655001Y-137755001D02*
X183665001Y-137755001D01*
X198655001Y-128955001D02*
X198655001Y-137755001D01*
X183665001Y-129155001D02*
X183665001Y-137755001D01*
X169655001Y-123665001D02*
X169655001Y-125995001D01*
X154665001Y-123665001D02*
X154665001Y-125785001D01*
X169655001Y-123665001D02*
X154665001Y-123665001D01*
X169655001Y-137755001D02*
X154665001Y-137755001D01*
X169655001Y-128955001D02*
X169655001Y-137755001D01*
X154665001Y-129155001D02*
X154665001Y-137755001D01*
X140655001Y-123665001D02*
X140655001Y-125995001D01*
X125665001Y-123665001D02*
X125665001Y-125785001D01*
X140655001Y-123665001D02*
X125665001Y-123665001D01*
X140655001Y-137755001D02*
X125665001Y-137755001D01*
X140655001Y-128955001D02*
X140655001Y-137755001D01*
X125665001Y-129155001D02*
X125665001Y-137755001D01*
X198655001Y-89465001D02*
X198655001Y-91795001D01*
X183665001Y-89465001D02*
X183665001Y-91585001D01*
X198655001Y-89465001D02*
X183665001Y-89465001D01*
X198655001Y-103555001D02*
X183665001Y-103555001D01*
X198655001Y-94755001D02*
X198655001Y-103555001D01*
X183665001Y-94955001D02*
X183665001Y-103555001D01*
X169655001Y-89465001D02*
X169655001Y-91795001D01*
X154665001Y-89465001D02*
X154665001Y-91585001D01*
X169655001Y-89465001D02*
X154665001Y-89465001D01*
X169655001Y-103555001D02*
X154665001Y-103555001D01*
X169655001Y-94755001D02*
X169655001Y-103555001D01*
X154665001Y-94955001D02*
X154665001Y-103555001D01*
D11*
G04 #@! TO.C,J1*
X183171609Y-152022000D02*
G75*
G03X183171609Y-152022000I-401609J0D01*
G01*
X182600000Y-151390000D02*
X183235000Y-151390000D01*
X182600000Y-146310000D02*
X182600000Y-151390000D01*
X183235000Y-146310000D02*
X182600000Y-146310000D01*
X190220000Y-146310000D02*
X189585000Y-146310000D01*
X190220000Y-151390000D02*
X190220000Y-146310000D01*
X189585000Y-151390000D02*
X190220000Y-151390000D01*
X154171609Y-152022000D02*
G75*
G03X154171609Y-152022000I-401609J0D01*
G01*
X153600000Y-151390000D02*
X154235000Y-151390000D01*
X153600000Y-146310000D02*
X153600000Y-151390000D01*
X154235000Y-146310000D02*
X153600000Y-146310000D01*
X161220000Y-146310000D02*
X160585000Y-146310000D01*
X161220000Y-151390000D02*
X161220000Y-146310000D01*
X160585000Y-151390000D02*
X161220000Y-151390000D01*
X125171609Y-152022000D02*
G75*
G03X125171609Y-152022000I-401609J0D01*
G01*
X124600000Y-151390000D02*
X125235000Y-151390000D01*
X124600000Y-146310000D02*
X124600000Y-151390000D01*
X125235000Y-146310000D02*
X124600000Y-146310000D01*
X132220000Y-146310000D02*
X131585000Y-146310000D01*
X132220000Y-151390000D02*
X132220000Y-146310000D01*
X131585000Y-151390000D02*
X132220000Y-151390000D01*
X183171609Y-117822000D02*
G75*
G03X183171609Y-117822000I-401609J0D01*
G01*
X182600000Y-117190000D02*
X183235000Y-117190000D01*
X182600000Y-112110000D02*
X182600000Y-117190000D01*
X183235000Y-112110000D02*
X182600000Y-112110000D01*
X190220000Y-112110000D02*
X189585000Y-112110000D01*
X190220000Y-117190000D02*
X190220000Y-112110000D01*
X189585000Y-117190000D02*
X190220000Y-117190000D01*
X154171609Y-117822000D02*
G75*
G03X154171609Y-117822000I-401609J0D01*
G01*
X153600000Y-117190000D02*
X154235000Y-117190000D01*
X153600000Y-112110000D02*
X153600000Y-117190000D01*
X154235000Y-112110000D02*
X153600000Y-112110000D01*
X161220000Y-112110000D02*
X160585000Y-112110000D01*
X161220000Y-117190000D02*
X161220000Y-112110000D01*
X160585000Y-117190000D02*
X161220000Y-117190000D01*
X125171609Y-117822000D02*
G75*
G03X125171609Y-117822000I-401609J0D01*
G01*
X124600000Y-117190000D02*
X125235000Y-117190000D01*
X124600000Y-112110000D02*
X124600000Y-117190000D01*
X125235000Y-112110000D02*
X124600000Y-112110000D01*
X132220000Y-112110000D02*
X131585000Y-112110000D01*
X132220000Y-117190000D02*
X132220000Y-112110000D01*
X131585000Y-117190000D02*
X132220000Y-117190000D01*
X183171609Y-83622000D02*
G75*
G03X183171609Y-83622000I-401609J0D01*
G01*
X182600000Y-82990000D02*
X183235000Y-82990000D01*
X182600000Y-77910000D02*
X182600000Y-82990000D01*
X183235000Y-77910000D02*
X182600000Y-77910000D01*
X190220000Y-77910000D02*
X189585000Y-77910000D01*
X190220000Y-82990000D02*
X190220000Y-77910000D01*
X189585000Y-82990000D02*
X190220000Y-82990000D01*
X154171609Y-83622000D02*
G75*
G03X154171609Y-83622000I-401609J0D01*
G01*
X153600000Y-82990000D02*
X154235000Y-82990000D01*
X153600000Y-77910000D02*
X153600000Y-82990000D01*
X154235000Y-77910000D02*
X153600000Y-77910000D01*
X161220000Y-77910000D02*
X160585000Y-77910000D01*
X161220000Y-82990000D02*
X161220000Y-77910000D01*
X160585000Y-82990000D02*
X161220000Y-82990000D01*
X131585000Y-82990000D02*
X132220000Y-82990000D01*
X132220000Y-82990000D02*
X132220000Y-77910000D01*
X132220000Y-77910000D02*
X131585000Y-77910000D01*
X125235000Y-77910000D02*
X124600000Y-77910000D01*
X124600000Y-77910000D02*
X124600000Y-82990000D01*
X124600000Y-82990000D02*
X125235000Y-82990000D01*
X125171609Y-83622000D02*
G75*
G03X125171609Y-83622000I-401609J0D01*
G01*
D10*
G04 #@! TO.C,J2*
X125665001Y-94955001D02*
X125665001Y-103555001D01*
X140655001Y-94755001D02*
X140655001Y-103555001D01*
X140655001Y-103555001D02*
X125665001Y-103555001D01*
X140655001Y-89465001D02*
X125665001Y-89465001D01*
X125665001Y-89465001D02*
X125665001Y-91585001D01*
X140655001Y-89465001D02*
X140655001Y-91795001D01*
G04 #@! TO.C,SW1*
X143090000Y-81290000D02*
G75*
G03X143090000Y-81290000I-2540000J0D01*
G01*
X144060000Y-85100000D02*
X144360000Y-85100000D01*
X144060000Y-77480000D02*
X144360000Y-77480000D01*
X138980000Y-85100000D02*
X142120000Y-85100000D01*
X138980000Y-77480000D02*
X142120000Y-77480000D01*
X136740000Y-85100000D02*
X137040000Y-85100000D01*
X144360000Y-77480000D02*
X144360000Y-85100000D01*
X136740000Y-77480000D02*
X137040000Y-77480000D01*
X136740000Y-85100000D02*
X136740000Y-77480000D01*
D12*
X194334761Y-151023333D02*
X194382380Y-150880476D01*
X194382380Y-150642380D01*
X194334761Y-150547142D01*
X194287142Y-150499523D01*
X194191904Y-150451904D01*
X194096666Y-150451904D01*
X194001428Y-150499523D01*
X193953809Y-150547142D01*
X193906190Y-150642380D01*
X193858571Y-150832857D01*
X193810952Y-150928095D01*
X193763333Y-150975714D01*
X193668095Y-151023333D01*
X193572857Y-151023333D01*
X193477619Y-150975714D01*
X193430000Y-150928095D01*
X193382380Y-150832857D01*
X193382380Y-150594761D01*
X193430000Y-150451904D01*
X193382380Y-150118571D02*
X194382380Y-149880476D01*
X193668095Y-149690000D01*
X194382380Y-149499523D01*
X193382380Y-149261428D01*
X194382380Y-148356666D02*
X194382380Y-148928095D01*
X194382380Y-148642380D02*
X193382380Y-148642380D01*
X193525238Y-148737619D01*
X193620476Y-148832857D01*
X193668095Y-148928095D01*
X203694761Y-153190000D02*
X203742380Y-153047142D01*
X203742380Y-152809047D01*
X203694761Y-152713809D01*
X203647142Y-152666190D01*
X203551904Y-152618571D01*
X203456666Y-152618571D01*
X203361428Y-152666190D01*
X203313809Y-152713809D01*
X203266190Y-152809047D01*
X203218571Y-152999523D01*
X203170952Y-153094761D01*
X203123333Y-153142380D01*
X203028095Y-153190000D01*
X202932857Y-153190000D01*
X202837619Y-153142380D01*
X202790000Y-153094761D01*
X202742380Y-152999523D01*
X202742380Y-152761428D01*
X202790000Y-152618571D01*
X202742380Y-152285238D02*
X203742380Y-152047142D01*
X203028095Y-151856666D01*
X203742380Y-151666190D01*
X202742380Y-151428095D01*
X203837619Y-151285238D02*
X203837619Y-150523333D01*
X203742380Y-149713809D02*
X203266190Y-150047142D01*
X203742380Y-150285238D02*
X202742380Y-150285238D01*
X202742380Y-149904285D01*
X202790000Y-149809047D01*
X202837619Y-149761428D01*
X202932857Y-149713809D01*
X203075714Y-149713809D01*
X203170952Y-149761428D01*
X203218571Y-149809047D01*
X203266190Y-149904285D01*
X203266190Y-150285238D01*
X203218571Y-149285238D02*
X203218571Y-148951904D01*
X203742380Y-148809047D02*
X203742380Y-149285238D01*
X202742380Y-149285238D01*
X202742380Y-148809047D01*
X203694761Y-148428095D02*
X203742380Y-148285238D01*
X203742380Y-148047142D01*
X203694761Y-147951904D01*
X203647142Y-147904285D01*
X203551904Y-147856666D01*
X203456666Y-147856666D01*
X203361428Y-147904285D01*
X203313809Y-147951904D01*
X203266190Y-148047142D01*
X203218571Y-148237619D01*
X203170952Y-148332857D01*
X203123333Y-148380476D01*
X203028095Y-148428095D01*
X202932857Y-148428095D01*
X202837619Y-148380476D01*
X202790000Y-148332857D01*
X202742380Y-148237619D01*
X202742380Y-147999523D01*
X202790000Y-147856666D01*
X203218571Y-147428095D02*
X203218571Y-147094761D01*
X203742380Y-146951904D02*
X203742380Y-147428095D01*
X202742380Y-147428095D01*
X202742380Y-146951904D01*
X202742380Y-146666190D02*
X202742380Y-146094761D01*
X203742380Y-146380476D02*
X202742380Y-146380476D01*
X165334761Y-151023333D02*
X165382380Y-150880476D01*
X165382380Y-150642380D01*
X165334761Y-150547142D01*
X165287142Y-150499523D01*
X165191904Y-150451904D01*
X165096666Y-150451904D01*
X165001428Y-150499523D01*
X164953809Y-150547142D01*
X164906190Y-150642380D01*
X164858571Y-150832857D01*
X164810952Y-150928095D01*
X164763333Y-150975714D01*
X164668095Y-151023333D01*
X164572857Y-151023333D01*
X164477619Y-150975714D01*
X164430000Y-150928095D01*
X164382380Y-150832857D01*
X164382380Y-150594761D01*
X164430000Y-150451904D01*
X164382380Y-150118571D02*
X165382380Y-149880476D01*
X164668095Y-149690000D01*
X165382380Y-149499523D01*
X164382380Y-149261428D01*
X165382380Y-148356666D02*
X165382380Y-148928095D01*
X165382380Y-148642380D02*
X164382380Y-148642380D01*
X164525238Y-148737619D01*
X164620476Y-148832857D01*
X164668095Y-148928095D01*
X174694761Y-153190000D02*
X174742380Y-153047142D01*
X174742380Y-152809047D01*
X174694761Y-152713809D01*
X174647142Y-152666190D01*
X174551904Y-152618571D01*
X174456666Y-152618571D01*
X174361428Y-152666190D01*
X174313809Y-152713809D01*
X174266190Y-152809047D01*
X174218571Y-152999523D01*
X174170952Y-153094761D01*
X174123333Y-153142380D01*
X174028095Y-153190000D01*
X173932857Y-153190000D01*
X173837619Y-153142380D01*
X173790000Y-153094761D01*
X173742380Y-152999523D01*
X173742380Y-152761428D01*
X173790000Y-152618571D01*
X173742380Y-152285238D02*
X174742380Y-152047142D01*
X174028095Y-151856666D01*
X174742380Y-151666190D01*
X173742380Y-151428095D01*
X174837619Y-151285238D02*
X174837619Y-150523333D01*
X174742380Y-149713809D02*
X174266190Y-150047142D01*
X174742380Y-150285238D02*
X173742380Y-150285238D01*
X173742380Y-149904285D01*
X173790000Y-149809047D01*
X173837619Y-149761428D01*
X173932857Y-149713809D01*
X174075714Y-149713809D01*
X174170952Y-149761428D01*
X174218571Y-149809047D01*
X174266190Y-149904285D01*
X174266190Y-150285238D01*
X174218571Y-149285238D02*
X174218571Y-148951904D01*
X174742380Y-148809047D02*
X174742380Y-149285238D01*
X173742380Y-149285238D01*
X173742380Y-148809047D01*
X174694761Y-148428095D02*
X174742380Y-148285238D01*
X174742380Y-148047142D01*
X174694761Y-147951904D01*
X174647142Y-147904285D01*
X174551904Y-147856666D01*
X174456666Y-147856666D01*
X174361428Y-147904285D01*
X174313809Y-147951904D01*
X174266190Y-148047142D01*
X174218571Y-148237619D01*
X174170952Y-148332857D01*
X174123333Y-148380476D01*
X174028095Y-148428095D01*
X173932857Y-148428095D01*
X173837619Y-148380476D01*
X173790000Y-148332857D01*
X173742380Y-148237619D01*
X173742380Y-147999523D01*
X173790000Y-147856666D01*
X174218571Y-147428095D02*
X174218571Y-147094761D01*
X174742380Y-146951904D02*
X174742380Y-147428095D01*
X173742380Y-147428095D01*
X173742380Y-146951904D01*
X173742380Y-146666190D02*
X173742380Y-146094761D01*
X174742380Y-146380476D02*
X173742380Y-146380476D01*
X136334761Y-151023333D02*
X136382380Y-150880476D01*
X136382380Y-150642380D01*
X136334761Y-150547142D01*
X136287142Y-150499523D01*
X136191904Y-150451904D01*
X136096666Y-150451904D01*
X136001428Y-150499523D01*
X135953809Y-150547142D01*
X135906190Y-150642380D01*
X135858571Y-150832857D01*
X135810952Y-150928095D01*
X135763333Y-150975714D01*
X135668095Y-151023333D01*
X135572857Y-151023333D01*
X135477619Y-150975714D01*
X135430000Y-150928095D01*
X135382380Y-150832857D01*
X135382380Y-150594761D01*
X135430000Y-150451904D01*
X135382380Y-150118571D02*
X136382380Y-149880476D01*
X135668095Y-149690000D01*
X136382380Y-149499523D01*
X135382380Y-149261428D01*
X136382380Y-148356666D02*
X136382380Y-148928095D01*
X136382380Y-148642380D02*
X135382380Y-148642380D01*
X135525238Y-148737619D01*
X135620476Y-148832857D01*
X135668095Y-148928095D01*
X145694761Y-153190000D02*
X145742380Y-153047142D01*
X145742380Y-152809047D01*
X145694761Y-152713809D01*
X145647142Y-152666190D01*
X145551904Y-152618571D01*
X145456666Y-152618571D01*
X145361428Y-152666190D01*
X145313809Y-152713809D01*
X145266190Y-152809047D01*
X145218571Y-152999523D01*
X145170952Y-153094761D01*
X145123333Y-153142380D01*
X145028095Y-153190000D01*
X144932857Y-153190000D01*
X144837619Y-153142380D01*
X144790000Y-153094761D01*
X144742380Y-152999523D01*
X144742380Y-152761428D01*
X144790000Y-152618571D01*
X144742380Y-152285238D02*
X145742380Y-152047142D01*
X145028095Y-151856666D01*
X145742380Y-151666190D01*
X144742380Y-151428095D01*
X145837619Y-151285238D02*
X145837619Y-150523333D01*
X145742380Y-149713809D02*
X145266190Y-150047142D01*
X145742380Y-150285238D02*
X144742380Y-150285238D01*
X144742380Y-149904285D01*
X144790000Y-149809047D01*
X144837619Y-149761428D01*
X144932857Y-149713809D01*
X145075714Y-149713809D01*
X145170952Y-149761428D01*
X145218571Y-149809047D01*
X145266190Y-149904285D01*
X145266190Y-150285238D01*
X145218571Y-149285238D02*
X145218571Y-148951904D01*
X145742380Y-148809047D02*
X145742380Y-149285238D01*
X144742380Y-149285238D01*
X144742380Y-148809047D01*
X145694761Y-148428095D02*
X145742380Y-148285238D01*
X145742380Y-148047142D01*
X145694761Y-147951904D01*
X145647142Y-147904285D01*
X145551904Y-147856666D01*
X145456666Y-147856666D01*
X145361428Y-147904285D01*
X145313809Y-147951904D01*
X145266190Y-148047142D01*
X145218571Y-148237619D01*
X145170952Y-148332857D01*
X145123333Y-148380476D01*
X145028095Y-148428095D01*
X144932857Y-148428095D01*
X144837619Y-148380476D01*
X144790000Y-148332857D01*
X144742380Y-148237619D01*
X144742380Y-147999523D01*
X144790000Y-147856666D01*
X145218571Y-147428095D02*
X145218571Y-147094761D01*
X145742380Y-146951904D02*
X145742380Y-147428095D01*
X144742380Y-147428095D01*
X144742380Y-146951904D01*
X144742380Y-146666190D02*
X144742380Y-146094761D01*
X145742380Y-146380476D02*
X144742380Y-146380476D01*
X194334761Y-116823333D02*
X194382380Y-116680476D01*
X194382380Y-116442380D01*
X194334761Y-116347142D01*
X194287142Y-116299523D01*
X194191904Y-116251904D01*
X194096666Y-116251904D01*
X194001428Y-116299523D01*
X193953809Y-116347142D01*
X193906190Y-116442380D01*
X193858571Y-116632857D01*
X193810952Y-116728095D01*
X193763333Y-116775714D01*
X193668095Y-116823333D01*
X193572857Y-116823333D01*
X193477619Y-116775714D01*
X193430000Y-116728095D01*
X193382380Y-116632857D01*
X193382380Y-116394761D01*
X193430000Y-116251904D01*
X193382380Y-115918571D02*
X194382380Y-115680476D01*
X193668095Y-115490000D01*
X194382380Y-115299523D01*
X193382380Y-115061428D01*
X194382380Y-114156666D02*
X194382380Y-114728095D01*
X194382380Y-114442380D02*
X193382380Y-114442380D01*
X193525238Y-114537619D01*
X193620476Y-114632857D01*
X193668095Y-114728095D01*
X203694761Y-118990000D02*
X203742380Y-118847142D01*
X203742380Y-118609047D01*
X203694761Y-118513809D01*
X203647142Y-118466190D01*
X203551904Y-118418571D01*
X203456666Y-118418571D01*
X203361428Y-118466190D01*
X203313809Y-118513809D01*
X203266190Y-118609047D01*
X203218571Y-118799523D01*
X203170952Y-118894761D01*
X203123333Y-118942380D01*
X203028095Y-118990000D01*
X202932857Y-118990000D01*
X202837619Y-118942380D01*
X202790000Y-118894761D01*
X202742380Y-118799523D01*
X202742380Y-118561428D01*
X202790000Y-118418571D01*
X202742380Y-118085238D02*
X203742380Y-117847142D01*
X203028095Y-117656666D01*
X203742380Y-117466190D01*
X202742380Y-117228095D01*
X203837619Y-117085238D02*
X203837619Y-116323333D01*
X203742380Y-115513809D02*
X203266190Y-115847142D01*
X203742380Y-116085238D02*
X202742380Y-116085238D01*
X202742380Y-115704285D01*
X202790000Y-115609047D01*
X202837619Y-115561428D01*
X202932857Y-115513809D01*
X203075714Y-115513809D01*
X203170952Y-115561428D01*
X203218571Y-115609047D01*
X203266190Y-115704285D01*
X203266190Y-116085238D01*
X203218571Y-115085238D02*
X203218571Y-114751904D01*
X203742380Y-114609047D02*
X203742380Y-115085238D01*
X202742380Y-115085238D01*
X202742380Y-114609047D01*
X203694761Y-114228095D02*
X203742380Y-114085238D01*
X203742380Y-113847142D01*
X203694761Y-113751904D01*
X203647142Y-113704285D01*
X203551904Y-113656666D01*
X203456666Y-113656666D01*
X203361428Y-113704285D01*
X203313809Y-113751904D01*
X203266190Y-113847142D01*
X203218571Y-114037619D01*
X203170952Y-114132857D01*
X203123333Y-114180476D01*
X203028095Y-114228095D01*
X202932857Y-114228095D01*
X202837619Y-114180476D01*
X202790000Y-114132857D01*
X202742380Y-114037619D01*
X202742380Y-113799523D01*
X202790000Y-113656666D01*
X203218571Y-113228095D02*
X203218571Y-112894761D01*
X203742380Y-112751904D02*
X203742380Y-113228095D01*
X202742380Y-113228095D01*
X202742380Y-112751904D01*
X202742380Y-112466190D02*
X202742380Y-111894761D01*
X203742380Y-112180476D02*
X202742380Y-112180476D01*
X165334761Y-116823333D02*
X165382380Y-116680476D01*
X165382380Y-116442380D01*
X165334761Y-116347142D01*
X165287142Y-116299523D01*
X165191904Y-116251904D01*
X165096666Y-116251904D01*
X165001428Y-116299523D01*
X164953809Y-116347142D01*
X164906190Y-116442380D01*
X164858571Y-116632857D01*
X164810952Y-116728095D01*
X164763333Y-116775714D01*
X164668095Y-116823333D01*
X164572857Y-116823333D01*
X164477619Y-116775714D01*
X164430000Y-116728095D01*
X164382380Y-116632857D01*
X164382380Y-116394761D01*
X164430000Y-116251904D01*
X164382380Y-115918571D02*
X165382380Y-115680476D01*
X164668095Y-115490000D01*
X165382380Y-115299523D01*
X164382380Y-115061428D01*
X165382380Y-114156666D02*
X165382380Y-114728095D01*
X165382380Y-114442380D02*
X164382380Y-114442380D01*
X164525238Y-114537619D01*
X164620476Y-114632857D01*
X164668095Y-114728095D01*
X174694761Y-118990000D02*
X174742380Y-118847142D01*
X174742380Y-118609047D01*
X174694761Y-118513809D01*
X174647142Y-118466190D01*
X174551904Y-118418571D01*
X174456666Y-118418571D01*
X174361428Y-118466190D01*
X174313809Y-118513809D01*
X174266190Y-118609047D01*
X174218571Y-118799523D01*
X174170952Y-118894761D01*
X174123333Y-118942380D01*
X174028095Y-118990000D01*
X173932857Y-118990000D01*
X173837619Y-118942380D01*
X173790000Y-118894761D01*
X173742380Y-118799523D01*
X173742380Y-118561428D01*
X173790000Y-118418571D01*
X173742380Y-118085238D02*
X174742380Y-117847142D01*
X174028095Y-117656666D01*
X174742380Y-117466190D01*
X173742380Y-117228095D01*
X174837619Y-117085238D02*
X174837619Y-116323333D01*
X174742380Y-115513809D02*
X174266190Y-115847142D01*
X174742380Y-116085238D02*
X173742380Y-116085238D01*
X173742380Y-115704285D01*
X173790000Y-115609047D01*
X173837619Y-115561428D01*
X173932857Y-115513809D01*
X174075714Y-115513809D01*
X174170952Y-115561428D01*
X174218571Y-115609047D01*
X174266190Y-115704285D01*
X174266190Y-116085238D01*
X174218571Y-115085238D02*
X174218571Y-114751904D01*
X174742380Y-114609047D02*
X174742380Y-115085238D01*
X173742380Y-115085238D01*
X173742380Y-114609047D01*
X174694761Y-114228095D02*
X174742380Y-114085238D01*
X174742380Y-113847142D01*
X174694761Y-113751904D01*
X174647142Y-113704285D01*
X174551904Y-113656666D01*
X174456666Y-113656666D01*
X174361428Y-113704285D01*
X174313809Y-113751904D01*
X174266190Y-113847142D01*
X174218571Y-114037619D01*
X174170952Y-114132857D01*
X174123333Y-114180476D01*
X174028095Y-114228095D01*
X173932857Y-114228095D01*
X173837619Y-114180476D01*
X173790000Y-114132857D01*
X173742380Y-114037619D01*
X173742380Y-113799523D01*
X173790000Y-113656666D01*
X174218571Y-113228095D02*
X174218571Y-112894761D01*
X174742380Y-112751904D02*
X174742380Y-113228095D01*
X173742380Y-113228095D01*
X173742380Y-112751904D01*
X173742380Y-112466190D02*
X173742380Y-111894761D01*
X174742380Y-112180476D02*
X173742380Y-112180476D01*
X136334761Y-116823333D02*
X136382380Y-116680476D01*
X136382380Y-116442380D01*
X136334761Y-116347142D01*
X136287142Y-116299523D01*
X136191904Y-116251904D01*
X136096666Y-116251904D01*
X136001428Y-116299523D01*
X135953809Y-116347142D01*
X135906190Y-116442380D01*
X135858571Y-116632857D01*
X135810952Y-116728095D01*
X135763333Y-116775714D01*
X135668095Y-116823333D01*
X135572857Y-116823333D01*
X135477619Y-116775714D01*
X135430000Y-116728095D01*
X135382380Y-116632857D01*
X135382380Y-116394761D01*
X135430000Y-116251904D01*
X135382380Y-115918571D02*
X136382380Y-115680476D01*
X135668095Y-115490000D01*
X136382380Y-115299523D01*
X135382380Y-115061428D01*
X136382380Y-114156666D02*
X136382380Y-114728095D01*
X136382380Y-114442380D02*
X135382380Y-114442380D01*
X135525238Y-114537619D01*
X135620476Y-114632857D01*
X135668095Y-114728095D01*
X145694761Y-118990000D02*
X145742380Y-118847142D01*
X145742380Y-118609047D01*
X145694761Y-118513809D01*
X145647142Y-118466190D01*
X145551904Y-118418571D01*
X145456666Y-118418571D01*
X145361428Y-118466190D01*
X145313809Y-118513809D01*
X145266190Y-118609047D01*
X145218571Y-118799523D01*
X145170952Y-118894761D01*
X145123333Y-118942380D01*
X145028095Y-118990000D01*
X144932857Y-118990000D01*
X144837619Y-118942380D01*
X144790000Y-118894761D01*
X144742380Y-118799523D01*
X144742380Y-118561428D01*
X144790000Y-118418571D01*
X144742380Y-118085238D02*
X145742380Y-117847142D01*
X145028095Y-117656666D01*
X145742380Y-117466190D01*
X144742380Y-117228095D01*
X145837619Y-117085238D02*
X145837619Y-116323333D01*
X145742380Y-115513809D02*
X145266190Y-115847142D01*
X145742380Y-116085238D02*
X144742380Y-116085238D01*
X144742380Y-115704285D01*
X144790000Y-115609047D01*
X144837619Y-115561428D01*
X144932857Y-115513809D01*
X145075714Y-115513809D01*
X145170952Y-115561428D01*
X145218571Y-115609047D01*
X145266190Y-115704285D01*
X145266190Y-116085238D01*
X145218571Y-115085238D02*
X145218571Y-114751904D01*
X145742380Y-114609047D02*
X145742380Y-115085238D01*
X144742380Y-115085238D01*
X144742380Y-114609047D01*
X145694761Y-114228095D02*
X145742380Y-114085238D01*
X145742380Y-113847142D01*
X145694761Y-113751904D01*
X145647142Y-113704285D01*
X145551904Y-113656666D01*
X145456666Y-113656666D01*
X145361428Y-113704285D01*
X145313809Y-113751904D01*
X145266190Y-113847142D01*
X145218571Y-114037619D01*
X145170952Y-114132857D01*
X145123333Y-114180476D01*
X145028095Y-114228095D01*
X144932857Y-114228095D01*
X144837619Y-114180476D01*
X144790000Y-114132857D01*
X144742380Y-114037619D01*
X144742380Y-113799523D01*
X144790000Y-113656666D01*
X145218571Y-113228095D02*
X145218571Y-112894761D01*
X145742380Y-112751904D02*
X145742380Y-113228095D01*
X144742380Y-113228095D01*
X144742380Y-112751904D01*
X144742380Y-112466190D02*
X144742380Y-111894761D01*
X145742380Y-112180476D02*
X144742380Y-112180476D01*
X194334761Y-82623333D02*
X194382380Y-82480476D01*
X194382380Y-82242380D01*
X194334761Y-82147142D01*
X194287142Y-82099523D01*
X194191904Y-82051904D01*
X194096666Y-82051904D01*
X194001428Y-82099523D01*
X193953809Y-82147142D01*
X193906190Y-82242380D01*
X193858571Y-82432857D01*
X193810952Y-82528095D01*
X193763333Y-82575714D01*
X193668095Y-82623333D01*
X193572857Y-82623333D01*
X193477619Y-82575714D01*
X193430000Y-82528095D01*
X193382380Y-82432857D01*
X193382380Y-82194761D01*
X193430000Y-82051904D01*
X193382380Y-81718571D02*
X194382380Y-81480476D01*
X193668095Y-81290000D01*
X194382380Y-81099523D01*
X193382380Y-80861428D01*
X194382380Y-79956666D02*
X194382380Y-80528095D01*
X194382380Y-80242380D02*
X193382380Y-80242380D01*
X193525238Y-80337619D01*
X193620476Y-80432857D01*
X193668095Y-80528095D01*
X203694761Y-84790000D02*
X203742380Y-84647142D01*
X203742380Y-84409047D01*
X203694761Y-84313809D01*
X203647142Y-84266190D01*
X203551904Y-84218571D01*
X203456666Y-84218571D01*
X203361428Y-84266190D01*
X203313809Y-84313809D01*
X203266190Y-84409047D01*
X203218571Y-84599523D01*
X203170952Y-84694761D01*
X203123333Y-84742380D01*
X203028095Y-84790000D01*
X202932857Y-84790000D01*
X202837619Y-84742380D01*
X202790000Y-84694761D01*
X202742380Y-84599523D01*
X202742380Y-84361428D01*
X202790000Y-84218571D01*
X202742380Y-83885238D02*
X203742380Y-83647142D01*
X203028095Y-83456666D01*
X203742380Y-83266190D01*
X202742380Y-83028095D01*
X203837619Y-82885238D02*
X203837619Y-82123333D01*
X203742380Y-81313809D02*
X203266190Y-81647142D01*
X203742380Y-81885238D02*
X202742380Y-81885238D01*
X202742380Y-81504285D01*
X202790000Y-81409047D01*
X202837619Y-81361428D01*
X202932857Y-81313809D01*
X203075714Y-81313809D01*
X203170952Y-81361428D01*
X203218571Y-81409047D01*
X203266190Y-81504285D01*
X203266190Y-81885238D01*
X203218571Y-80885238D02*
X203218571Y-80551904D01*
X203742380Y-80409047D02*
X203742380Y-80885238D01*
X202742380Y-80885238D01*
X202742380Y-80409047D01*
X203694761Y-80028095D02*
X203742380Y-79885238D01*
X203742380Y-79647142D01*
X203694761Y-79551904D01*
X203647142Y-79504285D01*
X203551904Y-79456666D01*
X203456666Y-79456666D01*
X203361428Y-79504285D01*
X203313809Y-79551904D01*
X203266190Y-79647142D01*
X203218571Y-79837619D01*
X203170952Y-79932857D01*
X203123333Y-79980476D01*
X203028095Y-80028095D01*
X202932857Y-80028095D01*
X202837619Y-79980476D01*
X202790000Y-79932857D01*
X202742380Y-79837619D01*
X202742380Y-79599523D01*
X202790000Y-79456666D01*
X203218571Y-79028095D02*
X203218571Y-78694761D01*
X203742380Y-78551904D02*
X203742380Y-79028095D01*
X202742380Y-79028095D01*
X202742380Y-78551904D01*
X202742380Y-78266190D02*
X202742380Y-77694761D01*
X203742380Y-77980476D02*
X202742380Y-77980476D01*
X165334761Y-82623333D02*
X165382380Y-82480476D01*
X165382380Y-82242380D01*
X165334761Y-82147142D01*
X165287142Y-82099523D01*
X165191904Y-82051904D01*
X165096666Y-82051904D01*
X165001428Y-82099523D01*
X164953809Y-82147142D01*
X164906190Y-82242380D01*
X164858571Y-82432857D01*
X164810952Y-82528095D01*
X164763333Y-82575714D01*
X164668095Y-82623333D01*
X164572857Y-82623333D01*
X164477619Y-82575714D01*
X164430000Y-82528095D01*
X164382380Y-82432857D01*
X164382380Y-82194761D01*
X164430000Y-82051904D01*
X164382380Y-81718571D02*
X165382380Y-81480476D01*
X164668095Y-81290000D01*
X165382380Y-81099523D01*
X164382380Y-80861428D01*
X165382380Y-79956666D02*
X165382380Y-80528095D01*
X165382380Y-80242380D02*
X164382380Y-80242380D01*
X164525238Y-80337619D01*
X164620476Y-80432857D01*
X164668095Y-80528095D01*
X174694761Y-84790000D02*
X174742380Y-84647142D01*
X174742380Y-84409047D01*
X174694761Y-84313809D01*
X174647142Y-84266190D01*
X174551904Y-84218571D01*
X174456666Y-84218571D01*
X174361428Y-84266190D01*
X174313809Y-84313809D01*
X174266190Y-84409047D01*
X174218571Y-84599523D01*
X174170952Y-84694761D01*
X174123333Y-84742380D01*
X174028095Y-84790000D01*
X173932857Y-84790000D01*
X173837619Y-84742380D01*
X173790000Y-84694761D01*
X173742380Y-84599523D01*
X173742380Y-84361428D01*
X173790000Y-84218571D01*
X173742380Y-83885238D02*
X174742380Y-83647142D01*
X174028095Y-83456666D01*
X174742380Y-83266190D01*
X173742380Y-83028095D01*
X174837619Y-82885238D02*
X174837619Y-82123333D01*
X174742380Y-81313809D02*
X174266190Y-81647142D01*
X174742380Y-81885238D02*
X173742380Y-81885238D01*
X173742380Y-81504285D01*
X173790000Y-81409047D01*
X173837619Y-81361428D01*
X173932857Y-81313809D01*
X174075714Y-81313809D01*
X174170952Y-81361428D01*
X174218571Y-81409047D01*
X174266190Y-81504285D01*
X174266190Y-81885238D01*
X174218571Y-80885238D02*
X174218571Y-80551904D01*
X174742380Y-80409047D02*
X174742380Y-80885238D01*
X173742380Y-80885238D01*
X173742380Y-80409047D01*
X174694761Y-80028095D02*
X174742380Y-79885238D01*
X174742380Y-79647142D01*
X174694761Y-79551904D01*
X174647142Y-79504285D01*
X174551904Y-79456666D01*
X174456666Y-79456666D01*
X174361428Y-79504285D01*
X174313809Y-79551904D01*
X174266190Y-79647142D01*
X174218571Y-79837619D01*
X174170952Y-79932857D01*
X174123333Y-79980476D01*
X174028095Y-80028095D01*
X173932857Y-80028095D01*
X173837619Y-79980476D01*
X173790000Y-79932857D01*
X173742380Y-79837619D01*
X173742380Y-79599523D01*
X173790000Y-79456666D01*
X174218571Y-79028095D02*
X174218571Y-78694761D01*
X174742380Y-78551904D02*
X174742380Y-79028095D01*
X173742380Y-79028095D01*
X173742380Y-78551904D01*
X173742380Y-78266190D02*
X173742380Y-77694761D01*
X174742380Y-77980476D02*
X173742380Y-77980476D01*
G04 #@! TO.C,J2*
X187271667Y-156107381D02*
X187271667Y-156821667D01*
X187224048Y-156964524D01*
X187128810Y-157059762D01*
X186985953Y-157107381D01*
X186890715Y-157107381D01*
X187700239Y-156202620D02*
X187747858Y-156155001D01*
X187843096Y-156107381D01*
X188081191Y-156107381D01*
X188176429Y-156155001D01*
X188224048Y-156202620D01*
X188271667Y-156297858D01*
X188271667Y-156393096D01*
X188224048Y-156535953D01*
X187652620Y-157107381D01*
X188271667Y-157107381D01*
X158271667Y-156107381D02*
X158271667Y-156821667D01*
X158224048Y-156964524D01*
X158128810Y-157059762D01*
X157985953Y-157107381D01*
X157890715Y-157107381D01*
X158700239Y-156202620D02*
X158747858Y-156155001D01*
X158843096Y-156107381D01*
X159081191Y-156107381D01*
X159176429Y-156155001D01*
X159224048Y-156202620D01*
X159271667Y-156297858D01*
X159271667Y-156393096D01*
X159224048Y-156535953D01*
X158652620Y-157107381D01*
X159271667Y-157107381D01*
X129271667Y-156107381D02*
X129271667Y-156821667D01*
X129224048Y-156964524D01*
X129128810Y-157059762D01*
X128985953Y-157107381D01*
X128890715Y-157107381D01*
X129700239Y-156202620D02*
X129747858Y-156155001D01*
X129843096Y-156107381D01*
X130081191Y-156107381D01*
X130176429Y-156155001D01*
X130224048Y-156202620D01*
X130271667Y-156297858D01*
X130271667Y-156393096D01*
X130224048Y-156535953D01*
X129652620Y-157107381D01*
X130271667Y-157107381D01*
X187271667Y-121907381D02*
X187271667Y-122621667D01*
X187224048Y-122764524D01*
X187128810Y-122859762D01*
X186985953Y-122907381D01*
X186890715Y-122907381D01*
X187700239Y-122002620D02*
X187747858Y-121955001D01*
X187843096Y-121907381D01*
X188081191Y-121907381D01*
X188176429Y-121955001D01*
X188224048Y-122002620D01*
X188271667Y-122097858D01*
X188271667Y-122193096D01*
X188224048Y-122335953D01*
X187652620Y-122907381D01*
X188271667Y-122907381D01*
X158271667Y-121907381D02*
X158271667Y-122621667D01*
X158224048Y-122764524D01*
X158128810Y-122859762D01*
X157985953Y-122907381D01*
X157890715Y-122907381D01*
X158700239Y-122002620D02*
X158747858Y-121955001D01*
X158843096Y-121907381D01*
X159081191Y-121907381D01*
X159176429Y-121955001D01*
X159224048Y-122002620D01*
X159271667Y-122097858D01*
X159271667Y-122193096D01*
X159224048Y-122335953D01*
X158652620Y-122907381D01*
X159271667Y-122907381D01*
X129271667Y-121907381D02*
X129271667Y-122621667D01*
X129224048Y-122764524D01*
X129128810Y-122859762D01*
X128985953Y-122907381D01*
X128890715Y-122907381D01*
X129700239Y-122002620D02*
X129747858Y-121955001D01*
X129843096Y-121907381D01*
X130081191Y-121907381D01*
X130176429Y-121955001D01*
X130224048Y-122002620D01*
X130271667Y-122097858D01*
X130271667Y-122193096D01*
X130224048Y-122335953D01*
X129652620Y-122907381D01*
X130271667Y-122907381D01*
X187271667Y-87707381D02*
X187271667Y-88421667D01*
X187224048Y-88564524D01*
X187128810Y-88659762D01*
X186985953Y-88707381D01*
X186890715Y-88707381D01*
X187700239Y-87802620D02*
X187747858Y-87755001D01*
X187843096Y-87707381D01*
X188081191Y-87707381D01*
X188176429Y-87755001D01*
X188224048Y-87802620D01*
X188271667Y-87897858D01*
X188271667Y-87993096D01*
X188224048Y-88135953D01*
X187652620Y-88707381D01*
X188271667Y-88707381D01*
X158271667Y-87707381D02*
X158271667Y-88421667D01*
X158224048Y-88564524D01*
X158128810Y-88659762D01*
X157985953Y-88707381D01*
X157890715Y-88707381D01*
X158700239Y-87802620D02*
X158747858Y-87755001D01*
X158843096Y-87707381D01*
X159081191Y-87707381D01*
X159176429Y-87755001D01*
X159224048Y-87802620D01*
X159271667Y-87897858D01*
X159271667Y-87993096D01*
X159224048Y-88135953D01*
X158652620Y-88707381D01*
X159271667Y-88707381D01*
G04 #@! TO.C,J1*
X186711666Y-152747380D02*
X186711666Y-153461666D01*
X186664047Y-153604523D01*
X186568809Y-153699761D01*
X186425952Y-153747380D01*
X186330714Y-153747380D01*
X187711666Y-153747380D02*
X187140238Y-153747380D01*
X187425952Y-153747380D02*
X187425952Y-152747380D01*
X187330714Y-152890238D01*
X187235476Y-152985476D01*
X187140238Y-153033095D01*
X157711666Y-152747380D02*
X157711666Y-153461666D01*
X157664047Y-153604523D01*
X157568809Y-153699761D01*
X157425952Y-153747380D01*
X157330714Y-153747380D01*
X158711666Y-153747380D02*
X158140238Y-153747380D01*
X158425952Y-153747380D02*
X158425952Y-152747380D01*
X158330714Y-152890238D01*
X158235476Y-152985476D01*
X158140238Y-153033095D01*
X128711666Y-152747380D02*
X128711666Y-153461666D01*
X128664047Y-153604523D01*
X128568809Y-153699761D01*
X128425952Y-153747380D01*
X128330714Y-153747380D01*
X129711666Y-153747380D02*
X129140238Y-153747380D01*
X129425952Y-153747380D02*
X129425952Y-152747380D01*
X129330714Y-152890238D01*
X129235476Y-152985476D01*
X129140238Y-153033095D01*
X186711666Y-118547380D02*
X186711666Y-119261666D01*
X186664047Y-119404523D01*
X186568809Y-119499761D01*
X186425952Y-119547380D01*
X186330714Y-119547380D01*
X187711666Y-119547380D02*
X187140238Y-119547380D01*
X187425952Y-119547380D02*
X187425952Y-118547380D01*
X187330714Y-118690238D01*
X187235476Y-118785476D01*
X187140238Y-118833095D01*
X157711666Y-118547380D02*
X157711666Y-119261666D01*
X157664047Y-119404523D01*
X157568809Y-119499761D01*
X157425952Y-119547380D01*
X157330714Y-119547380D01*
X158711666Y-119547380D02*
X158140238Y-119547380D01*
X158425952Y-119547380D02*
X158425952Y-118547380D01*
X158330714Y-118690238D01*
X158235476Y-118785476D01*
X158140238Y-118833095D01*
X128711666Y-118547380D02*
X128711666Y-119261666D01*
X128664047Y-119404523D01*
X128568809Y-119499761D01*
X128425952Y-119547380D01*
X128330714Y-119547380D01*
X129711666Y-119547380D02*
X129140238Y-119547380D01*
X129425952Y-119547380D02*
X129425952Y-118547380D01*
X129330714Y-118690238D01*
X129235476Y-118785476D01*
X129140238Y-118833095D01*
X186711666Y-84347380D02*
X186711666Y-85061666D01*
X186664047Y-85204523D01*
X186568809Y-85299761D01*
X186425952Y-85347380D01*
X186330714Y-85347380D01*
X187711666Y-85347380D02*
X187140238Y-85347380D01*
X187425952Y-85347380D02*
X187425952Y-84347380D01*
X187330714Y-84490238D01*
X187235476Y-84585476D01*
X187140238Y-84633095D01*
X157711666Y-84347380D02*
X157711666Y-85061666D01*
X157664047Y-85204523D01*
X157568809Y-85299761D01*
X157425952Y-85347380D01*
X157330714Y-85347380D01*
X158711666Y-85347380D02*
X158140238Y-85347380D01*
X158425952Y-85347380D02*
X158425952Y-84347380D01*
X158330714Y-84490238D01*
X158235476Y-84585476D01*
X158140238Y-84633095D01*
X128711666Y-84347380D02*
X128711666Y-85061666D01*
X128664047Y-85204523D01*
X128568809Y-85299761D01*
X128425952Y-85347380D01*
X128330714Y-85347380D01*
X129711666Y-85347380D02*
X129140238Y-85347380D01*
X129425952Y-85347380D02*
X129425952Y-84347380D01*
X129330714Y-84490238D01*
X129235476Y-84585476D01*
X129140238Y-84633095D01*
G04 #@! TO.C,J2*
X129271667Y-87707381D02*
X129271667Y-88421667D01*
X129224048Y-88564524D01*
X129128810Y-88659762D01*
X128985953Y-88707381D01*
X128890715Y-88707381D01*
X129700239Y-87802620D02*
X129747858Y-87755001D01*
X129843096Y-87707381D01*
X130081191Y-87707381D01*
X130176429Y-87755001D01*
X130224048Y-87802620D01*
X130271667Y-87897858D01*
X130271667Y-87993096D01*
X130224048Y-88135953D01*
X129652620Y-88707381D01*
X130271667Y-88707381D01*
G04 #@! TO.C,SW1*
X136334761Y-82623333D02*
X136382380Y-82480476D01*
X136382380Y-82242380D01*
X136334761Y-82147142D01*
X136287142Y-82099523D01*
X136191904Y-82051904D01*
X136096666Y-82051904D01*
X136001428Y-82099523D01*
X135953809Y-82147142D01*
X135906190Y-82242380D01*
X135858571Y-82432857D01*
X135810952Y-82528095D01*
X135763333Y-82575714D01*
X135668095Y-82623333D01*
X135572857Y-82623333D01*
X135477619Y-82575714D01*
X135430000Y-82528095D01*
X135382380Y-82432857D01*
X135382380Y-82194761D01*
X135430000Y-82051904D01*
X135382380Y-81718571D02*
X136382380Y-81480476D01*
X135668095Y-81290000D01*
X136382380Y-81099523D01*
X135382380Y-80861428D01*
X136382380Y-79956666D02*
X136382380Y-80528095D01*
X136382380Y-80242380D02*
X135382380Y-80242380D01*
X135525238Y-80337619D01*
X135620476Y-80432857D01*
X135668095Y-80528095D01*
X145694761Y-84790000D02*
X145742380Y-84647142D01*
X145742380Y-84409047D01*
X145694761Y-84313809D01*
X145647142Y-84266190D01*
X145551904Y-84218571D01*
X145456666Y-84218571D01*
X145361428Y-84266190D01*
X145313809Y-84313809D01*
X145266190Y-84409047D01*
X145218571Y-84599523D01*
X145170952Y-84694761D01*
X145123333Y-84742380D01*
X145028095Y-84790000D01*
X144932857Y-84790000D01*
X144837619Y-84742380D01*
X144790000Y-84694761D01*
X144742380Y-84599523D01*
X144742380Y-84361428D01*
X144790000Y-84218571D01*
X144742380Y-83885238D02*
X145742380Y-83647142D01*
X145028095Y-83456666D01*
X145742380Y-83266190D01*
X144742380Y-83028095D01*
X145837619Y-82885238D02*
X145837619Y-82123333D01*
X145742380Y-81313809D02*
X145266190Y-81647142D01*
X145742380Y-81885238D02*
X144742380Y-81885238D01*
X144742380Y-81504285D01*
X144790000Y-81409047D01*
X144837619Y-81361428D01*
X144932857Y-81313809D01*
X145075714Y-81313809D01*
X145170952Y-81361428D01*
X145218571Y-81409047D01*
X145266190Y-81504285D01*
X145266190Y-81885238D01*
X145218571Y-80885238D02*
X145218571Y-80551904D01*
X145742380Y-80409047D02*
X145742380Y-80885238D01*
X144742380Y-80885238D01*
X144742380Y-80409047D01*
X145694761Y-80028095D02*
X145742380Y-79885238D01*
X145742380Y-79647142D01*
X145694761Y-79551904D01*
X145647142Y-79504285D01*
X145551904Y-79456666D01*
X145456666Y-79456666D01*
X145361428Y-79504285D01*
X145313809Y-79551904D01*
X145266190Y-79647142D01*
X145218571Y-79837619D01*
X145170952Y-79932857D01*
X145123333Y-79980476D01*
X145028095Y-80028095D01*
X144932857Y-80028095D01*
X144837619Y-79980476D01*
X144790000Y-79932857D01*
X144742380Y-79837619D01*
X144742380Y-79599523D01*
X144790000Y-79456666D01*
X145218571Y-79028095D02*
X145218571Y-78694761D01*
X145742380Y-78551904D02*
X145742380Y-79028095D01*
X144742380Y-79028095D01*
X144742380Y-78551904D01*
X144742380Y-78266190D02*
X144742380Y-77694761D01*
X145742380Y-77980476D02*
X144742380Y-77980476D01*
G04 #@! TD*
M02*
